<svg width="98" height="22" viewBox="0 0 98 22" fill="none" xmlns="http://www.w3.org/2000/svg">
<path d="M20.0301 0C19.0161 0 18.0979 0.669583 18.0022 2.20006C17.9448 3.04182 17.83 3.50096 17.4092 3.92184C16.9883 4.34272 16.5291 4.47664 15.6874 4.5149C14.2908 4.5723 13.4873 5.45232 13.4873 6.54278C13.4873 7.63325 14.3673 8.51327 15.4578 8.51327C16.4717 8.51327 17.39 7.84369 17.4857 6.31321C17.5431 5.47145 17.6579 5.01231 18.0787 4.59143C18.4996 4.17055 18.9588 4.03663 19.8005 3.99837C21.1971 3.94097 22.0006 3.06095 22.0006 1.97049C22.0006 0.880023 21.1205 0 20.0301 0Z" fill="black"/>
<path d="M19.8005 18.0015C18.9588 17.9633 18.4996 17.8294 18.0787 17.4085C17.6579 16.9876 17.5431 16.5285 17.4857 15.6867C17.39 14.1562 16.4717 13.4866 15.4578 13.4866C14.3673 13.4866 13.4873 14.3667 13.4873 15.4571C13.4873 16.5476 14.2908 17.4276 15.6874 17.485C16.5291 17.5233 16.9883 17.6572 17.4092 18.0781C17.83 18.4989 17.9448 18.9581 18.0022 19.7998C18.0979 21.3303 19.0161 21.9999 20.0301 21.9999C21.1205 21.9999 22.0006 21.1199 22.0006 20.0294C22.0006 18.939 21.1971 18.0589 19.8005 18.0015Z" fill="black"/>
<path d="M6.54276 13.4866C5.52882 13.4866 4.61054 14.1562 4.51489 15.6867C4.4575 16.5285 4.34271 16.9876 3.92183 17.4085C3.50095 17.8294 3.04181 17.9633 2.20005 18.0015C0.803497 18.0589 0 18.939 0 20.0294C0 21.1199 0.880021 21.9999 1.97048 21.9999C2.98442 21.9999 3.9027 21.3303 3.99835 19.7998C4.05575 18.9581 4.17053 18.4989 4.59141 18.0781C5.01229 17.6572 5.47143 17.5233 6.31319 17.485C7.70975 17.4276 8.51324 16.5476 8.51324 15.4571C8.51324 14.3667 7.63322 13.4866 6.54276 13.4866Z" fill="black"/>
<path d="M6.31319 4.5149C5.47143 4.47664 5.01229 4.34272 4.59141 3.92184C4.17053 3.50096 4.05575 3.04182 3.99835 2.20006C3.9027 0.669583 2.98442 0 1.97048 0C0.880021 0 0 0.880023 0 1.97049C0 3.06095 0.803497 3.94097 2.20005 3.99837C3.04181 4.03663 3.50095 4.17055 3.92183 4.59143C4.34271 5.01231 4.4575 5.47145 4.51489 6.31321C4.61054 7.84369 5.52882 8.51327 6.54276 8.51327C7.63322 8.51327 8.51324 7.63325 8.51324 6.54278C8.51324 5.45232 7.70975 4.5723 6.31319 4.5149Z" fill="black"/>
<path d="M11.0002 8.64716C9.66107 8.64716 8.64713 9.6611 8.64713 11.0003C8.64713 12.3394 9.66107 13.3534 11.0002 13.3534C12.3394 13.3534 13.3533 12.3394 13.3533 11.0003C13.3533 9.6611 12.3394 8.64716 11.0002 8.64716Z" fill="black"/>
<path d="M36.3151 4.53516L31 18.0607H33.0148L34.3196 14.598H40.0952L41.4 18.0607H43.5107L38.1956 4.53516H36.3151ZM34.972 12.8763L37.217 6.96479L39.4428 12.8763H34.972Z" fill="black"/>
<path d="M86.6841 13.4315C86.6841 15.268 85.7631 16.6263 84.1897 16.6263C82.8273 16.6263 82.0022 15.7463 82.0022 13.7758V8.30438H80.1217V13.9671C80.1217 16.6837 81.4649 18.3099 83.6524 18.3099C84.9572 18.3099 86.1085 17.6594 86.6841 16.282V18.0612H88.5646V8.30438H86.6841V13.4315Z" fill="black"/>
<path d="M76.8788 4C76.1305 4 75.574 4.5548 75.574 5.3009C75.574 6.04701 76.1305 6.60181 76.8788 6.60181C77.6271 6.60181 78.1836 6.04701 78.1836 5.3009C78.1836 4.5548 77.6271 4 76.8788 4Z" fill="black"/>
<path d="M52.5868 8.30438H50.4761L48.2694 11.5289L46.0628 8.30438H43.8177L47.1607 13.0557L43.5875 18.0612H45.6982L48.1531 14.4904L50.5912 18.0612H52.8362L49.2864 12.9924L52.5868 8.30438Z" fill="black"/>
<path d="M92.287 10.8675C92.287 10.0449 92.901 9.52835 94.0523 9.52835C95.0693 9.52835 95.9328 10.064 96.0095 11.1545H97.7365C97.6213 9.10747 96.2206 8.0744 94.0331 8.0744C92.1335 8.0744 90.5601 9.20313 90.5601 10.944C90.5601 14.5407 96.1246 13.2206 96.1246 15.325C96.1246 16.2433 95.2996 16.7599 94.2058 16.7599C93.0162 16.7599 92.1335 16.1477 92.0184 14.885H90.2914C90.4641 17.1807 91.9992 18.2903 94.225 18.2903C96.1822 18.2903 97.89 17.1807 97.89 15.2294C97.89 11.4414 92.287 12.838 92.287 10.8675Z" fill="black"/>
<path d="M77.819 8.30438H75.9385V18.0612H77.819V8.30438Z" fill="black"/>
<path d="M69.9905 8.05591C68.5705 8.05591 67.4192 8.70636 66.8436 10.0838V8.30461H64.9632V18.0614H66.8436V12.9343C66.8436 11.0977 67.7646 9.73943 69.4532 9.73943C70.9307 9.73943 71.7558 10.6195 71.7558 12.5899V18.0614H73.6362V12.3986C73.6362 9.68204 72.2931 8.05591 69.9905 8.05591Z" fill="black"/>
<path d="M58.0745 8.0744C55.1387 8.0744 52.9896 10.2553 52.9896 13.1824C52.9896 16.1094 55.1387 18.2903 58.0745 18.2903C61.0103 18.2903 63.1593 16.1094 63.1593 13.1824C63.1593 10.2553 61.0103 8.0744 58.0745 8.0744ZM58.0745 16.6259C56.194 16.6259 54.966 15.2102 54.966 13.1824C54.966 11.1545 56.194 9.73879 58.0745 9.73879C59.9549 9.73879 61.183 11.1545 61.183 13.1824C61.183 15.2102 59.9549 16.6259 58.0745 16.6259Z" fill="black"/>
</svg>
