<svg width="134" height="48" viewBox="0 0 134 48" fill="none" xmlns="http://www.w3.org/2000/svg">
<path d="M8.31808 15.6264L7.95686 15.4502L8.27293 15.1974C8.74452 14.8194 9.11578 14.3495 9.37415 13.8081C9.65761 13.2106 9.8031 12.5466 9.8031 11.8341C9.8031 11.022 9.61245 10.2635 9.23869 9.58424C8.86493 8.9075 8.29049 8.35333 7.53544 7.93963C6.77287 7.52336 5.83721 7.3114 4.75104 7.3114H0V25.083H5.66161C6.79795 25.083 7.77876 24.8455 8.58147 24.3807C9.38168 23.9159 9.99876 23.2902 10.4152 22.5267C10.8316 21.7605 11.0423 20.9255 11.0423 20.0419C11.0423 19.0101 10.7814 18.0959 10.2697 17.3247C9.78554 16.5943 9.12832 16.0248 8.31808 15.6264ZM2.11966 9.41314H4.59802C5.52616 9.41314 6.27368 9.66086 6.82304 10.1461C7.37741 10.6389 7.65836 11.2825 7.65836 12.0639C7.65836 12.8428 7.36988 13.5068 6.80046 14.0329C6.23355 14.5538 5.48602 14.8194 4.57294 14.8194H2.11966V9.41314ZM7.91673 22.1078C7.31721 22.6824 6.49944 22.9736 5.48351 22.9736H2.11966V16.9467H5.48351C6.49694 16.9467 7.3147 17.2276 7.91422 17.7843C8.51876 18.3462 8.82479 19.0689 8.82479 19.932C8.82479 20.8003 8.51876 21.5307 7.91673 22.1078Z" fill="white"/>
<path d="M16.3546 17.0513H22.0062V14.9981H16.3546V9.38747H23.6794V7.30872H14.235V25.0803H23.6794V23.0015H16.3546V17.0513Z" fill="white"/>
<path d="M55.1912 11.6168C54.4462 10.2199 53.3801 9.08604 52.023 8.25352C50.6659 7.42099 49.0956 6.99707 47.3572 6.99707C45.6013 6.99707 44.0235 7.42099 42.6664 8.25352C41.3093 9.08859 40.2432 10.2199 39.4982 11.6168C38.7532 13.0163 38.3744 14.5562 38.3744 16.1931C38.3744 17.848 38.7532 19.3955 39.4982 20.795C40.2432 22.1945 41.3093 23.3258 42.6664 24.1583C44.0235 24.9908 45.6013 25.4147 47.3572 25.4147C49.0956 25.4147 50.6659 24.9908 52.023 24.1583C53.3801 23.3232 54.4462 22.1919 55.1912 20.795C55.9362 19.3955 56.315 17.848 56.315 16.1931C56.315 14.5562 55.9362 13.0188 55.1912 11.6168ZM53.3299 19.7096C52.7529 20.7873 51.9352 21.6607 50.8942 22.3068C49.8531 22.9555 48.6641 23.2824 47.3572 23.2824C46.0353 23.2824 44.8412 22.9529 43.8077 22.3043C42.7768 21.6582 41.9665 20.7822 41.3971 19.7071C40.8302 18.632 40.5442 17.4496 40.5442 16.1906C40.5442 14.9316 40.8327 13.7492 41.3971 12.6741C41.964 11.5964 42.7768 10.7281 43.8077 10.0871C44.8412 9.44867 46.0353 9.12435 47.3572 9.12435C48.6616 9.12435 49.8506 9.44867 50.8917 10.0871C51.9327 10.7255 52.7504 11.5964 53.3274 12.6715C53.9018 13.7466 54.1953 14.929 54.1953 16.188C54.1953 17.447 53.9043 18.6345 53.3299 19.7096Z" fill="white"/>
<path d="M74.3987 25.3895V7.30897H72.3041V20.2105L60.3588 7.02295H60.2358V25.0805H62.3304V12.4395L74.2757 25.3895H74.3987Z" fill="white"/>
<path d="M91.95 16.1421C91.95 14.5052 91.5938 12.9959 90.8889 11.6578C90.1865 10.3221 89.1656 9.24957 87.8511 8.47578C86.5367 7.70199 84.9689 7.30872 83.1954 7.30872H78.6752V25.0803H83.1954C84.9689 25.0803 86.5342 24.6793 87.8511 23.8877C89.1656 23.096 90.1865 22.0132 90.8889 20.6674C91.5938 19.319 91.95 17.797 91.95 16.1421ZM89.0176 19.5642C88.4908 20.5984 87.7232 21.4361 86.7324 22.049C85.7415 22.6619 84.56 22.9734 83.2205 22.9734H80.7923V9.41301H83.2205C84.5575 9.41301 85.739 9.7118 86.7299 10.2966C87.7207 10.884 88.4908 11.6986 89.0151 12.7176C89.5394 13.734 89.8052 14.8857 89.8052 16.1421C89.8078 17.3807 89.5419 18.5325 89.0176 19.5642Z" fill="white"/>
<path d="M32.7634 29.4858H30.6462V47.2574H32.7634V29.4858Z" fill="white"/>
<path d="M46.2185 30.6549C44.904 29.8811 43.3362 29.4878 41.5627 29.4878H37.0425V47.2594H41.5627C43.3362 47.2594 44.9015 46.8584 46.2185 46.0668C47.5329 45.2751 48.5538 44.1923 49.2562 42.8465C49.9611 41.4981 50.3173 39.9761 50.3173 38.3212C50.3173 36.6843 49.9611 35.175 49.2562 33.8343C48.5538 32.4987 47.5329 31.4286 46.2185 30.6549ZM47.3824 41.7433C46.8581 42.7775 46.088 43.6151 45.0972 44.2281C44.1063 44.841 42.9248 45.1525 41.5853 45.1525H39.1571V31.5895H41.5853C42.9223 31.5895 44.1038 31.8883 45.0947 32.4731C46.0855 33.0605 46.8556 33.8751 47.3824 34.8941C47.9067 35.9079 48.1726 37.0622 48.1726 38.3187C48.1726 39.5598 47.9067 40.7115 47.3824 41.7433Z" fill="white"/>
<path d="M55.8316 39.231H61.4857V37.1777H55.8316V31.5646H63.1588V29.4858H53.7119V47.2574H63.1588V45.1786H55.8316V39.231Z" fill="white"/>
<path d="M67.0767 29.2028V47.2578H69.1712V34.6193L81.1166 47.5693H81.237V29.4862H79.1449V42.3903L67.1996 29.2028H67.0767Z" fill="white"/>
<path d="M89.4844 47.2574H91.604V31.5927H95.9888V29.4858H84.9967V31.5927H89.4844V47.2574Z" fill="white"/>
<path d="M101.867 29.4858H99.7495V47.2574H101.867V29.4858Z" fill="white"/>
<path d="M110.119 47.2576H112.236V31.5929H116.623V29.4861H105.631V31.5929H110.119V47.2576Z" fill="white"/>
<path d="M131.418 29.6163L126.71 38.8252L122.112 29.4861H119.729L125.669 41.0214V47.2576H127.786V40.9678L133.774 29.6163H131.418Z" fill="white"/>
<path d="M38.4417 0L31.423 14.2474L28.1143 7.51825H25.7338L31.438 18.4713L40.8021 0H38.4417Z" fill="white"/>
<path d="M30.6465 23.3871V25.8643H32.7636V19.1964L30.6465 23.3871Z" fill="white"/>
</svg>
