<?xml version="1.0" encoding="UTF-8"?>
<svg id="Layer_2" data-name="Layer 2" xmlns="http://www.w3.org/2000/svg" viewBox="0 0 1466.07 308.8">
  <defs>
    <style>
      .cls-1 {
        fill: #000;
        stroke-width: 0px;
      }
    </style>
  </defs>
  <g id="Layer_1-2" data-name="Layer 1">
    <path class="cls-1" d="M357.87,132.45h-17.38c-11.81,0-23.45,2.76-34,8.06h0c-10.55,5.3-22.2,8.06-34,8.06h-7.21c-11.34,0-22.54-2.55-32.77-7.46l-2.53-1.21c-10.23-4.91-21.43-7.46-32.77-7.46h-30.54c-11.34,0-22.54,2.55-32.77,7.46l-2.53,1.21c-10.23,4.91-21.43,7.46-32.77,7.46h-7.21c-11.81,0-23.45-2.76-34-8.06h0c-10.55-5.3-22.2-8.06-34-8.06H6c-3.31,0-6,2.69-6,6v31c0,3.31,2.69,6,6,6h17.38c11.81,0,23.45-2.76,34-8.06h0c10.55-5.3,22.2-8.06,34-8.06h7.21c11.34,0,22.54,2.55,32.77,7.46l2.53,1.21c10.23,4.91,21.43,7.46,32.77,7.46h30.54c11.34,0,22.54-2.55,32.77-7.46l2.53-1.21c10.23-4.91,21.43-7.46,32.77-7.46h7.21c11.81,0,23.45,2.76,34,8.06h0c10.55,5.3,22.2,8.06,34,8.06h17.38c3.31,0,6-2.69,6-6v-31c0-3.31-2.69-6-6-6Z"/>
    <path class="cls-1" d="M1310.87,308.8h-97.2c-3.3,0-6-2.7-6-6V6c0-3.3,2.7-6,6-6h97.2c46.9,0,86,14.2,113.1,41.7,27.5,27.1,42.1,66.2,42.1,112.7s-14.6,85.6-42.1,112.7c-27.1,27.5-66.2,41.7-113.1,41.7h0ZM1261.47,47.3v214.1h49.4c62.4,0,101.1-41.3,101.1-107.1s-38.3-107.1-101.5-107.1h-49v.1Z"/>
    <path class="cls-1" d="M1130.97,6c0-3.3,2.7-6,6-6h40.9c3.3,0,6,2.7,6,6v296.7c0,3.3-2.7,6-6,6h-39c-2,0-3.9-1-5-2.6l-151.3-224v220.6c0,3.3-2.7,6-6,6h-40.9c-3.3,0-6-2.7-6-6V6c0-3.3,2.7-6,6-6h47.6c2,0,3.9,1,5,2.7l142.7,213.6V6Z"/>
    <path class="cls-1" d="M850.77,6c0-3.3,2.7-6,6-6h43c3.3,0,6,2.7,6,6v296.7c0,3.3-2.7,6-6,6h-43c-3.3,0-6-2.7-6-6V6Z"/>
    <path class="cls-1" d="M775.67,70.1l-79.5,234.6c-.8,2.4-3.1,4.1-5.7,4.1h-36.1c-2.6,0-4.9-1.6-5.7-4.1l-79.5-234.6v232.7c0,3.3-2.7,6-6,6h-39.2c-3.3,0-6-2.7-6-6V6c0-3.3,2.7-6,6-6h65.4c2.6,0,4.9,1.6,5.7,4.1l78.2,232.4L751.47,4.1c.8-2.4,3.1-4.1,5.7-4.1h63.6c3.3,0,6,2.7,6,6v296.7c0,3.3-2.7,6-6,6h-39.2c-3.3,0-6-2.7-6-6V70.1h.1Z"/>
    <rect class="cls-1" x="160.09" y=".1" width="42.8" height="42.8" rx="6" ry="6"/>
    <rect class="cls-1" x="160.09" y="265" width="42.8" height="42.8" rx="6" ry="6"/>
    <path class="cls-1" d="M272.25,66.22h-20.78c-11.34,0-22.54,2.55-32.77,7.46l-2.53,1.21c-10.23,4.91-21.43,7.46-32.77,7.46h-7.21c-11.81,0-23.45-2.76-34-8.06h0c-10.55-5.3-22.2-8.06-34-8.06h-17.38c-3.31,0-6,2.69-6,6v31c0,3.31,2.69,6,6,6h17.38c11.81,0,23.45-2.76,34-8.06h0c10.55-5.3,22.2-8.06,34-8.06h7.21c11.34,0,22.54,2.55,32.77,7.46l2.53,1.21c10.23,4.91,21.43,7.46,32.77,7.46h20.78c3.31,0,6-2.69,6-6v-31c0-3.31-2.69-6-6-6Z"/>
    <path class="cls-1" d="M272.25,198.67h-20.78c-11.34,0-22.54,2.55-32.77,7.46l-2.53,1.21c-10.23,4.91-21.43,7.46-32.77,7.46h-7.21c-11.81,0-23.45-2.76-34-8.06h0c-10.55-5.3-22.2-8.06-34-8.06h-17.38c-3.31,0-6,2.69-6,6v31c0,3.31,2.69,6,6,6h17.38c11.81,0,23.45-2.76,34-8.06h0c10.55-5.3,22.2-8.06,34-8.06h7.21c11.34,0,22.54,2.55,32.77,7.46l2.53,1.21c10.23,4.91,21.43,7.46,32.77,7.46h20.78c3.31,0,6-2.69,6-6v-31c0-3.31-2.69-6-6-6Z"/>
  </g>
</svg>