<svg width="1000" height="126" fill="none" xmlns="http://www.w3.org/2000/svg"><path fill-rule="evenodd" clip-rule="evenodd" d="M65.905 2.26c-.337 0-.656.152-.868.414l-6.524 8.06a3.827 3.827 0 1 0 2.216 4.66h14.762a3.829 3.829 0 0 0 7.488-1.116 3.827 3.827 0 0 0-5.27-3.545l-6.524-8.059a1.116 1.116 0 0 0-.868-.414h-4.412zm9.586 10.901c.112-.366.277-.709.486-1.02l-6.192-7.648h-3.347l-6.193 7.65c.209.31.373.653.485 1.018H75.49zm-17.454 8.29a1.116 1.116 0 0 1 1.55.303l4.323 6.425 4.32-6.418a1.116 1.116 0 0 1 1.852 1.246l-4.826 7.171 2.855 4.243 8.525-12.667A1.116 1.116 0 1 1 78.488 23l-9.45 14.043a1.116 1.116 0 0 1-1.853 0l-4.18-6.211a1.1 1.1 0 0 1-.04-.06L57.734 23a1.116 1.116 0 0 1 .302-1.549zM47.984 96.942a1.116 1.116 0 0 1 1.413.705l5.712 17.07 13.395 7.42a1.116 1.116 0 1 1-1.082 1.953l-13.774-7.63a1.12 1.12 0 0 1-.518-.623l-5.85-17.482a1.116 1.116 0 0 1 .704-1.413zM70.139 88.4a2.892 2.892 0 1 1 1.186-1.891l9.95 6.238c.437.274.63.811.466 1.3L78.1 104.931a1.115 1.115 0 1 1-2.117-.708l3.363-10.051L70.14 88.4zm-9.822.776c.362-.225.82-.225 1.181 0l11.005 6.855c.448.28.64.835.458 1.331l-3.234 8.845 11.742 6.332 5-14.815a1.116 1.116 0 1 1 2.115.714l-5.554 16.456a1.117 1.117 0 0 1-.516.619l-7.393 4.106a1.115 1.115 0 0 1-1.083.001l-11.083-6.136a2.892 2.892 0 1 1 1.187-1.894l10.436 5.777 5.488-3.048-12.25-6.605a1.116 1.116 0 0 1-.518-1.366l3.255-8.901-9.645-6.008-5.649 3.522a1.116 1.116 0 0 1-1.181-1.894l6.24-3.89zM42.826 45.87a2.892 2.892 0 1 0-2.139-.642L28.136 87.15c-.088.295-.05.613.103.88l3.523 6.08a1.116 1.116 0 0 0 1.557.388l18.255-11.413c.278-.174.466-.462.513-.787l2.597-18.02a1.116 1.116 0 0 0-2.21-.318l-2.523 17.507-16.836 10.526-2.702-4.665L42.826 45.87zm12.286-18.166a1.117 1.117 0 0 0-1.796-.07l-5.712 7.148a1.116 1.116 0 0 0-.052 1.324l7.351 10.847-1.212 8.427-9.955 6.24a1.116 1.116 0 0 0-.512.787l-2.02 14.04a2.893 2.893 0 1 0 2.21.318l1.946-13.528 9.955-6.24c.287-.18.475-.479.515-.81l1.344-9.344a1.117 1.117 0 0 0-.18-.785l-7.132-10.524 4.252-5.323 10.003 14.761-5.438 37.812L17.491 108.6l15.014-50.14a2.893 2.893 0 1 0-2.14-.64L14.503 110.8a1.116 1.116 0 0 0 1.662 1.266l44.14-27.666c.277-.174.464-.462.511-.787l3.726-25.903h7.14l3.726 25.903c.047.325.234.612.512.787l44.139 27.666a1.117 1.117 0 0 0 1.662-1.266l-15.864-52.983a2.892 2.892 0 1 0-2.138.64l15.013 50.142-41.188-25.816-5.438-37.812 10.003-14.761 4.253 5.323-7.132 10.524c-.156.23-.22.51-.181.785l1.344 9.344c.04.331.228.63.515.81l9.956 6.24 1.945 13.527a2.892 2.892 0 1 0 2.21-.317l-2.02-14.04a1.116 1.116 0 0 0-.511-.787l-9.956-6.24-1.212-8.427 7.35-10.848a1.116 1.116 0 0 0-.051-1.322l-5.712-7.15a1.116 1.116 0 0 0-1.796.071L70.014 44.077c-.155.23-.22.51-.18.785L71.36 55.48h-6.498l1.527-10.617a1.116 1.116 0 0 0-.181-.785L55.112 27.704zm41.479 15.29c0 .9-.412 1.705-1.057 2.235l12.551 41.921c.088.295.051.613-.104.88l-3.522 6.08a1.117 1.117 0 0 1-1.558.388L84.647 83.085a1.116 1.116 0 0 1-.513-.787l-2.597-18.02a1.116 1.116 0 1 1 2.21-.318l2.523 17.507 16.836 10.526 2.702-4.665L93.395 45.87a2.893 2.893 0 1 1 3.196-2.877z" fill="#21F4DB"/><path fill-rule="evenodd" clip-rule="evenodd" d="M178.844 56.444l.701.175c15.589 3.957 30.276 7.705 30.276 24.766 0 13.91-9.5 24.308-29.61 24.308-20.443 0-34.908-10.62-35.698-28.834h12.884c.901 10.857 7.336 18.214 22.481 18.214 12.884 0 16.948-5.664 16.948-13.008 0-9.79-7.141-11.592-20.459-14.952l-.002-.001-.009-.002-.009-.002-2.114-.535c-12.689-3.29-26.558-7.469-26.558-22.85 0-14.022 10.845-22.046 28.25-22.046 18.418 0 30.387 9.385 31.635 25.669h-12.995c-1.248-9.732-6.782-15.049-18.64-15.049-10.054 0-15.366 3.735-15.366 10.745 0 8.847 8.202 10.89 18.285 13.402zm658.6-32.28h12.537v11.98h-12.537v-11.98zM269.242 97.336c-2.15 0-2.774-2.152-2.774-6.344v-26.46c0-14.923-9.5-19.893-21.358-19.893-17.613 0-24.853 8.704-25.408 19.782h11.29c.568-7.69 3.605-10.856 13.66-10.856 8.488 0 10.971 3.498 10.971 7.69 0 5.651-5.548 6.79-14.577 8.47-14.354 2.776-24.062 6.566-24.062 19.434 0 9.843 7.351 16.534 18.876 16.534 9.375 0 15.921-3.748 19.763-9.717h.221c.569 6.552 3.606 8.704 9.043 8.704a24.73 24.73 0 0 0 5.658-.68v-6.789a6.576 6.576 0 0 1-1.303.125zm-13.55-15.729c0 10.079-7.351 15.146-17.281 15.146-6.934 0-9.708-2.93-9.708-8.33 0-5.997 4.161-8.704 14.341-10.855 5.88-1.25 10.859-2.485 12.662-4.165l-.014 8.204zm35.624 22.503h-11.095V46.444h11.095v7.233h.222c3.051-4.415 9.042-8.927 18.986-8.927 10.624 0 19.209 6.095 19.209 19.338v40.023H318.54V67.129c0-7.677-3.314-12.883-11.635-12.883-9.487 0-15.589 5.761-15.589 14.465v35.4zm91.497-80.851v30.18h-.235c-3.052-4.512-8.71-8.69-17.739-8.69-14.687 0-25.754 11.536-25.754 30.54 0 19.006 11.095 30.431 25.754 30.431a21.392 21.392 0 0 0 17.739-8.33h.235v6.775h11.234V23.26h-11.234zm-16.171 73.27c-10.845 0-16.032-9.939-16.032-21.253s5.187-21.254 16.032-21.254c9.944 0 16.171 8.135 16.171 21.254 0 13.119-6.227 21.254-16.171 21.254zm54.968-40.924v48.505h-11.081V55.606h-7.906v-9.162h7.906v-7.01c0-13.355 5.533-16.965 14.923-16.965 2.348.052 4.689.28 7.003.68v8.927a42.83 42.83 0 0 0-4.743-.333c-4.632 0-6.102 1.346-6.102 7.454v7.247h10.845v9.162H421.61zm30.388-32.346h-11.067v80.85h11.067V23.26zm18.85 91.596c4.508 0 9.598-2.262 11.969-11.3l-23.369-57.112h12.08l16.837 44.104h.277l15.935-44.104h11.525l-22.772 59.028c-5.659 14.243-11.192 18.88-20.11 18.88a33.258 33.258 0 0 1-7.129-.791v-9.038c1.577.218 3.166.329 4.757.333zm101.696-58.237l-.709-.177c-10.067-2.51-18.264-4.555-18.264-13.4 0-7.01 5.298-10.745 15.353-10.745 11.872 0 17.405 5.317 18.64 15.049h12.995c-1.235-16.284-13.217-25.669-31.635-25.669-17.391 0-28.237 8.024-28.237 22.045 0 15.382 13.869 19.56 26.545 22.85.727.186 1.438.365 2.132.54h.002c13.317 3.361 20.458 5.163 20.458 14.954 0 7.343-4.063 13.007-16.933 13.007-15.145 0-21.58-7.357-22.496-18.213h-12.87c.791 18.213 15.256 28.833 35.698 28.833 20.11 0 29.596-10.398 29.596-24.308 0-17.061-14.687-20.81-30.275-24.766zm66.187-11.966c17.53 0 27.335 11.522 27.335 29.389v.003c0 1.568 0 3.26-.097 4.217h-44.297c.236 9.718 5.88 18.533 17.28 18.533 10.18 0 14.022-6.538 15.145-10.398h11.178c-2.968 11.106-11.4 19.435-26.544 19.435-18.293 0-28.459-13.007-28.459-30.638 0-18.116 10.928-30.541 28.459-30.541zm-.32 9.037c-9.264 0-16.046 6.33-16.725 15.84h32.758c0-9.051-6.2-15.84-16.033-15.84zm77.469 13.675h11.524c-1.386-13.008-11.192-22.615-25.99-22.615-17.058 0-28.236 12.494-28.236 30.541s11.178 30.542 28.347 30.542c14.687 0 25.089-9.83 25.879-23.059H715.88c-.458 6.552-3.842 13.785-14.466 13.785-12.204 0-16.642-10.398-16.642-21.254 0-10.856 4.507-21.379 16.642-21.379 10.624-.027 14.008 7.441 14.466 13.439zm31.556-20.92v36.857c0 7.802 3.383 12.952 11.635 13.008 9.487 0 15.589-5.762 15.589-14.48V46.444h11.095v57.667H774.66v-7.232h-.222c-3.051 4.414-9.042 8.815-18.986 8.815-10.61 0-19.209-6.108-19.209-19.338V46.444h11.193zm50.003 0v57.667h11.095V74.265c0-10.981 7.239-18.547 17.294-18.547a23.34 23.34 0 0 1 3.731.333V45.417a38.91 38.91 0 0 0-5.312-.333c-7.794 0-12.481 5.095-15.477 12.327h-.236V46.444h-11.095zm40.784 0h11.067v57.68h-11.067v-57.68zm20.143-.001v9.162h8.321v32.221c0 13.341 5.769 16.964 15.145 16.964a32.562 32.562 0 0 0 7.114-.68v-8.926a24.432 24.432 0 0 1-4.743.444c-4.743 0-6.435-1.388-6.435-7.455V55.606h11.095v-9.162h-11.095V27.897h-11.095v18.547h-8.307zm48.256 67.183c4.476 0 9.501-2.24 11.849-11.186l-23.162-56.537h11.945l16.653 43.66h.234l15.802-43.66h11.409l-22.475 58.433c-5.601 14.1-11.079 18.69-19.907 18.69a32.715 32.715 0 0 1-7.043-.783v-8.947c1.556.216 3.125.326 4.695.33z" fill="#000"/><path d="M958.489 34.931v-10.13h5.133c.412 0 .86.12 1.345.358.485.228.897.585 1.235 1.07.348.476.522 1.08.522 1.812 0 .741-.179 1.372-.535 1.894a3.602 3.602 0 0 1-1.304 1.167c-.504.265-.979.398-1.428.398h-3.706v-1.647h3.02c.302 0 .627-.151.974-.453.357-.302.536-.755.536-1.359 0-.622-.179-1.043-.536-1.263-.347-.22-.654-.33-.919-.33h-2.114v8.483h-2.223zm6.121-4.776l2.526 4.776h-2.443l-2.471-4.776h2.388zm-2.278 10.815c-1.519 0-2.942-.283-4.269-.85a11.042 11.042 0 0 1-5.86-5.861c-.568-1.327-.851-2.75-.851-4.269 0-1.519.283-2.942.851-4.269a11.042 11.042 0 0 1 5.86-5.86c1.327-.568 2.75-.851 4.269-.851 1.519 0 2.942.283 4.268.85a11.03 11.03 0 0 1 3.5 2.361 11.025 11.025 0 0 1 2.361 3.5c.567 1.327.851 2.75.851 4.269 0 1.519-.284 2.942-.851 4.268a11.026 11.026 0 0 1-2.361 3.5 11.03 11.03 0 0 1-3.5 2.361c-1.326.568-2.749.851-4.268.851zm0-2.635c1.537 0 2.937-.375 4.2-1.126a8.527 8.527 0 0 0 3.019-3.02c.751-1.262 1.126-2.662 1.126-4.199s-.375-2.937-1.126-4.2a8.526 8.526 0 0 0-3.019-3.02c-1.263-.75-2.663-1.125-4.2-1.125-1.537 0-2.937.375-4.2 1.125a8.528 8.528 0 0 0-3.02 3.02c-.75 1.263-1.125 2.663-1.125 4.2 0 1.537.375 2.937 1.125 4.2a8.53 8.53 0 0 0 3.02 3.02c1.263.75 2.663 1.125 4.2 1.125z" fill="#000"/></svg>