<svg width="1920" height="1080" viewBox="0 0 1920 1080" fill="none" xmlns="http://www.w3.org/2000/svg">
<rect width="1920" height="1080" fill="white"/>
<path d="M475.567 547.198L515.942 540.679L475.567 534.107L465.999 506.507L456.431 534.107L416.057 540.679L456.431 547.198L465.999 574.85L475.567 547.198Z" fill="black"/>
<path d="M615.301 522.857L655.886 539.89L656.412 539.68L615.826 522.647L615.301 522.857Z" fill="#24CCCE"/>
<path d="M702.046 520.544L742 503.774V467.762L466 352L190 467.762V503.774L276.112 539.89H275.954L316.224 557.134L316.75 556.923L466.053 619.536L615.355 556.923L703.728 593.986L466.053 693.662L228.325 593.986L276.112 573.957L236.736 556.398L190 576.007V612.018L466 727.781L742 612.018V576.007L655.888 539.89L615.25 522.857L465.947 460.245L316.645 522.857L228.219 485.794L466 386.066L703.675 485.742L660.882 503.669L702.046 520.491V520.544ZM466 494.311L574.665 539.89L466 585.47L357.335 539.89L466 494.311Z" fill="#605DFF"/>
<path d="M702.046 520.544L742 503.774V467.762L466 352L190 467.762V503.774L276.112 539.89H275.954L316.224 557.134L316.75 556.923L466.053 619.536L615.355 556.923L703.728 593.986L466.053 693.662L228.325 593.986L276.112 573.957L236.736 556.398L190 576.007V612.018L466 727.781L742 612.018V576.007L655.888 539.89L615.25 522.857L465.947 460.245L316.645 522.857L228.219 485.794L466 386.066L703.675 485.742L660.882 503.669L702.046 520.491V520.544ZM466 494.311L574.665 539.89L466 585.47L357.335 539.89L466 494.311Z" fill="#605DFF"/>
<path d="M1662.09 564.309V472.862H1651.13V450.945H1673.8V472.106H1681.74C1684.89 465.178 1689.74 459.762 1696.29 455.857C1702.96 451.952 1710.77 450 1719.71 450H1728.97V468.138H1718.58C1707.24 468.138 1698.49 471.476 1692.32 478.152C1686.15 484.828 1683.06 493.834 1683.06 505.171V564.309H1662.09Z" fill="black"/>
<path d="M1578.26 566.576C1566.42 566.576 1556.15 564.183 1547.46 559.397C1538.77 554.484 1532.03 547.556 1527.24 538.613C1522.58 529.67 1520.25 519.215 1520.25 507.249C1520.25 495.283 1522.58 484.954 1527.24 476.263C1532.03 467.445 1538.71 460.644 1547.27 455.857C1555.84 451.071 1565.85 448.677 1577.31 448.677C1588.27 448.677 1597.72 450.882 1605.66 455.29C1613.72 459.699 1619.95 465.934 1624.36 473.995C1628.77 482.057 1630.97 491.63 1630.97 502.714V511.217H1540.66C1541.29 523.057 1544.88 532.315 1551.43 538.991C1558.11 545.541 1566.99 548.816 1578.07 548.816C1585.75 548.816 1592.24 547.241 1597.53 544.092C1602.82 540.817 1606.47 536.031 1608.49 529.733H1630.03C1627.26 541.447 1621.27 550.516 1612.08 556.94C1603.01 563.364 1591.74 566.576 1578.26 566.576ZM1541.42 495.724H1610.57C1609.56 486.402 1606.1 479.16 1600.18 473.995C1594.38 468.831 1586.7 466.249 1577.13 466.249C1567.68 466.249 1559.81 468.831 1553.51 473.995C1547.21 479.16 1543.18 486.402 1541.42 495.724Z" fill="black"/>
<path d="M1449.84 566.576C1438 566.576 1427.73 564.183 1419.04 559.397C1410.35 554.484 1403.61 547.556 1398.83 538.613C1394.17 529.67 1391.84 519.215 1391.84 507.249C1391.84 495.283 1394.17 484.954 1398.83 476.263C1403.61 467.445 1410.29 460.644 1418.85 455.857C1427.42 451.071 1437.43 448.677 1448.9 448.677C1459.85 448.677 1469.3 450.882 1477.24 455.29C1485.3 459.699 1491.53 465.934 1495.94 473.995C1500.35 482.057 1502.56 491.63 1502.56 502.714V511.217H1412.24C1412.87 523.057 1416.46 532.315 1423.01 538.991C1429.69 545.541 1438.57 548.816 1449.65 548.816C1457.34 548.816 1463.82 547.241 1469.11 544.092C1474.4 540.817 1478.06 536.031 1480.07 529.733H1501.61C1498.84 541.447 1492.86 550.516 1483.66 556.94C1474.59 563.364 1463.32 566.576 1449.84 566.576ZM1413 495.724H1482.15C1481.14 486.402 1477.68 479.16 1471.76 473.995C1465.96 468.831 1458.28 466.249 1448.71 466.249C1439.26 466.249 1431.39 468.831 1425.09 473.995C1418.79 479.16 1414.76 486.402 1413 495.724Z" fill="black"/>
<path d="M1329.36 566.576C1313.61 566.576 1301.21 563.301 1292.14 556.751C1283.07 550.201 1278.09 541.069 1277.21 529.355H1298.18C1299.07 536.283 1302.09 541.384 1307.25 544.659C1312.42 547.934 1320.04 549.572 1330.11 549.572C1347.75 549.572 1356.57 544.029 1356.57 532.945C1356.57 528.41 1355.18 524.946 1352.41 522.553C1349.76 520.034 1345.23 518.207 1338.81 517.074L1314.05 512.539C1293.02 508.634 1282.5 498.621 1282.5 482.498C1282.5 472.043 1286.47 463.793 1294.4 457.747C1302.34 451.7 1313.17 448.677 1326.9 448.677C1341.14 448.677 1352.41 451.763 1360.72 457.935C1369.16 464.108 1373.95 472.799 1375.08 484.009H1354.49C1353.23 477.711 1350.27 473.051 1345.61 470.028C1341.07 467.005 1334.65 465.493 1326.34 465.493C1318.65 465.493 1312.67 466.816 1308.39 469.461C1304.23 472.106 1302.15 475.948 1302.15 480.986C1302.15 484.891 1303.47 487.977 1306.12 490.244C1308.89 492.386 1313.3 494.023 1319.34 495.157L1344.1 499.88C1355.18 501.896 1363.3 505.485 1368.47 510.65C1373.63 515.814 1376.22 522.742 1376.22 531.433C1376.22 542.518 1372.19 551.146 1364.12 557.318C1356.06 563.49 1344.47 566.576 1329.36 566.576Z" fill="black"/>
<path d="M1202.44 564.309V472.862H1191.48V450.945H1214.15V472.106H1222.08C1225.23 465.178 1230.08 459.762 1236.63 455.857C1243.31 451.952 1251.12 450 1260.06 450H1269.32V468.138H1258.93C1247.59 468.138 1238.84 471.476 1232.67 478.152C1226.49 484.828 1223.41 493.834 1223.41 505.171V564.309H1202.44Z" fill="black"/>
<path d="M1104.42 566.387C1091.57 566.387 1081.43 563.238 1074 556.94C1066.69 550.516 1063.04 542.14 1063.04 531.811C1063.04 520.979 1066.69 512.602 1074 506.682C1081.3 500.636 1091.82 497.613 1105.55 497.613H1144.28V492.512C1144.28 475.003 1134.65 466.249 1115.38 466.249C1099.63 466.249 1090.12 472.169 1086.85 484.009H1065.5C1067.38 472.799 1072.74 464.108 1081.56 457.935C1090.5 451.763 1101.9 448.677 1115.75 448.677C1131.5 448.677 1143.53 452.393 1151.84 459.825C1160.28 467.257 1164.5 477.963 1164.5 491.945V542.392H1174.7V564.309H1152.03V546.926H1144.09C1140.19 552.973 1134.84 557.759 1128.03 561.286C1121.23 564.687 1113.36 566.387 1104.42 566.387ZM1107.25 549.383C1114.05 549.383 1120.29 547.997 1125.96 545.226C1131.62 542.455 1136.1 538.676 1139.37 533.89C1142.65 529.103 1144.28 523.876 1144.28 518.207V513.106H1106.87C1091 513.106 1083.07 519.026 1083.07 530.866C1083.07 536.535 1085.21 541.069 1089.49 544.47C1093.77 547.745 1099.69 549.383 1107.25 549.383Z" fill="black"/>
<path d="M1016.32 564.31C1010.27 564.31 1005.55 562.798 1002.15 559.775C998.873 556.626 997.236 551.966 997.236 545.794V467.194H976.074V450.945H997.425V416.936H1018.21V450.945H1047.87V467.194H1018.4V547.683H1050.89V564.31H1016.32Z" fill="black"/>
<path d="M902.375 566.576C882.725 566.576 867.043 562.294 855.329 553.728C843.741 545.163 837.38 533.26 836.246 518.019H859.108C859.612 527.718 863.642 535.212 871.2 540.503C878.758 545.667 889.338 548.249 902.942 548.249C915.034 548.249 924.292 546.108 930.716 541.825C937.14 537.543 940.352 531.182 940.352 522.742C940.352 516.192 938.085 510.839 933.55 506.682C929.142 502.526 922.529 499.628 913.712 497.991L884.426 492.134C871.2 489.489 861.123 484.765 854.195 477.963C847.268 471.035 843.804 462.407 843.804 452.078C843.804 438.853 848.779 428.398 858.73 420.714C868.681 412.905 882.222 409 899.352 409C916.609 409 930.653 413.094 941.486 421.281C952.445 429.343 958.743 440.616 960.38 455.101H937.518C933.739 436.459 920.577 427.138 898.03 427.138C887.701 427.138 879.576 429.154 873.656 433.184C867.862 437.215 864.965 442.946 864.965 450.378C864.965 462.344 873.467 470.028 890.472 473.429L921.08 479.475C934.432 482.12 944.509 486.969 951.311 494.023C958.113 500.951 961.514 509.957 961.514 521.042C961.514 535.401 956.286 546.612 945.832 554.673C935.377 562.609 920.891 566.576 902.375 566.576Z" fill="black"/>
<path d="M873.861 625.617L856.727 672.788H849.725L869.453 621.031H873.968L873.861 625.617ZM888.222 672.788L871.053 625.617L870.946 621.031H875.461L895.26 672.788H888.222ZM887.333 653.628V659.244H858.256V653.628H887.333ZM909.929 621.031V672.788H903.069V621.031H909.929ZM974.103 667.207V672.788H946.696V667.207H974.103ZM948.083 621.031V672.788H941.222V621.031H948.083ZM970.477 643.284V648.865H946.696V643.284H970.477ZM973.748 621.031V626.648H946.696V621.031H973.748ZM986.426 634.326L994.851 648.331L1003.38 634.326H1011.1L998.512 653.308L1011.49 672.788H1003.88L994.993 658.356L986.106 672.788H978.464L991.403 653.308L978.855 634.326H986.426ZM1025.05 641.72V687.575H1018.44V634.326H1024.48L1025.05 641.72ZM1050.97 653.237V653.983C1050.97 656.78 1050.64 659.375 1049.97 661.768C1049.31 664.138 1048.34 666.2 1047.06 667.953C1045.8 669.707 1044.25 671.07 1042.4 672.041C1040.55 673.013 1038.43 673.499 1036.04 673.499C1033.6 673.499 1031.44 673.096 1029.57 672.29C1027.7 671.484 1026.11 670.311 1024.8 668.771C1023.5 667.231 1022.46 665.382 1021.68 663.226C1020.92 661.069 1020.4 658.64 1020.11 655.939V651.957C1020.4 649.113 1020.93 646.566 1021.71 644.315C1022.49 642.063 1023.53 640.144 1024.8 638.556C1026.11 636.945 1027.68 635.724 1029.53 634.895C1031.38 634.042 1033.51 633.615 1035.93 633.615C1038.35 633.615 1040.49 634.089 1042.36 635.037C1044.24 635.961 1045.81 637.288 1047.09 639.018C1048.37 640.748 1049.33 642.822 1049.97 645.239C1050.64 647.632 1050.97 650.298 1050.97 653.237ZM1044.36 653.983V653.237C1044.36 651.317 1044.15 649.516 1043.75 647.834C1043.35 646.128 1042.72 644.635 1041.87 643.355C1041.04 642.052 1039.97 641.033 1038.67 640.298C1037.36 639.54 1035.81 639.16 1034.01 639.16C1032.35 639.16 1030.91 639.445 1029.67 640.013C1028.47 640.582 1027.44 641.352 1026.58 642.324C1025.73 643.272 1025.03 644.362 1024.48 645.594C1023.96 646.803 1023.57 648.059 1023.31 649.362V658.569C1023.79 660.228 1024.45 661.792 1025.3 663.261C1026.16 664.707 1027.29 665.88 1028.71 666.78C1030.14 667.657 1031.93 668.096 1034.08 668.096C1035.86 668.096 1037.39 667.728 1038.67 666.994C1039.97 666.235 1041.04 665.204 1041.87 663.901C1042.72 662.598 1043.35 661.105 1043.75 659.422C1044.15 657.716 1044.36 655.903 1044.36 653.983ZM1057.99 653.983V653.166C1057.99 650.393 1058.4 647.822 1059.2 645.452C1060.01 643.059 1061.17 640.985 1062.69 639.231C1064.2 637.454 1066.04 636.08 1068.2 635.108C1070.35 634.113 1072.77 633.615 1075.45 633.615C1078.15 633.615 1080.58 634.113 1082.73 635.108C1084.91 636.08 1086.76 637.454 1088.28 639.231C1089.82 640.985 1090.99 643.059 1091.8 645.452C1092.6 647.822 1093.01 650.393 1093.01 653.166V653.983C1093.01 656.756 1092.6 659.327 1091.8 661.697C1090.99 664.067 1089.82 666.14 1088.28 667.918C1086.76 669.671 1084.93 671.046 1082.77 672.041C1080.64 673.013 1078.22 673.499 1075.52 673.499C1072.82 673.499 1070.39 673.013 1068.23 672.041C1066.07 671.046 1064.23 669.671 1062.69 667.918C1061.17 666.14 1060.01 664.067 1059.2 661.697C1058.4 659.327 1057.99 656.756 1057.99 653.983ZM1064.57 653.166V653.983C1064.57 655.903 1064.8 657.716 1065.25 659.422C1065.7 661.105 1066.37 662.598 1067.27 663.901C1068.2 665.204 1069.35 666.235 1070.72 666.994C1072.09 667.728 1073.69 668.096 1075.52 668.096C1077.32 668.096 1078.9 667.728 1080.25 666.994C1081.62 666.235 1082.76 665.204 1083.66 663.901C1084.56 662.598 1085.23 661.105 1085.68 659.422C1086.16 657.716 1086.4 655.903 1086.4 653.983V653.166C1086.4 651.27 1086.16 649.481 1085.68 647.798C1085.23 646.092 1084.55 644.587 1083.62 643.284C1082.72 641.957 1081.59 640.914 1080.21 640.156C1078.86 639.397 1077.27 639.018 1075.45 639.018C1073.65 639.018 1072.06 639.397 1070.68 640.156C1069.33 640.914 1068.2 641.957 1067.27 643.284C1066.37 644.587 1065.7 646.092 1065.25 647.798C1064.8 649.481 1064.57 651.27 1064.57 653.166ZM1124.03 662.586C1124.03 661.638 1123.81 660.761 1123.39 659.955C1122.99 659.126 1122.14 658.379 1120.86 657.716C1119.61 657.029 1117.71 656.436 1115.18 655.939C1113.04 655.488 1111.11 654.955 1109.38 654.339C1107.68 653.723 1106.22 652.976 1105.01 652.099C1103.83 651.223 1102.91 650.192 1102.27 649.007C1101.63 647.822 1101.31 646.436 1101.31 644.848C1101.31 643.331 1101.65 641.897 1102.31 640.547C1103 639.196 1103.96 637.999 1105.19 636.956C1106.44 635.914 1107.95 635.096 1109.7 634.504C1111.46 633.911 1113.41 633.615 1115.57 633.615C1118.65 633.615 1121.28 634.16 1123.46 635.25C1125.64 636.34 1127.31 637.798 1128.47 639.622C1129.63 641.424 1130.21 643.426 1130.21 645.63H1123.64C1123.64 644.563 1123.32 643.533 1122.68 642.537C1122.06 641.518 1121.15 640.677 1119.94 640.013C1118.76 639.35 1117.3 639.018 1115.57 639.018C1113.74 639.018 1112.26 639.303 1111.12 639.871C1110.01 640.416 1109.19 641.115 1108.67 641.969C1108.17 642.822 1107.93 643.722 1107.93 644.67C1107.93 645.381 1108.04 646.021 1108.28 646.59C1108.54 647.135 1108.99 647.644 1109.63 648.118C1110.27 648.568 1111.17 648.995 1112.33 649.398C1113.49 649.801 1114.98 650.204 1116.78 650.606C1119.93 651.317 1122.52 652.171 1124.56 653.166C1126.6 654.161 1128.12 655.382 1129.11 656.827C1130.11 658.273 1130.6 660.026 1130.6 662.088C1130.6 663.771 1130.25 665.311 1129.54 666.709C1128.85 668.107 1127.84 669.316 1126.52 670.335C1125.21 671.33 1123.65 672.112 1121.82 672.681C1120.02 673.226 1118 673.499 1115.75 673.499C1112.36 673.499 1109.49 672.894 1107.14 671.686C1104.8 670.477 1103.02 668.913 1101.81 666.994C1100.6 665.074 1100 663.048 1100 660.915H1106.61C1106.7 662.716 1107.23 664.15 1108.17 665.216C1109.12 666.259 1110.28 667.005 1111.66 667.456C1113.03 667.882 1114.39 668.096 1115.75 668.096C1117.55 668.096 1119.05 667.859 1120.26 667.385C1121.49 666.911 1122.43 666.259 1123.07 665.43C1123.71 664.6 1124.03 663.652 1124.03 662.586ZM1163.15 663.901V634.326H1169.76V672.788H1163.47L1163.15 663.901ZM1164.4 655.796L1167.13 655.725C1167.13 658.285 1166.86 660.654 1166.32 662.835C1165.8 664.991 1164.94 666.863 1163.76 668.451C1162.57 670.039 1161.02 671.283 1159.1 672.183C1157.18 673.06 1154.85 673.499 1152.1 673.499C1150.23 673.499 1148.51 673.226 1146.94 672.681C1145.4 672.136 1144.08 671.295 1142.96 670.157C1141.85 669.02 1140.98 667.539 1140.37 665.714C1139.78 663.889 1139.48 661.697 1139.48 659.138V634.326H1146.06V659.209C1146.06 660.939 1146.24 662.372 1146.62 663.51C1147.03 664.624 1147.56 665.512 1148.22 666.176C1148.91 666.816 1149.67 667.266 1150.5 667.527C1151.35 667.787 1152.23 667.918 1153.13 667.918C1155.93 667.918 1158.14 667.385 1159.78 666.318C1161.41 665.228 1162.58 663.771 1163.3 661.946C1164.03 660.097 1164.4 658.048 1164.4 655.796ZM1186.74 640.369V672.788H1180.17V634.326H1186.57L1186.74 640.369ZM1198.76 634.113L1198.72 640.227C1198.18 640.108 1197.66 640.037 1197.16 640.013C1196.69 639.966 1196.14 639.942 1195.52 639.942C1194.01 639.942 1192.67 640.179 1191.51 640.653C1190.35 641.127 1189.36 641.791 1188.56 642.644C1187.75 643.497 1187.11 644.516 1186.64 645.701C1186.19 646.862 1185.89 648.142 1185.75 649.54L1183.9 650.606C1183.9 648.284 1184.13 646.104 1184.58 644.066C1185.05 642.028 1185.77 640.227 1186.74 638.663C1187.72 637.075 1188.95 635.843 1190.44 634.966C1191.96 634.065 1193.76 633.615 1195.84 633.615C1196.32 633.615 1196.86 633.674 1197.48 633.793C1198.1 633.888 1198.52 633.994 1198.76 634.113ZM1220.47 673.499C1217.79 673.499 1215.36 673.048 1213.18 672.148C1211.02 671.224 1209.16 669.932 1207.6 668.273C1206.06 666.614 1204.87 664.647 1204.04 662.372C1203.21 660.097 1202.8 657.609 1202.8 654.908V653.415C1202.8 650.287 1203.26 647.502 1204.19 645.061C1205.11 642.597 1206.37 640.511 1207.95 638.805C1209.54 637.099 1211.34 635.807 1213.36 634.93C1215.37 634.053 1217.46 633.615 1219.61 633.615C1222.36 633.615 1224.73 634.089 1226.72 635.037C1228.74 635.985 1230.38 637.312 1231.66 639.018C1232.94 640.701 1233.89 642.691 1234.51 644.99C1235.12 647.265 1235.43 649.753 1235.43 652.455V655.405H1206.71V650.038H1228.86V649.54C1228.76 647.834 1228.41 646.175 1227.79 644.563C1227.2 642.952 1226.25 641.625 1224.95 640.582C1223.64 639.54 1221.86 639.018 1219.61 639.018C1218.12 639.018 1216.75 639.338 1215.49 639.978C1214.23 640.594 1213.16 641.518 1212.26 642.751C1211.35 643.983 1210.66 645.488 1210.16 647.265C1209.66 649.042 1209.41 651.092 1209.41 653.415V654.908C1209.41 656.732 1209.66 658.45 1210.16 660.062C1210.68 661.65 1211.43 663.048 1212.4 664.256C1213.39 665.465 1214.59 666.413 1215.99 667.1C1217.41 667.787 1219.02 668.131 1220.82 668.131C1223.14 668.131 1225.11 667.657 1226.72 666.709C1228.33 665.761 1229.74 664.493 1230.95 662.906L1234.93 666.069C1234.1 667.325 1233.05 668.522 1231.77 669.66C1230.49 670.797 1228.91 671.721 1227.04 672.432C1225.19 673.143 1223 673.499 1220.47 673.499ZM1265.09 621.031H1271.74L1288.69 663.226L1305.61 621.031H1312.3L1291.25 672.788H1286.06L1265.09 621.031ZM1262.92 621.031H1268.79L1269.75 652.597V672.788H1262.92V621.031ZM1308.56 621.031H1314.43V672.788H1307.6V652.597L1308.56 621.031ZM1348.54 666.212V646.412C1348.54 644.895 1348.23 643.58 1347.62 642.466C1347.03 641.329 1346.12 640.452 1344.92 639.836C1343.71 639.22 1342.21 638.912 1340.44 638.912C1338.78 638.912 1337.32 639.196 1336.07 639.765C1334.83 640.333 1333.86 641.08 1333.15 642.004C1332.46 642.928 1332.12 643.924 1332.12 644.99H1325.54C1325.54 643.616 1325.9 642.253 1326.61 640.902C1327.32 639.551 1328.34 638.331 1329.67 637.241C1331.02 636.127 1332.63 635.25 1334.5 634.61C1336.4 633.947 1338.51 633.615 1340.83 633.615C1343.62 633.615 1346.09 634.089 1348.22 635.037C1350.38 635.985 1352.06 637.419 1353.27 639.338C1354.5 641.234 1355.12 643.616 1355.12 646.483V664.399C1355.12 665.678 1355.22 667.041 1355.44 668.487C1355.68 669.932 1356.02 671.176 1356.47 672.219V672.788H1349.61C1349.28 672.029 1349.02 671.022 1348.83 669.766C1348.64 668.487 1348.54 667.302 1348.54 666.212ZM1349.68 649.469L1349.75 654.09H1343.1C1341.23 654.09 1339.56 654.244 1338.09 654.552C1336.62 654.837 1335.39 655.275 1334.39 655.867C1333.4 656.46 1332.64 657.206 1332.12 658.107C1331.6 658.984 1331.34 660.015 1331.34 661.199C1331.34 662.408 1331.61 663.51 1332.15 664.505C1332.7 665.501 1333.52 666.294 1334.61 666.887C1335.72 667.456 1337.08 667.74 1338.7 667.74C1340.71 667.74 1342.49 667.314 1344.03 666.46C1345.57 665.607 1346.79 664.565 1347.69 663.332C1348.61 662.1 1349.11 660.903 1349.18 659.742L1351.99 662.906C1351.82 663.901 1351.37 665.003 1350.64 666.212C1349.9 667.42 1348.92 668.581 1347.69 669.695C1346.48 670.785 1345.03 671.698 1343.35 672.432C1341.69 673.143 1339.82 673.499 1337.74 673.499C1335.13 673.499 1332.84 672.989 1330.88 671.97C1328.93 670.951 1327.42 669.589 1326.33 667.882C1325.26 666.152 1324.73 664.221 1324.73 662.088C1324.73 660.026 1325.13 658.214 1325.93 656.649C1326.74 655.062 1327.9 653.746 1329.42 652.704C1330.93 651.637 1332.76 650.832 1334.89 650.287C1337.02 649.741 1339.41 649.469 1342.04 649.469H1349.68ZM1372.42 642.537V672.788H1365.84V634.326H1372.06L1372.42 642.537ZM1370.85 652.099L1368.12 651.993C1368.14 649.362 1368.53 646.933 1369.29 644.706C1370.05 642.454 1371.11 640.499 1372.49 638.84C1373.86 637.182 1375.5 635.902 1377.39 635.001C1379.31 634.077 1381.43 633.615 1383.76 633.615C1385.65 633.615 1387.36 633.876 1388.88 634.397C1390.39 634.895 1391.68 635.7 1392.75 636.814C1393.84 637.928 1394.67 639.374 1395.24 641.151C1395.81 642.905 1396.09 645.049 1396.09 647.585V672.788H1389.48V647.514C1389.48 645.5 1389.18 643.888 1388.59 642.68C1388 641.447 1387.13 640.559 1386 640.013C1384.86 639.445 1383.46 639.16 1381.8 639.16C1380.17 639.16 1378.67 639.504 1377.32 640.191C1376 640.878 1374.85 641.826 1373.88 643.035C1372.93 644.244 1372.18 645.63 1371.64 647.194C1371.11 648.734 1370.85 650.369 1370.85 652.099ZM1429.14 666.212V646.412C1429.14 644.895 1428.83 643.58 1428.21 642.466C1427.62 641.329 1426.72 640.452 1425.51 639.836C1424.3 639.22 1422.81 638.912 1421.03 638.912C1419.38 638.912 1417.92 639.196 1416.66 639.765C1415.43 640.333 1414.46 641.08 1413.75 642.004C1413.06 642.928 1412.72 643.924 1412.72 644.99H1406.14C1406.14 643.616 1406.5 642.253 1407.21 640.902C1407.92 639.551 1408.94 638.331 1410.26 637.241C1411.61 636.127 1413.23 635.25 1415.1 634.61C1416.99 633.947 1419.1 633.615 1421.42 633.615C1424.22 633.615 1426.69 634.089 1428.82 635.037C1430.98 635.985 1432.66 637.419 1433.87 639.338C1435.1 641.234 1435.71 643.616 1435.71 646.483V664.399C1435.71 665.678 1435.82 667.041 1436.03 668.487C1436.27 669.932 1436.62 671.176 1437.07 672.219V672.788H1430.21C1429.87 672.029 1429.61 671.022 1429.42 669.766C1429.23 668.487 1429.14 667.302 1429.14 666.212ZM1430.28 649.469L1430.35 654.09H1423.7C1421.83 654.09 1420.16 654.244 1418.69 654.552C1417.22 654.837 1415.99 655.275 1414.99 655.867C1414 656.46 1413.24 657.206 1412.72 658.107C1412.19 658.984 1411.93 660.015 1411.93 661.199C1411.93 662.408 1412.21 663.51 1412.75 664.505C1413.3 665.501 1414.11 666.294 1415.2 666.887C1416.32 667.456 1417.68 667.74 1419.29 667.74C1421.31 667.74 1423.08 667.314 1424.62 666.46C1426.16 665.607 1427.39 664.565 1428.29 663.332C1429.21 662.1 1429.71 660.903 1429.78 659.742L1432.59 662.906C1432.42 663.901 1431.97 665.003 1431.24 666.212C1430.5 667.42 1429.52 668.581 1428.29 669.695C1427.08 670.785 1425.63 671.698 1423.95 672.432C1422.29 673.143 1420.42 673.499 1418.33 673.499C1415.73 673.499 1413.44 672.989 1411.47 671.97C1409.53 670.951 1408.01 669.589 1406.92 667.882C1405.86 666.152 1405.32 664.221 1405.32 662.088C1405.32 660.026 1405.73 658.214 1406.53 656.649C1407.34 655.062 1408.5 653.746 1410.01 652.704C1411.53 651.637 1413.36 650.832 1415.49 650.287C1417.62 649.741 1420 649.469 1422.63 649.469H1430.28ZM1471.36 634.326H1477.33V671.97C1477.33 675.359 1476.64 678.25 1475.27 680.644C1473.89 683.037 1471.97 684.85 1469.51 686.082C1467.07 687.338 1464.25 687.966 1461.05 687.966C1459.72 687.966 1458.16 687.753 1456.36 687.326C1454.58 686.924 1452.82 686.224 1451.09 685.229C1449.39 684.258 1447.95 682.942 1446.79 681.283L1450.24 677.373C1451.85 679.316 1453.54 680.667 1455.29 681.426C1457.07 682.184 1458.82 682.563 1460.55 682.563C1462.64 682.563 1464.44 682.172 1465.95 681.39C1467.47 680.608 1468.64 679.447 1469.47 677.906C1470.33 676.39 1470.75 674.518 1470.75 672.29V642.786L1471.36 634.326ZM1444.87 653.983V653.237C1444.87 650.298 1445.22 647.632 1445.9 645.239C1446.62 642.822 1447.62 640.748 1448.93 639.018C1450.25 637.288 1451.85 635.961 1453.73 635.037C1455.6 634.089 1457.71 633.615 1460.05 633.615C1462.47 633.615 1464.58 634.042 1466.38 634.895C1468.2 635.724 1469.75 636.945 1471 638.556C1472.28 640.144 1473.29 642.063 1474.02 644.315C1474.76 646.566 1475.27 649.113 1475.55 651.957V655.228C1475.29 658.048 1474.78 660.583 1474.02 662.835C1473.29 665.086 1472.28 667.005 1471 668.593C1469.75 670.181 1468.2 671.401 1466.38 672.255C1464.56 673.084 1462.42 673.499 1459.98 673.499C1457.68 673.499 1455.6 673.013 1453.73 672.041C1451.88 671.07 1450.29 669.707 1448.96 667.953C1447.63 666.2 1446.62 664.138 1445.9 661.768C1445.22 659.375 1444.87 656.78 1444.87 653.983ZM1451.45 653.237V653.983C1451.45 655.903 1451.64 657.704 1452.02 659.387C1452.42 661.069 1453.03 662.55 1453.83 663.83C1454.66 665.11 1455.72 666.117 1457 666.851C1458.28 667.562 1459.8 667.918 1461.58 667.918C1463.76 667.918 1465.56 667.456 1466.98 666.531C1468.41 665.607 1469.53 664.387 1470.36 662.87C1471.21 661.353 1471.88 659.706 1472.35 657.929V649.362C1472.09 648.059 1471.69 646.803 1471.14 645.594C1470.62 644.362 1469.93 643.272 1469.08 642.324C1468.25 641.352 1467.22 640.582 1465.99 640.013C1464.76 639.445 1463.31 639.16 1461.65 639.16C1459.85 639.16 1458.3 639.54 1457 640.298C1455.72 641.033 1454.66 642.052 1453.83 643.355C1453.03 644.635 1452.42 646.128 1452.02 647.834C1451.64 649.516 1451.45 651.317 1451.45 653.237ZM1503.66 673.499C1500.98 673.499 1498.55 673.048 1496.37 672.148C1494.21 671.224 1492.35 669.932 1490.79 668.273C1489.25 666.614 1488.06 664.647 1487.23 662.372C1486.4 660.097 1485.99 657.609 1485.99 654.908V653.415C1485.99 650.287 1486.45 647.502 1487.38 645.061C1488.3 642.597 1489.56 640.511 1491.14 638.805C1492.73 637.099 1494.53 635.807 1496.55 634.93C1498.56 634.053 1500.65 633.615 1502.8 633.615C1505.55 633.615 1507.92 634.089 1509.91 635.037C1511.93 635.985 1513.57 637.312 1514.85 639.018C1516.13 640.701 1517.08 642.691 1517.7 644.99C1518.31 647.265 1518.62 649.753 1518.62 652.455V655.405H1489.9V650.038H1512.05V649.54C1511.95 647.834 1511.6 646.175 1510.98 644.563C1510.39 642.952 1509.44 641.625 1508.14 640.582C1506.83 639.54 1505.05 639.018 1502.8 639.018C1501.31 639.018 1499.94 639.338 1498.68 639.978C1497.42 640.594 1496.35 641.518 1495.45 642.751C1494.54 643.983 1493.85 645.488 1493.35 647.265C1492.85 649.042 1492.6 651.092 1492.6 653.415V654.908C1492.6 656.732 1492.85 658.45 1493.35 660.062C1493.87 661.65 1494.62 663.048 1495.59 664.256C1496.58 665.465 1497.78 666.413 1499.18 667.1C1500.6 667.787 1502.21 668.131 1504.01 668.131C1506.33 668.131 1508.3 667.657 1509.91 666.709C1511.52 665.761 1512.93 664.493 1514.14 662.906L1518.12 666.069C1517.29 667.325 1516.24 668.522 1514.96 669.66C1513.68 670.797 1512.11 671.721 1510.23 672.432C1508.38 673.143 1506.19 673.499 1503.66 673.499ZM1533.22 641.969V672.788H1526.61V634.326H1532.86L1533.22 641.969ZM1531.87 652.099L1528.81 651.993C1528.84 649.362 1529.18 646.933 1529.84 644.706C1530.51 642.454 1531.49 640.499 1532.79 638.84C1534.1 637.182 1535.72 635.902 1537.66 635.001C1539.61 634.077 1541.86 633.615 1544.42 633.615C1546.22 633.615 1547.88 633.876 1549.39 634.397C1550.91 634.895 1552.23 635.689 1553.34 636.779C1554.45 637.869 1555.32 639.267 1555.93 640.973C1556.55 642.68 1556.86 644.741 1556.86 647.158V672.788H1550.28V647.478C1550.28 645.464 1549.94 643.853 1549.25 642.644C1548.59 641.435 1547.64 640.559 1546.41 640.013C1545.18 639.445 1543.73 639.16 1542.07 639.16C1540.13 639.16 1538.5 639.504 1537.2 640.191C1535.9 640.878 1534.86 641.826 1534.07 643.035C1533.29 644.244 1532.72 645.63 1532.37 647.194C1532.04 648.734 1531.87 650.369 1531.87 652.099ZM1556.79 648.474L1552.38 649.824C1552.4 647.715 1552.75 645.689 1553.41 643.746C1554.1 641.803 1555.08 640.073 1556.36 638.556C1557.66 637.039 1559.26 635.843 1561.16 634.966C1563.06 634.065 1565.22 633.615 1567.66 633.615C1569.73 633.615 1571.55 633.888 1573.14 634.433C1574.75 634.978 1576.1 635.819 1577.19 636.956C1578.31 638.07 1579.15 639.504 1579.72 641.258C1580.28 643.011 1580.57 645.097 1580.57 647.514V672.788H1573.96V647.443C1573.96 645.286 1573.61 643.616 1572.93 642.431C1572.26 641.222 1571.31 640.381 1570.08 639.907C1568.87 639.409 1567.43 639.16 1565.75 639.16C1564.3 639.16 1563.02 639.409 1561.91 639.907C1560.79 640.405 1559.86 641.092 1559.1 641.969C1558.34 642.822 1557.76 643.805 1557.36 644.919C1556.98 646.033 1556.79 647.218 1556.79 648.474ZM1606.86 673.499C1604.18 673.499 1601.75 673.048 1599.57 672.148C1597.42 671.224 1595.56 669.932 1593.99 668.273C1592.45 666.614 1591.27 664.647 1590.44 662.372C1589.61 660.097 1589.19 657.609 1589.19 654.908V653.415C1589.19 650.287 1589.66 647.502 1590.58 645.061C1591.5 642.597 1592.76 640.511 1594.35 638.805C1595.94 637.099 1597.74 635.807 1599.75 634.93C1601.77 634.053 1603.85 633.615 1606.01 633.615C1608.76 633.615 1611.13 634.089 1613.12 635.037C1615.13 635.985 1616.78 637.312 1618.06 639.018C1619.34 640.701 1620.29 642.691 1620.9 644.99C1621.52 647.265 1621.83 649.753 1621.83 652.455V655.405H1593.1V650.038H1615.25V649.54C1615.16 647.834 1614.8 646.175 1614.18 644.563C1613.59 642.952 1612.64 641.625 1611.34 640.582C1610.04 639.54 1608.26 639.018 1606.01 639.018C1604.52 639.018 1603.14 639.338 1601.88 639.978C1600.63 640.594 1599.55 641.518 1598.65 642.751C1597.75 643.983 1597.05 645.488 1596.55 647.265C1596.05 649.042 1595.81 651.092 1595.81 653.415V654.908C1595.81 656.732 1596.05 658.45 1596.55 660.062C1597.07 661.65 1597.82 663.048 1598.79 664.256C1599.79 665.465 1600.98 666.413 1602.38 667.1C1603.8 667.787 1605.42 668.131 1607.22 668.131C1609.54 668.131 1611.51 667.657 1613.12 666.709C1614.73 665.761 1616.14 664.493 1617.35 662.906L1621.33 666.069C1620.5 667.325 1619.44 668.522 1618.17 669.66C1616.89 670.797 1615.31 671.721 1613.44 672.432C1611.59 673.143 1609.4 673.499 1606.86 673.499ZM1636.46 642.537V672.788H1629.88V634.326H1636.1L1636.46 642.537ZM1634.9 652.099L1632.16 651.993C1632.18 649.362 1632.57 646.933 1633.33 644.706C1634.09 642.454 1635.16 640.499 1636.53 638.84C1637.91 637.182 1639.54 635.902 1641.44 635.001C1643.36 634.077 1645.48 633.615 1647.8 633.615C1649.7 633.615 1651.4 633.876 1652.92 634.397C1654.43 634.895 1655.73 635.7 1656.79 636.814C1657.88 637.928 1658.71 639.374 1659.28 641.151C1659.85 642.905 1660.13 645.049 1660.13 647.585V672.788H1653.52V647.514C1653.52 645.5 1653.23 643.888 1652.63 642.68C1652.04 641.447 1651.18 640.559 1650.04 640.013C1648.9 639.445 1647.5 639.16 1645.84 639.16C1644.21 639.16 1642.72 639.504 1641.37 640.191C1640.04 640.878 1638.89 641.826 1637.92 643.035C1636.97 644.244 1636.22 645.63 1635.68 647.194C1635.16 648.734 1634.9 650.369 1634.9 652.099ZM1686.6 634.326V639.374H1665.81V634.326H1686.6ZM1672.85 624.977H1679.42V663.261C1679.42 664.565 1679.63 665.548 1680.03 666.212C1680.43 666.875 1680.95 667.314 1681.59 667.527C1682.23 667.74 1682.92 667.847 1683.65 667.847C1684.2 667.847 1684.77 667.799 1685.36 667.705C1685.98 667.586 1686.44 667.491 1686.75 667.42L1686.78 672.788C1686.26 672.954 1685.57 673.108 1684.72 673.25C1683.89 673.416 1682.88 673.499 1681.7 673.499C1680.09 673.499 1678.61 673.179 1677.26 672.539C1675.91 671.899 1674.83 670.833 1674.02 669.34C1673.24 667.823 1672.85 665.785 1672.85 663.226V624.977Z" fill="#505763"/>
<line x1="836" y1="602.919" x2="1729" y2="602.919" stroke="#605DFF" stroke-width="1.73786"/>
</svg>
