<svg width="155" height="46" viewBox="0 0 155 46" fill="none" xmlns="http://www.w3.org/2000/svg">
<path d="M33.6735 13.9788C34.9617 11.9462 37.6859 9.91382 41.1031 9.91382C47.0969 9.91382 51.9019 15.3163 51.9019 22.6035C51.9019 29.8906 47.0969 35.2931 41.1031 35.2931C37.6857 35.2931 34.9617 33.2605 33.6735 31.1301V46H27.333V10.3104H33.6735V13.9788ZM45.5616 22.6035C45.5616 18.9351 42.8872 15.862 39.6176 15.862C36.3481 15.862 33.6737 18.9349 33.6737 22.6035C33.6737 26.272 36.3481 29.3449 39.6176 29.3449C42.8872 29.3449 45.5616 26.2718 45.5616 22.6035Z" fill="#18202D"/>
<path d="M90.9302 10.3104L82.6084 34.8965H76.6642L71.5128 18.3409L66.3613 34.8965H60.4173L52.0955 10.3104H58.8323L63.5875 25.6763L68.4423 10.3104H74.5837L79.4385 25.6763L84.1937 10.3104H90.9302Z" fill="#18202D"/>
<path d="M93.3644 0H99.7048V5.94817H93.3644V0ZM93.3644 10.3104H99.7048V34.8965H93.3644V10.3104Z" fill="#18202D"/>
<path d="M127.36 20.6207V34.8965H121.02V21.0173C121.02 17.0518 118.692 15.8622 116.364 15.8622C113.491 15.8622 110.717 17.7454 110.717 21.8104V34.8965H104.376V10.3104H110.717V13.9788C111.509 12.4905 113.986 9.91382 117.85 9.91382C123.248 9.91382 127.36 13.1857 127.36 20.6207Z" fill="#18202D"/>
<path d="M155 0V34.8965H148.66V31.1301C147.371 33.2605 144.647 35.2931 141.23 35.2931C135.236 35.2931 130.431 29.8906 130.431 22.6035C130.431 15.3163 135.236 9.91382 141.23 9.91382C144.647 9.91382 147.371 11.9464 148.66 13.9788V0H155ZM148.66 22.6035C148.66 18.9351 145.985 15.862 142.715 15.862C139.446 15.862 136.771 18.9349 136.771 22.6035C136.771 26.272 139.446 29.3449 142.715 29.3449C145.985 29.3447 148.66 26.2718 148.66 22.6035Z" fill="#18202D"/>
<path d="M11.4919 35.2931C5.15524 35.2931 0 30.1342 0 23.7931V10.3104H6.34046V24.1896C6.34046 27.0322 8.65131 29.3449 11.4921 29.3449C14.3327 29.3449 16.6436 27.0324 16.6436 24.1896V10.3104H22.984V23.7931C22.9838 30.1342 17.8286 35.2931 11.4919 35.2931Z" fill="#18202D"/>
<path d="M22.9838 0H0V5.94817H22.9838V0Z" fill="url(#paint0_linear_4806_62424)"/>
<defs>
<linearGradient id="paint0_linear_4806_62424" x1="-0.736957" y1="1.50515" x2="21.9629" y2="8.14514" gradientUnits="userSpaceOnUse">
<stop stop-color="#F2583C"/>
<stop offset="0.541667" stop-color="#9214C4"/>
<stop offset="1" stop-color="#1E71ED"/>
</linearGradient>
</defs>
</svg>
