<svg xmlns="http://www.w3.org/2000/svg" xmlns:xlink="http://www.w3.org/1999/xlink" width="50" zoomAndPan="magnify" viewBox="0 0 37.5 37.499999" height="50" preserveAspectRatio="xMidYMid meet" version="1.0"><defs><clipPath id="9e97bf7178"><path d="M 0.796875 0.855469 L 35.582031 0.855469 L 35.582031 34.902344 L 0.796875 34.902344 Z M 0.796875 0.855469 " clip-rule="nonzero"/></clipPath></defs><g clip-path="url(#9e97bf7178)"><path fill="#d12c31" d="M 15.386719 35.074219 C 15.253906 35.015625 15.003906 34.964844 14.828125 34.957031 C 14.355469 34.945312 11.414062 34.019531 10.851562 33.707031 C 10.585938 33.558594 9.9375 33.199219 9.410156 32.914062 C 8 32.144531 6.078125 30.496094 4.839844 29 C 3.78125 27.722656 2.183594 25.007812 2 24.179688 C 1.957031 23.976562 1.761719 23.324219 1.566406 22.722656 C 0.988281 20.9375 0.796875 18.207031 1.074219 15.714844 C 1.382812 12.976562 2.804688 9.550781 4.441406 7.59375 C 4.746094 7.234375 5.097656 6.804688 5.230469 6.640625 C 5.539062 6.253906 6.34375 5.449219 6.726562 5.144531 C 6.890625 5.011719 7.320312 4.660156 7.679688 4.359375 C 8.042969 4.058594 8.523438 3.699219 8.753906 3.5625 C 9.984375 2.832031 11.507812 2.050781 11.980469 1.910156 C 15.183594 0.960938 15.761719 0.859375 18.074219 0.863281 C 19.808594 0.863281 21.542969 1.046875 22.3125 1.308594 C 22.578125 1.398438 23.195312 1.589844 23.6875 1.734375 C 24.574219 1.992188 25.785156 2.554688 27.007812 3.277344 C 27.355469 3.484375 27.671875 3.652344 27.710938 3.652344 C 27.75 3.652344 28.113281 3.933594 28.511719 4.28125 C 28.914062 4.625 29.5 5.113281 29.8125 5.367188 C 30.578125 5.976562 32.433594 8.285156 32.996094 9.324219 C 33.242188 9.785156 33.582031 10.402344 33.746094 10.699219 C 34.070312 11.277344 34.851562 13.640625 35.058594 14.667969 C 35.285156 15.796875 35.316406 19.761719 35.109375 20.96875 C 34.378906 25.226562 32.199219 28.867188 28.691406 31.683594 C 27.820312 32.386719 27.472656 32.601562 25.675781 33.570312 C 24.816406 34.035156 23.125 34.613281 21.714844 34.917969 C 20.757812 35.128906 15.78125 35.25 15.386719 35.074219 Z M 20.914062 33.15625 C 22.484375 32.359375 24.246094 30.515625 25.292969 28.578125 C 25.535156 28.128906 25.707031 27.683594 25.671875 27.589844 C 25.582031 27.363281 18.921875 27.339844 18.695312 27.566406 C 18.539062 27.722656 18.476562 33.523438 18.628906 33.675781 C 18.816406 33.863281 20.089844 33.574219 20.914062 33.15625 Z M 17.117188 30.710938 C 17.148438 29.132812 17.132812 27.742188 17.074219 27.617188 C 16.984375 27.421875 16.882812 27.402344 16.25 27.46875 C 15.855469 27.507812 14.355469 27.542969 12.917969 27.542969 C 10.414062 27.542969 10.308594 27.550781 10.308594 27.773438 C 10.308594 27.902344 10.355469 28.035156 10.414062 28.074219 C 10.472656 28.109375 10.667969 28.421875 10.847656 28.765625 C 12.113281 31.207031 15.007812 33.675781 16.519531 33.601562 L 17.058594 33.578125 Z M 25.15625 32.289062 C 25.5 32.074219 26.039062 31.765625 26.355469 31.601562 C 27.679688 30.921875 30.898438 27.902344 30.675781 27.542969 C 30.5625 27.359375 27.570312 27.386719 27.421875 27.574219 C 27.359375 27.65625 27.023438 28.269531 26.679688 28.933594 C 26.335938 29.601562 25.628906 30.691406 25.109375 31.359375 C 24.589844 32.023438 24.167969 32.59375 24.167969 32.625 C 24.167969 32.785156 24.609375 32.636719 25.15625 32.289062 Z M 11.488281 32.101562 C 11.398438 31.980469 10.996094 31.449219 10.59375 30.921875 C 10.195312 30.390625 9.636719 29.511719 9.355469 28.960938 C 8.59375 27.46875 8.710938 27.542969 7.0625 27.542969 C 5.875 27.542969 5.648438 27.574219 5.648438 27.726562 C 5.648438 27.960938 7.765625 30.085938 8.683594 30.777344 C 10.21875 31.929688 11.976562 32.757812 11.488281 32.101562 Z M 7.984375 25.980469 C 8.027344 25.910156 7.980469 25.628906 7.878906 25.355469 C 7.574219 24.542969 6.996094 21.363281 6.917969 20.089844 C 6.878906 19.441406 6.785156 18.839844 6.710938 18.746094 C 6.605469 18.621094 6.140625 18.582031 4.648438 18.585938 C 3.589844 18.585938 2.644531 18.636719 2.546875 18.699219 C 2.035156 19.023438 2.851562 22.921875 3.839844 24.847656 C 4.5 26.144531 4.433594 26.109375 6.300781 26.109375 C 7.316406 26.109375 7.933594 26.0625 7.984375 25.980469 Z M 17.121094 25.796875 C 17.195312 25.613281 17.226562 24.117188 17.210938 22.066406 L 17.175781 18.644531 L 12.875 18.613281 C 10.507812 18.597656 8.5 18.632812 8.410156 18.691406 C 8.269531 18.78125 8.265625 19.042969 8.375 20.332031 C 8.589844 22.800781 9.292969 25.726562 9.738281 26.007812 C 9.820312 26.0625 11.492188 26.105469 13.445312 26.109375 L 17.003906 26.109375 Z M 26.480469 25.722656 C 27.140625 24.667969 28.070312 18.914062 27.625 18.640625 C 27.449219 18.53125 18.875 18.570312 18.769531 18.679688 C 18.65625 18.792969 18.496094 25.28125 18.597656 25.675781 L 18.675781 25.992188 L 26.3125 25.992188 Z M 31.890625 25.722656 C 32.375 25.179688 32.777344 24.300781 33.230469 22.804688 C 33.777344 20.996094 34.09375 18.742188 33.828125 18.570312 C 33.558594 18.402344 29.621094 18.4375 29.390625 18.613281 C 29.234375 18.730469 29.164062 19.109375 29.066406 20.300781 C 28.933594 21.976562 28.539062 24.269531 28.273438 24.890625 C 28.183594 25.105469 28.109375 25.441406 28.109375 25.636719 L 28.109375 25.992188 L 29.878906 25.992188 C 31.566406 25.992188 31.664062 25.976562 31.890625 25.722656 Z M 6.765625 17.019531 C 6.84375 16.90625 6.925781 16.417969 6.941406 15.9375 C 6.988281 14.691406 7.621094 11.273438 7.902344 10.722656 C 8.132812 10.273438 7.960938 10.222656 6.238281 10.222656 C 4.742188 10.222656 4.550781 10.246094 4.339844 10.457031 C 3.996094 10.800781 3.558594 11.714844 3.191406 12.859375 C 3.015625 13.414062 2.796875 14.09375 2.707031 14.375 C 2.453125 15.164062 2.355469 16.863281 2.546875 17.09375 C 2.679688 17.253906 2.996094 17.28125 4.664062 17.253906 C 6.355469 17.226562 6.644531 17.195312 6.765625 17.019531 Z M 17.238281 13.804688 C 17.269531 12 17.25 10.453125 17.191406 10.371094 C 17.113281 10.257812 16.222656 10.222656 13.429688 10.222656 C 11.417969 10.222656 9.714844 10.265625 9.644531 10.3125 C 9.421875 10.464844 9.101562 11.425781 8.808594 12.8125 C 8.5 14.261719 8.21875 16.703125 8.324219 16.980469 C 8.378906 17.128906 9.050781 17.148438 12.785156 17.121094 L 17.175781 17.089844 Z M 27.601562 17 C 27.902344 16.632812 27.289062 12.429688 26.710938 10.878906 L 26.488281 10.28125 L 18.730469 10.28125 L 18.671875 13.546875 C 18.636719 15.339844 18.652344 16.886719 18.707031 16.980469 C 18.839844 17.214844 27.410156 17.234375 27.601562 17 Z M 33.75 17 C 33.925781 16.867188 33.929688 16.734375 33.792969 15.714844 C 33.539062 13.789062 32.378906 10.632812 31.761719 10.1875 C 31.5625 10.042969 28.25 10.152344 28.089844 10.3125 C 27.988281 10.410156 28.007812 10.554688 28.15625 10.871094 C 28.269531 11.105469 28.4375 11.742188 28.53125 12.285156 C 28.625 12.824219 28.757812 13.457031 28.828125 13.6875 C 28.894531 13.914062 28.984375 14.714844 29.027344 15.457031 C 29.078125 16.382812 29.15625 16.867188 29.269531 16.980469 C 29.5 17.210938 33.457031 17.226562 33.75 17 Z M 8.421875 8.757812 C 8.523438 8.675781 8.898438 8.042969 9.246094 7.355469 C 9.597656 6.664062 10.277344 5.59375 10.761719 4.976562 C 11.257812 4.335938 11.589844 3.808594 11.53125 3.75 C 11.394531 3.613281 9.417969 4.753906 8.472656 5.511719 C 7.089844 6.621094 5.355469 8.476562 5.457031 8.734375 C 5.542969 8.964844 8.132812 8.984375 8.421875 8.757812 Z M 17.195312 8.652344 C 17.324219 8.546875 17.355469 7.882812 17.355469 5.488281 L 17.355469 2.460938 L 17.058594 2.386719 C 16.664062 2.289062 16.332031 2.378906 15.261719 2.878906 C 14.160156 3.394531 12.8125 4.550781 11.875 5.78125 C 11.003906 6.929688 10.078125 8.644531 10.269531 8.761719 C 10.5 8.90625 17.015625 8.804688 17.195312 8.652344 Z M 25.769531 8.683594 C 25.867188 8.527344 24.851562 6.714844 24.117188 5.742188 C 23.195312 4.515625 22.007812 3.496094 20.855469 2.9375 C 19.742188 2.398438 19.378906 2.285156 19.054688 2.386719 C 18.84375 2.457031 18.824219 2.648438 18.746094 5.460938 C 18.6875 7.644531 18.703125 8.503906 18.800781 8.621094 C 18.914062 8.757812 19.589844 8.789062 22.320312 8.789062 C 24.183594 8.789062 25.734375 8.742188 25.769531 8.683594 Z M 30.785156 8.683594 C 30.878906 8.535156 29.480469 6.9375 28.574219 6.15625 C 27.386719 5.128906 26.921875 4.796875 25.980469 4.292969 L 24.726562 3.625 C 24.515625 3.515625 24.304688 3.421875 24.257812 3.417969 C 24.121094 3.410156 24.589844 4.128906 25.328125 5.050781 C 25.707031 5.527344 26.339844 6.53125 26.734375 7.289062 C 27.128906 8.042969 27.53125 8.683594 27.628906 8.710938 C 27.984375 8.808594 30.722656 8.785156 30.785156 8.683594 Z M 30.785156 8.683594 " fill-opacity="1" fill-rule="nonzero"/></g></svg>