<svg xmlns="http://www.w3.org/2000/svg" xmlns:xlink="http://www.w3.org/1999/xlink" width="50" zoomAndPan="magnify" viewBox="0 0 37.5 37.499999" height="50" preserveAspectRatio="xMidYMid meet" version="1.0"><path fill="#d12c31" d="M 36.980469 20.851562 C 36.617188 17.445312 34.273438 14.707031 31.160156 13.71875 C 32.363281 12.894531 33.152344 11.515625 33.152344 9.953125 C 33.152344 7.4375 31.105469 5.390625 28.589844 5.390625 C 26.074219 5.390625 24.03125 7.4375 24.03125 9.953125 C 24.03125 10.347656 24.082031 10.734375 24.175781 11.101562 C 23.296875 10.476562 22.320312 10 21.277344 9.695312 C 22.761719 8.765625 23.75 7.121094 23.75 5.246094 C 23.75 2.351562 21.394531 0 18.503906 0 C 15.609375 0 13.257812 2.351562 13.257812 5.246094 C 13.257812 7.121094 14.246094 8.765625 15.730469 9.695312 C 14.6875 10 13.710938 10.476562 12.828125 11.101562 C 12.925781 10.734375 12.976562 10.347656 12.976562 9.953125 C 12.976562 7.4375 10.929688 5.390625 8.417969 5.390625 C 5.902344 5.390625 3.855469 7.4375 3.855469 9.953125 C 3.855469 11.515625 4.644531 12.894531 5.847656 13.71875 C 2.734375 14.707031 0.390625 17.445312 0.0273438 20.851562 C 0.0078125 21.019531 0.0625 21.1875 0.175781 21.3125 C 0.289062 21.4375 0.449219 21.511719 0.621094 21.511719 L 8.730469 21.511719 C 8.703125 21.949219 8.789062 22.398438 9 22.816406 L 9.65625 24.117188 C 9.785156 24.367188 9.824219 24.605469 9.792969 24.882812 L 9.621094 26.328125 C 9.484375 27.453125 10.09375 28.511719 11.136719 28.957031 L 12.027344 29.339844 L 9.882812 33.945312 C 9.761719 34.207031 9.792969 34.511719 9.96875 34.738281 C 10.144531 34.96875 10.425781 35.078125 10.710938 35.027344 L 12.914062 34.644531 L 14.039062 36.578125 C 14.175781 36.816406 14.429688 36.960938 14.703125 36.960938 C 14.714844 36.960938 14.726562 36.960938 14.738281 36.960938 C 15.023438 36.945312 15.277344 36.777344 15.398438 36.515625 L 17.476562 32.058594 L 18.117188 31.867188 C 18.382812 31.785156 18.621094 31.785156 18.890625 31.867188 L 19.53125 32.058594 L 21.605469 36.515625 C 21.726562 36.777344 21.980469 36.945312 22.269531 36.960938 C 22.28125 36.960938 22.292969 36.960938 22.304688 36.960938 C 22.578125 36.960938 22.828125 36.816406 22.96875 36.578125 L 24.09375 34.644531 L 26.296875 35.027344 C 26.578125 35.078125 26.863281 34.96875 27.039062 34.738281 C 27.214844 34.511719 27.246094 34.207031 27.125 33.945312 L 24.980469 29.339844 L 25.871094 28.957031 C 26.910156 28.511719 27.519531 27.453125 27.386719 26.328125 L 27.214844 24.882812 C 27.179688 24.605469 27.222656 24.367188 27.347656 24.117188 L 28.007812 22.816406 C 28.21875 22.398438 28.304688 21.949219 28.277344 21.511719 L 36.386719 21.511719 C 36.554688 21.511719 36.71875 21.4375 36.832031 21.3125 C 36.945312 21.1875 37 21.019531 36.980469 20.851562 Z M 28.589844 6.582031 C 30.449219 6.582031 31.960938 8.09375 31.960938 9.953125 C 31.960938 11.808594 30.449219 13.320312 28.589844 13.320312 C 26.734375 13.320312 25.222656 11.808594 25.222656 9.953125 C 25.222656 8.09375 26.734375 6.582031 28.589844 6.582031 Z M 14.449219 5.246094 C 14.449219 3.011719 16.269531 1.191406 18.503906 1.191406 C 20.738281 1.191406 22.554688 3.011719 22.554688 5.246094 C 22.554688 7.480469 20.738281 9.296875 18.507812 9.296875 C 18.503906 9.296875 18.503906 9.296875 18.503906 9.296875 C 18.503906 9.296875 18.5 9.296875 18.5 9.296875 C 16.265625 9.296875 14.449219 7.480469 14.449219 5.246094 Z M 18.503906 10.492188 C 18.503906 10.492188 18.503906 10.492188 18.507812 10.492188 C 21.25 10.492188 23.773438 11.769531 25.394531 13.945312 C 24.820312 14.179688 24.273438 14.480469 23.757812 14.84375 C 23.632812 14.816406 23.503906 14.796875 23.371094 14.789062 L 21.917969 14.710938 C 21.636719 14.695312 21.410156 14.613281 21.1875 14.445312 L 20.019531 13.570312 C 19.113281 12.890625 17.894531 12.890625 16.984375 13.570312 L 15.820312 14.445312 C 15.59375 14.613281 15.371094 14.695312 15.089844 14.710938 L 13.636719 14.789062 C 13.503906 14.796875 13.375 14.816406 13.25 14.84375 C 12.734375 14.480469 12.183594 14.179688 11.613281 13.945312 C 13.230469 11.769531 15.753906 10.492188 18.5 10.492188 C 18.5 10.492188 18.503906 10.492188 18.503906 10.492188 Z M 5.046875 9.953125 C 5.046875 8.09375 6.558594 6.582031 8.417969 6.582031 C 10.273438 6.582031 11.785156 8.09375 11.785156 9.953125 C 11.785156 11.808594 10.273438 13.320312 8.417969 13.320312 C 8.414062 13.320312 8.414062 13.320312 8.414062 13.320312 C 6.558594 13.320312 5.046875 11.808594 5.046875 9.953125 Z M 9.527344 19.828125 C 9.367188 19.976562 9.234375 20.140625 9.121094 20.316406 L 1.3125 20.320312 C 1.984375 16.964844 4.929688 14.511719 8.414062 14.511719 C 8.414062 14.511719 8.414062 14.511719 8.417969 14.511719 C 9.703125 14.511719 10.9375 14.84375 12.03125 15.476562 C 11.683594 15.808594 11.425781 16.242188 11.308594 16.742188 L 10.976562 18.160156 C 10.914062 18.433594 10.792969 18.640625 10.589844 18.832031 Z M 14.660156 35.277344 L 13.738281 33.683594 C 13.609375 33.46875 13.363281 33.355469 13.117188 33.398438 L 11.304688 33.714844 L 13.039062 29.984375 C 13.050781 30 13.0625 30.015625 13.070312 30.03125 L 13.867188 31.25 C 14.351562 31.988281 15.15625 32.40625 16 32.398438 Z M 23.886719 33.398438 C 23.640625 33.355469 23.394531 33.46875 23.269531 33.683594 L 22.34375 35.277344 L 21.003906 32.398438 C 21.011719 32.398438 21.019531 32.398438 21.03125 32.398438 C 21.867188 32.398438 22.660156 31.980469 23.136719 31.25 L 23.9375 30.03125 C 23.945312 30.015625 23.957031 30 23.964844 29.984375 L 25.703125 33.714844 Z M 26.941406 22.28125 L 26.285156 23.582031 C 26.050781 24.039062 25.96875 24.511719 26.03125 25.023438 L 26.203125 26.46875 C 26.273438 27.074219 25.960938 27.621094 25.398438 27.863281 L 24.058594 28.433594 C 23.585938 28.636719 23.21875 28.945312 22.9375 29.378906 L 22.140625 30.597656 C 21.808594 31.105469 21.214844 31.320312 20.632812 31.144531 L 19.234375 30.722656 C 18.742188 30.574219 18.261719 30.574219 17.769531 30.722656 L 16.375 31.144531 C 15.792969 31.324219 15.199219 31.105469 14.867188 30.597656 L 14.070312 29.378906 C 13.785156 28.945312 13.417969 28.636719 12.945312 28.433594 L 11.605469 27.863281 C 11.046875 27.621094 10.730469 27.074219 10.804688 26.46875 L 10.976562 25.023438 C 11.039062 24.511719 10.953125 24.039062 10.722656 23.582031 L 10.066406 22.28125 C 9.789062 21.734375 9.898438 21.113281 10.34375 20.699219 L 11.40625 19.699219 C 11.78125 19.347656 12.023438 18.933594 12.140625 18.433594 L 12.472656 17.011719 C 12.609375 16.417969 13.09375 16.015625 13.703125 15.980469 L 15.15625 15.898438 C 15.671875 15.871094 16.121094 15.707031 16.535156 15.398438 L 17.699219 14.523438 C 17.945312 14.34375 18.222656 14.25 18.503906 14.25 C 18.78125 14.25 19.0625 14.34375 19.304688 14.523438 L 20.472656 15.398438 C 20.886719 15.707031 21.335938 15.871094 21.851562 15.898438 L 23.304688 15.980469 C 23.914062 16.015625 24.394531 16.417969 24.535156 17.011719 L 24.867188 18.433594 C 24.984375 18.933594 25.226562 19.347656 25.601562 19.699219 L 26.664062 20.699219 C 27.105469 21.113281 27.21875 21.734375 26.941406 22.28125 Z M 27.886719 20.316406 C 27.773438 20.140625 27.636719 19.976562 27.480469 19.828125 L 26.417969 18.832031 C 26.210938 18.640625 26.09375 18.433594 26.027344 18.160156 L 25.695312 16.742188 C 25.578125 16.242188 25.324219 15.808594 24.972656 15.476562 C 26.066406 14.84375 27.300781 14.511719 28.589844 14.511719 C 32.078125 14.511719 35.023438 16.964844 35.695312 20.316406 Z M 18.503906 17.042969 C 15.367188 17.042969 12.816406 19.59375 12.816406 22.730469 C 12.816406 25.867188 15.367188 28.417969 18.503906 28.417969 C 21.640625 28.417969 24.191406 25.867188 24.191406 22.730469 C 24.191406 19.59375 21.640625 17.042969 18.503906 17.042969 Z M 18.503906 27.226562 C 16.023438 27.226562 14.007812 25.207031 14.007812 22.730469 C 14.007812 20.25 16.023438 18.234375 18.503906 18.234375 C 20.980469 18.234375 23 20.25 23 22.730469 C 23 25.207031 20.980469 27.226562 18.503906 27.226562 Z M 21.148438 21.15625 L 19.835938 21.160156 L 19.433594 19.910156 C 19.304688 19.507812 18.929688 19.234375 18.503906 19.234375 C 18.078125 19.234375 17.703125 19.507812 17.574219 19.910156 L 17.167969 21.160156 L 15.859375 21.15625 C 15.859375 21.15625 15.859375 21.15625 15.855469 21.15625 C 15.433594 21.15625 15.058594 21.429688 14.925781 21.832031 C 14.796875 22.238281 14.9375 22.675781 15.285156 22.925781 L 16.347656 23.695312 L 15.9375 24.941406 C 15.804688 25.347656 15.949219 25.785156 16.292969 26.035156 C 16.464844 26.160156 16.667969 26.222656 16.867188 26.222656 C 17.070312 26.222656 17.273438 26.160156 17.445312 26.035156 L 18.503906 25.261719 L 19.5625 26.035156 C 19.90625 26.285156 20.367188 26.285156 20.714844 26.035156 C 21.058594 25.785156 21.199219 25.347656 21.070312 24.941406 L 20.660156 23.695312 L 21.722656 22.925781 C 22.066406 22.675781 22.210938 22.238281 22.078125 21.832031 C 21.949219 21.425781 21.574219 21.15625 21.148438 21.15625 Z M 19.835938 22.820312 C 19.488281 23.070312 19.347656 23.511719 19.480469 23.917969 L 19.730469 24.679688 L 19.078125 24.207031 C 18.90625 24.082031 18.707031 24.019531 18.503906 24.019531 C 18.300781 24.019531 18.097656 24.082031 17.925781 24.207031 L 17.277344 24.679688 L 17.527344 23.917969 C 17.660156 23.511719 17.515625 23.070312 17.171875 22.820312 L 16.519531 22.351562 L 17.324219 22.351562 C 17.75 22.351562 18.125 22.078125 18.257812 21.671875 L 18.503906 20.910156 L 18.75 21.671875 C 18.882812 22.078125 19.253906 22.351562 19.679688 22.351562 C 19.683594 22.351562 19.683594 22.351562 19.683594 22.351562 L 20.488281 22.351562 Z M 19.835938 22.820312 " fill-opacity="1" fill-rule="nonzero"/></svg>