<svg xmlns="http://www.w3.org/2000/svg" xmlns:xlink="http://www.w3.org/1999/xlink" width="50" zoomAndPan="magnify" viewBox="0 0 37.5 37.499999" height="50" preserveAspectRatio="xMidYMid meet" version="1.0"><defs><clipPath id="707f97ac73"><path d="M 3 19 L 12 19 L 12 31.824219 L 3 31.824219 Z M 3 19 " clip-rule="nonzero"/></clipPath></defs><path fill="#d12c31" d="M 10.976562 20.195312 L 2.898438 20.195312 C 2.582031 20.195312 2.324219 19.933594 2.324219 19.617188 L 2.324219 10.386719 C 2.324219 10.066406 2.582031 9.808594 2.898438 9.808594 L 10.976562 9.808594 C 11.296875 9.808594 11.554688 10.066406 11.554688 10.386719 L 11.554688 19.617188 C 11.554688 19.933594 11.296875 20.195312 10.976562 20.195312 Z M 3.476562 19.039062 L 10.402344 19.039062 L 10.402344 10.960938 L 3.476562 10.960938 Z M 3.476562 19.039062 " fill-opacity="1" fill-rule="nonzero"/><path fill="#d12c31" d="M 23.09375 23.613281 L 20.785156 23.613281 C 20.46875 23.613281 20.207031 23.355469 20.207031 23.035156 L 20.207031 6.921875 C 20.207031 6.605469 20.46875 6.347656 20.785156 6.347656 L 23.09375 6.347656 C 23.414062 6.347656 23.671875 6.605469 23.671875 6.921875 L 23.671875 23.035156 C 23.671875 23.355469 23.414062 23.613281 23.09375 23.613281 Z M 21.363281 22.457031 L 22.515625 22.457031 L 22.515625 7.5 L 21.363281 7.5 Z M 21.363281 22.457031 " fill-opacity="1" fill-rule="nonzero"/><path fill="#d12c31" d="M 2.898438 19.339844 C 1.226562 19.339844 0.015625 18.019531 0.015625 16.199219 L 0.015625 13.578125 C 0.015625 11.757812 1.226562 10.4375 2.898438 10.4375 C 3.21875 10.4375 3.476562 10.695312 3.476562 11.015625 L 3.476562 18.761719 C 3.476562 19.082031 3.21875 19.339844 2.898438 19.339844 Z M 2.324219 11.683594 C 1.535156 11.957031 1.167969 12.792969 1.167969 13.578125 L 1.167969 16.199219 C 1.167969 16.984375 1.535156 17.820312 2.324219 18.09375 Z M 2.324219 11.683594 " fill-opacity="1" fill-rule="nonzero"/><g clip-path="url(#707f97ac73)"><path fill="#d12c31" d="M 8.988281 31.734375 C 7.875 31.734375 6.90625 30.980469 6.625 29.90625 L 3.996094 19.761719 C 3.949219 19.589844 3.988281 19.40625 4.097656 19.265625 C 4.207031 19.121094 4.375 19.039062 4.554688 19.039062 L 8.402344 19.039062 C 8.664062 19.039062 8.894531 19.21875 8.960938 19.472656 L 11.347656 28.683594 C 11.539062 29.417969 11.378906 30.1875 10.914062 30.785156 C 10.449219 31.386719 9.746094 31.734375 8.988281 31.734375 Z M 5.300781 20.195312 L 7.742188 29.617188 C 7.890625 30.183594 8.402344 30.578125 8.988281 30.578125 C 9.386719 30.578125 9.757812 30.398438 10.003906 30.082031 C 10.246094 29.765625 10.332031 29.359375 10.230469 28.972656 L 7.953125 20.195312 Z M 5.300781 20.195312 " fill-opacity="1" fill-rule="nonzero"/></g><path fill="#d12c31" d="M 10.847656 10.960938 C 10.609375 10.960938 10.386719 10.8125 10.304688 10.574219 C 10.199219 10.273438 10.359375 9.945312 10.660156 9.839844 L 20.597656 6.378906 C 20.898438 6.273438 21.226562 6.433594 21.332031 6.734375 C 21.4375 7.035156 21.277344 7.363281 20.976562 7.46875 L 11.039062 10.929688 C 10.976562 10.953125 10.914062 10.960938 10.847656 10.960938 Z M 10.847656 10.960938 " fill-opacity="1" fill-rule="nonzero"/><path fill="#d12c31" d="M 20.785156 23.613281 C 20.722656 23.613281 20.660156 23.601562 20.597656 23.582031 L 10.660156 20.164062 C 10.359375 20.058594 10.199219 19.730469 10.304688 19.429688 C 10.40625 19.128906 10.734375 18.96875 11.035156 19.070312 L 20.972656 22.492188 C 21.273438 22.59375 21.433594 22.921875 21.332031 23.222656 C 21.25 23.460938 21.027344 23.613281 20.785156 23.613281 Z M 20.785156 23.613281 " fill-opacity="1" fill-rule="nonzero"/><path fill="#d12c31" d="M 8.667969 13.269531 L 5.207031 13.269531 C 4.890625 13.269531 4.628906 13.011719 4.628906 12.691406 C 4.628906 12.375 4.890625 12.117188 5.207031 12.117188 L 8.667969 12.117188 C 8.988281 12.117188 9.246094 12.375 9.246094 12.691406 C 9.246094 13.011719 8.988281 13.269531 8.667969 13.269531 Z M 8.667969 13.269531 " fill-opacity="1" fill-rule="nonzero"/><path fill="#d12c31" d="M 8.667969 15.578125 L 5.207031 15.578125 C 4.890625 15.578125 4.628906 15.320312 4.628906 15 C 4.628906 14.683594 4.890625 14.425781 5.207031 14.425781 L 8.667969 14.425781 C 8.988281 14.425781 9.246094 14.683594 9.246094 15 C 9.246094 15.320312 8.988281 15.578125 8.667969 15.578125 Z M 8.667969 15.578125 " fill-opacity="1" fill-rule="nonzero"/><path fill="#d12c31" d="M 8.667969 17.886719 L 5.207031 17.886719 C 4.890625 17.886719 4.628906 17.628906 4.628906 17.308594 C 4.628906 16.992188 4.890625 16.730469 5.207031 16.730469 L 8.667969 16.730469 C 8.988281 16.730469 9.246094 16.992188 9.246094 17.308594 C 9.246094 17.628906 8.988281 17.886719 8.667969 17.886719 Z M 8.667969 17.886719 " fill-opacity="1" fill-rule="nonzero"/><path fill="#d12c31" d="M 30.40625 7.835938 C 30.289062 7.835938 30.167969 7.800781 30.066406 7.726562 L 28.234375 6.394531 L 26.402344 7.726562 C 26.199219 7.875 25.925781 7.875 25.722656 7.726562 C 25.523438 7.578125 25.4375 7.320312 25.515625 7.082031 L 26.214844 4.929688 L 24.382812 3.597656 C 24.179688 3.449219 24.09375 3.1875 24.171875 2.953125 C 24.25 2.714844 24.472656 2.554688 24.722656 2.554688 L 26.984375 2.554688 L 27.6875 0.398438 C 27.761719 0.160156 27.984375 0 28.234375 0 C 28.484375 0 28.707031 0.160156 28.785156 0.398438 L 29.484375 2.554688 L 31.75 2.554688 C 32 2.554688 32.21875 2.714844 32.296875 2.953125 C 32.375 3.1875 32.289062 3.449219 32.085938 3.597656 L 30.253906 4.929688 L 30.953125 7.082031 C 31.03125 7.320312 30.949219 7.578125 30.746094 7.726562 C 30.644531 7.800781 30.523438 7.835938 30.40625 7.835938 Z M 28.234375 5.105469 C 28.355469 5.105469 28.472656 5.140625 28.574219 5.214844 L 29.308594 5.75 L 29.027344 4.886719 C 28.949219 4.648438 29.035156 4.386719 29.238281 4.242188 L 29.972656 3.707031 L 29.0625 3.707031 C 28.8125 3.707031 28.59375 3.546875 28.515625 3.308594 L 28.234375 2.445312 L 27.953125 3.308594 C 27.875 3.546875 27.65625 3.707031 27.40625 3.707031 L 26.496094 3.707031 L 27.230469 4.242188 C 27.433594 4.386719 27.519531 4.648438 27.441406 4.886719 L 27.160156 5.75 L 27.894531 5.214844 C 27.996094 5.140625 28.117188 5.105469 28.234375 5.105469 Z M 28.234375 5.105469 " fill-opacity="1" fill-rule="nonzero"/><path fill="#d12c31" d="M 31.085938 29.425781 C 30.96875 29.425781 30.847656 29.386719 30.746094 29.316406 L 28.914062 27.984375 L 27.082031 29.316406 C 26.878906 29.460938 26.605469 29.460938 26.40625 29.316406 C 26.203125 29.167969 26.117188 28.90625 26.195312 28.671875 L 26.894531 26.515625 L 25.0625 25.183594 C 24.859375 25.039062 24.777344 24.777344 24.851562 24.539062 C 24.929688 24.300781 25.152344 24.140625 25.402344 24.140625 L 27.667969 24.140625 L 28.367188 21.988281 C 28.445312 21.75 28.664062 21.589844 28.914062 21.589844 C 29.164062 21.589844 29.386719 21.75 29.464844 21.988281 L 30.164062 24.140625 L 32.429688 24.140625 C 32.679688 24.140625 32.898438 24.300781 32.976562 24.539062 C 33.054688 24.777344 32.96875 25.039062 32.769531 25.183594 L 30.933594 26.515625 L 31.636719 28.671875 C 31.710938 28.90625 31.628906 29.167969 31.425781 29.316406 C 31.324219 29.386719 31.207031 29.425781 31.085938 29.425781 Z M 28.914062 26.695312 C 29.035156 26.695312 29.152344 26.730469 29.253906 26.804688 L 29.988281 27.335938 L 29.707031 26.472656 C 29.632812 26.234375 29.714844 25.976562 29.917969 25.828125 L 30.652344 25.292969 L 29.746094 25.292969 C 29.496094 25.292969 29.273438 25.132812 29.195312 24.894531 L 28.914062 24.03125 L 28.632812 24.894531 C 28.558594 25.132812 28.335938 25.292969 28.085938 25.292969 L 27.175781 25.292969 L 27.910156 25.828125 C 28.113281 25.976562 28.199219 26.234375 28.121094 26.472656 L 27.839844 27.335938 L 28.574219 26.804688 C 28.675781 26.730469 28.796875 26.695312 28.914062 26.695312 Z M 28.914062 26.695312 " fill-opacity="1" fill-rule="nonzero"/><path fill="#d12c31" d="M 27.988281 20.195312 C 27.867188 20.195312 27.75 20.15625 27.648438 20.082031 C 27.445312 19.9375 27.363281 19.675781 27.4375 19.4375 L 28.53125 16.078125 L 25.671875 14 C 25.46875 13.851562 25.382812 13.589844 25.460938 13.351562 C 25.539062 13.117188 25.761719 12.953125 26.011719 12.953125 L 29.546875 12.953125 L 30.636719 9.59375 C 30.714844 9.355469 30.9375 9.191406 31.1875 9.191406 C 31.4375 9.191406 31.660156 9.355469 31.734375 9.59375 L 32.828125 12.953125 L 36.363281 12.953125 C 36.613281 12.953125 36.835938 13.117188 36.914062 13.351562 C 36.988281 13.589844 36.90625 13.851562 36.703125 14 L 33.84375 16.078125 L 34.933594 19.4375 C 35.011719 19.675781 34.929688 19.9375 34.726562 20.082031 C 34.523438 20.230469 34.25 20.230469 34.046875 20.082031 L 31.1875 18.003906 L 28.328125 20.082031 C 28.226562 20.15625 28.105469 20.195312 27.988281 20.195312 Z M 31.1875 16.714844 C 31.304688 16.714844 31.425781 16.753906 31.527344 16.824219 L 33.289062 18.105469 L 32.617188 16.035156 C 32.539062 15.796875 32.625 15.535156 32.824219 15.390625 L 34.589844 14.109375 L 32.410156 14.109375 C 32.160156 14.109375 31.9375 13.949219 31.859375 13.710938 L 31.1875 11.636719 L 30.515625 13.710938 C 30.4375 13.949219 30.214844 14.109375 29.964844 14.109375 L 27.785156 14.109375 L 29.550781 15.390625 C 29.75 15.535156 29.835938 15.796875 29.757812 16.035156 L 29.085938 18.105469 L 30.847656 16.824219 C 30.949219 16.753906 31.066406 16.714844 31.1875 16.714844 Z M 31.1875 16.714844 " fill-opacity="1" fill-rule="nonzero"/></svg>