<svg xmlns="http://www.w3.org/2000/svg" xmlns:xlink="http://www.w3.org/1999/xlink" width="50" zoomAndPan="magnify" viewBox="0 0 37.5 37.499999" height="50" preserveAspectRatio="xMidYMid meet" version="1.0"><path fill="#d12c31" d="M 36.242188 0.00390625 L 33.285156 0.00390625 C 32.878906 0.00390625 32.546875 0.335938 32.546875 0.742188 L 32.546875 1.480469 L 4.4375 1.480469 L 4.4375 0.742188 C 4.4375 0.335938 4.105469 0.00390625 3.699219 0.00390625 L 0.738281 0.00390625 C 0.332031 0.00390625 0 0.335938 0 0.742188 L 0 8.140625 C 0 8.546875 0.332031 8.878906 0.738281 8.878906 L 3.699219 8.878906 C 4.105469 8.878906 4.4375 8.546875 4.4375 8.140625 L 4.4375 7.398438 L 5.917969 7.398438 L 5.917969 21.453125 C 5.917969 21.859375 6.25 22.191406 6.65625 22.191406 C 7.0625 22.191406 7.398438 21.859375 7.398438 21.453125 L 7.398438 7.398438 L 8.875 7.398438 L 8.875 28.851562 C 8.875 29.144531 9.054688 29.417969 9.335938 29.53125 C 9.335938 29.53125 18.207031 33.226562 18.210938 33.230469 C 18.398438 33.308594 18.585938 33.304688 18.773438 33.230469 C 18.773438 33.230469 27.648438 29.53125 27.648438 29.53125 C 27.929688 29.417969 28.109375 29.144531 28.109375 28.851562 L 28.109375 7.398438 L 29.585938 7.398438 L 29.585938 30.589844 L 18.492188 35.441406 L 7.398438 30.589844 L 7.398438 27.371094 C 7.398438 26.964844 7.0625 26.628906 6.65625 26.628906 C 6.25 26.628906 5.917969 26.964844 5.917969 27.371094 L 5.917969 31.070312 C 5.917969 31.363281 6.09375 31.632812 6.359375 31.75 C 6.359375 31.75 18.195312 36.925781 18.195312 36.925781 C 18.394531 37.003906 18.589844 37.003906 18.789062 36.925781 L 30.621094 31.75 C 30.886719 31.632812 31.066406 31.363281 31.066406 31.070312 L 31.066406 7.398438 L 32.546875 7.398438 L 32.546875 8.140625 C 32.546875 8.546875 32.878906 8.878906 33.285156 8.878906 L 36.242188 8.878906 C 36.652344 8.878906 36.984375 8.546875 36.984375 8.140625 L 36.984375 0.742188 C 36.984375 0.335938 36.652344 0.00390625 36.242188 0.00390625 Z M 2.957031 7.398438 L 1.480469 7.398438 L 1.480469 1.480469 L 2.957031 1.480469 Z M 26.628906 28.355469 L 18.492188 31.75 L 10.355469 28.355469 L 10.355469 7.398438 L 26.628906 7.398438 Z M 32.546875 5.921875 L 4.4375 5.921875 L 4.4375 2.960938 L 32.546875 2.960938 Z M 35.503906 7.398438 L 34.023438 7.398438 L 34.023438 1.480469 L 35.503906 1.480469 Z M 35.503906 7.398438 " fill-opacity="1" fill-rule="evenodd"/><path fill="#d12c31" d="M 14.738281 19.917969 C 14.738281 19.917969 14.109375 23.53125 14.105469 23.542969 C 14.003906 24.136719 14.640625 24.605469 15.175781 24.328125 L 18.492188 22.609375 C 18.492188 22.609375 21.808594 24.328125 21.808594 24.328125 C 22.328125 24.597656 22.980469 24.140625 22.878906 23.546875 L 22.246094 19.917969 C 22.246094 19.917969 24.917969 17.351562 24.921875 17.347656 C 25.359375 16.929688 25.109375 16.167969 24.515625 16.082031 L 20.808594 15.550781 L 19.152344 12.246094 C 18.902344 11.746094 18.082031 11.746094 17.832031 12.246094 L 16.175781 15.550781 C 16.175781 15.550781 12.476562 16.082031 12.46875 16.082031 C 11.871094 16.167969 11.625 16.929688 12.0625 17.347656 Z M 16.769531 16.960938 C 17.007812 16.925781 17.214844 16.777344 17.324219 16.558594 L 18.492188 14.230469 L 19.660156 16.558594 C 19.765625 16.777344 19.976562 16.925781 20.214844 16.960938 L 22.804688 17.332031 L 20.9375 19.125 C 20.761719 19.296875 20.679688 19.542969 20.722656 19.785156 L 21.164062 22.328125 C 21.164062 22.328125 18.835938 21.121094 18.832031 21.121094 C 18.632812 21.015625 18.363281 21.007812 18.152344 21.121094 L 15.820312 22.328125 L 16.261719 19.785156 C 16.304688 19.542969 16.222656 19.296875 16.046875 19.125 L 14.179688 17.332031 Z M 16.769531 16.960938 " fill-opacity="1" fill-rule="evenodd"/><path fill="#d12c31" d="M 7.398438 24.410156 C 7.398438 24.617188 7.324219 24.789062 7.179688 24.933594 C 7.035156 25.078125 6.859375 25.152344 6.65625 25.152344 C 6.453125 25.152344 6.277344 25.078125 6.132812 24.933594 C 5.988281 24.789062 5.917969 24.617188 5.917969 24.410156 C 5.917969 24.207031 5.988281 24.03125 6.132812 23.890625 C 6.277344 23.746094 6.453125 23.671875 6.65625 23.671875 C 6.859375 23.671875 7.035156 23.746094 7.179688 23.890625 C 7.324219 24.03125 7.398438 24.207031 7.398438 24.410156 Z M 7.398438 24.410156 " fill-opacity="1" fill-rule="nonzero"/></svg>