<svg width="193" height="190" viewBox="0 0 193 190" fill="none" xmlns="http://www.w3.org/2000/svg">
<path fill-rule="evenodd" clip-rule="evenodd" d="M96.0737 133.3C99.3874 133.3 102.074 135.986 102.074 139.3V156.274C102.074 159.587 99.3874 162.274 96.0737 162.274C92.76 162.274 90.0737 159.587 90.0737 156.274V139.3C90.0737 135.986 92.76 133.3 96.0737 133.3Z" fill="#2C215A"/>
<path fill-rule="evenodd" clip-rule="evenodd" d="M12.1589 39.8802C12.0868 39.8802 12.0362 39.9092 12.0133 39.9317C12.0078 39.9372 12.0045 39.9415 12.0026 39.9443C12.0014 39.9461 12 39.9486 12 39.9486V52.0709C12 56.8818 13.9403 61.515 17.425 64.9458C20.9129 68.3797 25.6632 70.3253 30.6355 70.3253H40.4C43.7137 70.3253 46.4 73.0116 46.4 76.3253C46.4 79.639 43.7137 82.3253 40.4 82.3253H30.6355C22.5404 82.3253 14.7584 79.1602 9.00614 73.497C3.25076 67.8306 0 60.1254 0 52.0709V39.9438C0 36.7138 1.30412 33.6355 3.59446 31.3806C5.88162 29.1288 8.96407 27.8802 12.1589 27.8802H40.4C43.7137 27.8802 46.4 30.5665 46.4 33.8802C46.4 37.1939 43.7137 39.8802 40.4 39.8802H12.1589Z" fill="#2C215A"/>
<path fill-rule="evenodd" clip-rule="evenodd" d="M146.2 33.8802C146.2 30.5665 148.886 27.8802 152.2 27.8802H179.988C183.183 27.8802 186.266 29.1288 188.553 31.3806C190.843 33.6355 192.147 36.7138 192.147 39.9438V52.0709C192.147 60.1254 188.897 67.8306 183.141 73.497C177.389 79.1602 169.607 82.3253 161.512 82.3253H152.2C148.886 82.3253 146.2 79.639 146.2 76.3253C146.2 73.0116 148.886 70.3253 152.2 70.3253H161.512C166.484 70.3253 171.234 68.3797 174.722 64.9458C178.207 61.515 180.147 56.8818 180.147 52.0709V39.9486C180.147 39.9486 180.146 39.9461 180.145 39.9443C180.145 39.9443 180.142 39.9407 180.14 39.9383C180.138 39.9363 180.136 39.9341 180.134 39.9317C180.111 39.9092 180.06 39.8802 179.988 39.8802H152.2C148.886 39.8802 146.2 37.1939 146.2 33.8802Z" fill="#2C215A"/>
<path fill-rule="evenodd" clip-rule="evenodd" d="M34.3138 16C34.3138 7.16346 41.4772 0 50.3138 0H141.834C150.67 0 157.834 7.16345 157.834 16V67.8463C157.834 108.569 131.899 144.959 96.5576 145.298C88.1814 145.379 79.9246 143.357 72.2801 139.414C64.6443 135.476 57.8028 129.718 52.1019 122.557C46.4021 115.399 41.9325 106.953 38.8992 97.7346C35.8656 88.5147 34.3136 78.6597 34.3138 68.7284V68.7284V16ZM50.3138 12C48.1047 12 46.3138 13.7909 46.3138 16V68.7284C46.3136 77.4228 47.6742 86.0095 50.2981 93.984C52.9223 101.96 56.7435 109.122 61.4898 115.083C66.2348 121.043 71.7878 125.658 77.7807 128.749C83.7649 131.836 90.1014 133.36 96.4416 133.298C122.591 133.048 145.834 104.946 145.834 67.8463V16C145.834 13.7909 144.043 12 141.834 12H50.3138Z" fill="#2C215A"/>
<path fill-rule="evenodd" clip-rule="evenodd" d="M58.4844 166.4C58.7431 166.255 59.0086 166.122 59.2803 166C60.5689 165.422 61.9976 165.1 63.5015 165.1H132.935C134.439 165.1 135.868 165.422 137.156 166C137.428 166.122 137.694 166.255 137.952 166.4C138.981 166.973 139.901 167.717 140.675 168.594C142.281 170.413 143.255 172.803 143.255 175.42C143.255 176.845 142.1 178 140.675 178H55.7615C54.3366 178 53.1815 176.845 53.1815 175.42C53.1815 172.803 54.1558 170.413 55.7615 168.594C56.5353 167.717 57.4557 166.973 58.4844 166.4ZM63.5015 153.1H132.935C145.262 153.1 155.255 163.093 155.255 175.42C155.255 183.472 148.728 190 140.675 190H55.7615C47.7092 190 41.1815 183.472 41.1815 175.42C41.1815 163.093 51.1745 153.1 63.5015 153.1Z" fill="#2C215A"/>
<path d="M63.8064 76.8223C62.7018 76.8223 61.8064 75.9269 61.8064 74.8223L61.8064 60.2244C61.8064 59.1199 62.7018 58.2244 63.8064 58.2244L77.0409 58.2244C77.2776 58.2244 77.5014 58.332 77.6492 58.5168L84.4665 67.0366C84.6942 67.3212 84.6942 67.7256 84.4665 68.0101L77.6492 76.53C77.5014 76.7147 77.2776 76.8223 77.0409 76.8223H63.8064Z" fill="#2C215A"/>
<path fill-rule="evenodd" clip-rule="evenodd" d="M63.8064 79.8223C61.045 79.8223 58.8064 77.5837 58.8064 74.8223L58.8064 60.2244C58.8064 57.463 61.045 55.2244 63.8064 55.2244L77.0409 55.2244C78.1888 55.2244 79.2745 55.7462 79.9917 56.6424L86.8089 65.1623C87.9134 66.5426 87.9134 68.5041 86.8089 69.8844L79.9917 78.4043C79.2745 79.3006 78.1888 79.8223 77.0409 79.8223H63.8064ZM64.8064 73.8223H75.9736L81.0138 67.5234L75.9736 61.2244L64.8064 61.2244V73.8223Z" fill="#2C215A"/>
<path d="M126.853 58.2241C127.957 58.2241 128.853 59.1195 128.853 60.2241V74.822C128.853 75.9265 127.957 76.822 126.853 76.822H113.618C113.382 76.822 113.158 76.7144 113.01 76.5296L106.193 68.0098C105.965 67.7252 105.965 67.3208 106.193 67.0363L113.01 58.5164C113.158 58.3316 113.382 58.2241 113.618 58.2241H126.853Z" fill="#2C215A"/>
<path fill-rule="evenodd" clip-rule="evenodd" d="M126.853 55.2241C129.614 55.2241 131.853 57.4627 131.853 60.2241V74.822C131.853 77.5834 129.614 79.822 126.853 79.822H113.618C112.47 79.822 111.385 79.3002 110.668 78.404L103.85 69.8841C102.746 68.5038 102.746 66.5423 103.85 65.162L110.668 56.6421C111.385 55.7458 112.47 55.2241 113.618 55.2241H126.853ZM125.853 61.2241H114.686L109.645 67.523L114.686 73.822H125.853V61.2241Z" fill="#2C215A"/>
<path d="M86.0305 36C86.0305 34.8954 86.926 34 88.0305 34L102.628 34C103.733 34 104.628 34.8954 104.628 36V49.2345C104.628 49.4712 104.521 49.695 104.336 49.8428L95.8162 56.6601C95.5317 56.8878 95.1273 56.8878 94.8427 56.6601L86.3229 49.8428C86.1381 49.695 86.0305 49.4712 86.0305 49.2345L86.0305 36Z" fill="#2C215A"/>
<path fill-rule="evenodd" clip-rule="evenodd" d="M83.0305 36C83.0305 33.2386 85.2691 31 88.0305 31L102.628 31C105.39 31 107.628 33.2386 107.628 36V49.2345C107.628 50.3824 107.107 51.4681 106.21 52.1853L97.6905 59.0025C96.3102 60.107 94.3487 60.107 92.9684 59.0025L84.4485 52.1853C83.5523 51.4681 83.0305 50.3824 83.0305 49.2345L83.0305 36ZM89.0305 37L89.0305 48.1672L95.3295 53.2074L101.628 48.1672V37L89.0305 37Z" fill="#2C215A"/>
<path d="M104.629 99.0459C104.629 100.151 103.733 101.046 102.629 101.046H88.0306C86.9261 101.046 86.0306 100.151 86.0306 99.0459L86.0307 85.8114C86.0307 85.5748 86.1382 85.3509 86.323 85.2031L94.8428 78.3858C95.1274 78.1581 95.5318 78.1581 95.8163 78.3858L104.336 85.2031C104.521 85.3509 104.629 85.5748 104.629 85.8114V99.0459Z" fill="#2C215A"/>
<path fill-rule="evenodd" clip-rule="evenodd" d="M107.629 99.0459C107.629 101.807 105.39 104.046 102.629 104.046H88.0306C85.2692 104.046 83.0306 101.807 83.0306 99.0459L83.0307 85.8114C83.0307 84.6635 83.5524 83.5778 84.4487 82.8607L92.9685 76.0434C94.3488 74.9389 96.3104 74.9389 97.6907 76.0434L106.211 82.8607C107.107 83.5778 107.629 84.6635 107.629 85.8114V99.0459ZM101.629 98.0459V86.8787L95.3296 81.8385L89.0307 86.8787L89.0306 98.0459H101.629Z" fill="#2C215A"/>
</svg>
