<svg width="193" height="190" viewBox="0 0 193 190" fill="none" xmlns="http://www.w3.org/2000/svg">
<path fill-rule="evenodd" clip-rule="evenodd" d="M96.2292 133.3C99.543 133.3 102.229 135.986 102.229 139.3L102.229 156.273C102.229 159.587 99.543 162.273 96.2292 162.273C92.9155 162.273 90.2292 159.587 90.2292 156.273L90.2292 139.3C90.2292 135.986 92.9155 133.3 96.2292 133.3Z" fill="#2C215A"/>
<path fill-rule="evenodd" clip-rule="evenodd" d="M12.3144 39.8804C12.2423 39.8804 12.1917 39.9094 12.1688 39.9319C12.1633 39.9374 12.16 39.9417 12.1581 39.9446C12.1569 39.9463 12.1561 39.9478 12.1555 39.9488V52.0712C12.1555 56.8821 14.0958 61.5152 17.5805 64.946C21.0684 68.3799 25.8187 70.3255 30.791 70.3255H40.5555C43.8692 70.3255 46.5555 73.0118 46.5555 76.3255C46.5555 79.6392 43.8692 82.3255 40.5555 82.3255H30.791C22.6959 82.3255 14.9139 79.1604 9.16166 73.4972C3.40628 67.8308 0.155518 60.1256 0.155518 52.0712V39.944C0.155518 36.714 1.45964 33.6357 3.74998 31.3808C6.03714 29.129 9.11959 27.8804 12.3144 27.8804H40.5555C43.8692 27.8804 46.5555 30.5667 46.5555 33.8804C46.5555 37.1941 43.8692 39.8804 40.5555 39.8804H12.3144Z" fill="#2C215A"/>
<path fill-rule="evenodd" clip-rule="evenodd" d="M146.355 33.8804C146.355 30.5667 149.042 27.8804 152.355 27.8804H180.144C183.339 27.8804 186.421 29.129 188.708 31.3808C190.999 33.6357 192.303 36.7141 192.303 39.944V52.0712C192.303 60.1256 189.052 67.8308 183.297 73.4972C177.544 79.1604 169.762 82.3255 161.667 82.3255H152.355C149.042 82.3255 146.355 79.6392 146.355 76.3255C146.355 73.0118 149.042 70.3255 152.355 70.3255H161.667C166.64 70.3255 171.39 68.3799 174.878 64.946C178.362 61.5152 180.303 56.8821 180.303 52.0712V39.9488C180.302 39.9478 180.301 39.9463 180.3 39.9445C180.299 39.943 180.298 39.9409 180.296 39.9385C180.294 39.9365 180.292 39.9343 180.289 39.9319C180.267 39.9094 180.216 39.8804 180.144 39.8804H152.355C149.042 39.8804 146.355 37.1941 146.355 33.8804Z" fill="#2C215A"/>
<path fill-rule="evenodd" clip-rule="evenodd" d="M34.4692 16C34.4692 7.16346 41.6327 0 50.4692 0H141.989C150.826 0 157.989 7.16345 157.989 16V67.8463C157.989 108.569 132.054 144.959 96.7131 145.298C88.3368 145.379 80.0801 143.357 72.4355 139.414C64.7998 135.476 57.9583 129.718 52.2573 122.557C46.5575 115.399 42.088 106.953 39.0547 97.7346C36.021 88.5147 34.469 78.6597 34.4692 68.7284C34.4692 68.7284 34.4692 68.7285 34.4692 68.7284V16ZM50.4692 12C48.2601 12 46.4692 13.7909 46.4692 16V68.7284C46.469 77.4228 47.8296 86.0095 50.4535 93.984C53.0778 101.96 56.899 109.122 61.6452 115.083C66.3902 121.043 71.9433 125.658 77.9362 128.749C83.9203 131.836 90.2568 133.36 96.5971 133.298C122.746 133.048 145.989 104.946 145.989 67.8463V16C145.989 13.7909 144.198 12 141.989 12H50.4692Z" fill="#2C215A"/>
<path fill-rule="evenodd" clip-rule="evenodd" d="M58.64 166.4C58.8987 166.255 59.1642 166.122 59.4359 166C60.7245 165.422 62.1533 165.1 63.6572 165.1H133.091C134.595 165.1 136.023 165.422 137.312 166C137.584 166.122 137.849 166.255 138.108 166.4C139.137 166.973 140.057 167.717 140.831 168.594C142.437 170.413 143.411 172.803 143.411 175.42C143.411 176.845 142.256 178 140.831 178H55.9172C54.4923 178 53.3372 176.845 53.3372 175.42C53.3372 172.803 54.3115 170.413 55.9172 168.594C56.6909 167.717 57.6114 166.973 58.64 166.4ZM63.6572 153.1H133.091C145.418 153.1 155.411 163.093 155.411 175.42C155.411 183.472 148.883 190 140.831 190H55.9172C47.8649 190 41.3372 183.472 41.3372 175.42C41.3372 163.093 51.3302 153.1 63.6572 153.1Z" fill="#2C215A"/>
<path fill-rule="evenodd" clip-rule="evenodd" d="M61.0398 82.5596L90.6297 33.3505C91.2524 32.3277 92.1293 31.4821 93.1757 30.8952C94.2221 30.3083 95.4027 30 96.6035 30C97.8043 30 98.9849 30.3083 100.031 30.8952C101.078 31.4821 101.955 32.3277 102.577 33.3505L132.167 82.5596C132.777 83.6121 133.1 84.8053 133.103 86.0207C133.107 87.236 132.791 88.431 132.187 89.4869C131.583 90.5427 130.711 91.4226 129.66 92.039C128.608 92.6553 127.413 92.9866 126.193 93H67.0137C65.7938 92.9866 64.5986 92.6553 63.5471 92.039C62.4957 91.4226 61.6245 90.5427 61.0204 89.4869C60.4162 88.431 60.1001 87.236 60.1035 86.0207C60.107 84.8053 60.4298 83.6121 61.0398 82.5596ZM101.093 53.7637C101.093 51.2398 99.0838 49.1938 96.6059 49.1938C94.1279 49.1938 92.1191 51.2398 92.1191 53.7637V64.7869C92.1191 67.3108 94.1279 69.3568 96.6059 69.3568C99.0838 69.3568 101.093 67.3108 101.093 64.7869V53.7637ZM96.6059 73.054C94.1279 73.054 92.1191 75.1 92.1191 77.6239C92.1191 80.1478 94.1279 82.1938 96.6059 82.1938H96.6324C99.1104 82.1938 101.119 80.1478 101.119 77.6239C101.119 75.1 99.1104 73.054 96.6324 73.054H96.6059Z" fill="#2C215A"/>
</svg>
