<svg width="193" height="190" viewBox="0 0 193 190" fill="none" xmlns="http://www.w3.org/2000/svg">
<path fill-rule="evenodd" clip-rule="evenodd" d="M96.9265 133.3C100.24 133.3 102.927 135.986 102.927 139.3L102.927 156.273C102.927 159.587 100.24 162.273 96.9265 162.273C93.6128 162.273 90.9265 159.587 90.9265 156.273L90.9265 139.3C90.9265 135.986 93.6128 133.3 96.9265 133.3Z" fill="#2C215A"/>
<path fill-rule="evenodd" clip-rule="evenodd" d="M13.0117 39.8804C12.9396 39.8804 12.889 39.9094 12.8661 39.9319C12.8606 39.9374 12.8573 39.9417 12.8553 39.9446C12.8541 39.9463 12.8533 39.9478 12.8528 39.9488V52.0712C12.8528 56.8821 14.7931 61.5152 18.2778 64.946C21.7657 68.3799 26.5159 70.3255 31.4883 70.3255H41.2528C44.5665 70.3255 47.2528 73.0118 47.2528 76.3255C47.2528 79.6392 44.5665 82.3255 41.2528 82.3255H31.4883C23.3932 82.3255 15.6111 79.1604 9.85893 73.4972C4.10355 67.8308 0.852783 60.1256 0.852783 52.0712V39.944C0.852783 36.714 2.1569 33.6357 4.44724 31.3808C6.73441 29.129 9.81685 27.8804 13.0117 27.8804H41.2528C44.5665 27.8804 47.2528 30.5667 47.2528 33.8804C47.2528 37.1941 44.5665 39.8804 41.2528 39.8804H13.0117Z" fill="#2C215A"/>
<path fill-rule="evenodd" clip-rule="evenodd" d="M147.053 33.8804C147.053 30.5667 149.739 27.8804 153.053 27.8804H180.841C184.036 27.8804 187.118 29.129 189.406 31.3808C191.696 33.6357 193 36.7141 193 39.944V52.0712C193 60.1256 189.749 67.8308 183.994 73.4972C178.242 79.1604 170.46 82.3255 162.365 82.3255H153.053C149.739 82.3255 147.053 79.6392 147.053 76.3255C147.053 73.0118 149.739 70.3255 153.053 70.3255H162.365C167.337 70.3255 172.087 68.3799 175.575 64.946C179.06 61.5152 181 56.8821 181 52.0712V39.9488C180.999 39.9478 180.999 39.9463 180.997 39.9445C180.996 39.943 180.995 39.9409 180.993 39.9385C180.991 39.9365 180.989 39.9343 180.987 39.9319C180.964 39.9094 180.913 39.8804 180.841 39.8804H153.053C149.739 39.8804 147.053 37.1941 147.053 33.8804Z" fill="#2C215A"/>
<path fill-rule="evenodd" clip-rule="evenodd" d="M35.1665 16C35.1665 7.16346 42.3299 0 51.1665 0H142.686C151.523 0 158.686 7.16345 158.686 16V67.8463C158.686 108.569 132.752 144.959 97.4103 145.298C89.0341 145.379 80.7773 143.357 73.1328 139.414C65.497 135.476 58.6555 129.718 52.9545 122.557C47.2548 115.399 42.7852 106.953 39.7519 97.7346C36.7183 88.5147 35.1663 78.6597 35.1665 68.7284C35.1665 68.7284 35.1665 68.7285 35.1665 68.7284V16ZM51.1665 12C48.9574 12 47.1665 13.7909 47.1665 16V68.7284C47.1663 77.4228 48.5269 86.0095 51.1508 93.984C53.775 101.96 57.5962 109.122 62.3425 115.083C67.0875 121.043 72.6405 125.658 78.6334 128.749C84.6176 131.836 90.9541 133.36 97.2943 133.298C123.443 133.048 146.686 104.946 146.686 67.8463V16C146.686 13.7909 144.895 12 142.686 12H51.1665Z" fill="#2C215A"/>
<path fill-rule="evenodd" clip-rule="evenodd" d="M59.3373 166.4C59.5959 166.255 59.8615 166.122 60.1332 166C61.4218 165.422 62.8505 165.1 64.3544 165.1H133.788C135.292 165.1 136.721 165.422 138.009 166C138.281 166.122 138.547 166.255 138.805 166.4C139.834 166.973 140.754 167.717 141.528 168.594C143.134 170.413 144.108 172.803 144.108 175.42C144.108 176.845 142.953 178 141.528 178H56.6144C55.1895 178 54.0344 176.845 54.0344 175.42C54.0344 172.803 55.0087 170.413 56.6144 168.594C57.3882 167.717 58.3086 166.973 59.3373 166.4ZM64.3544 153.1H133.788C146.115 153.1 156.108 163.093 156.108 175.42C156.108 183.472 149.58 190 141.528 190H56.6144C48.5621 190 42.0344 183.472 42.0344 175.42C42.0344 163.093 52.0274 153.1 64.3544 153.1Z" fill="#2C215A"/>
<path fill-rule="evenodd" clip-rule="evenodd" d="M129.853 63.5C129.853 82.0015 114.854 97 96.3528 97C77.8512 97 62.8528 82.0015 62.8528 63.5C62.8528 44.9985 77.8512 30 96.3528 30C114.854 30 129.853 44.9985 129.853 63.5ZM108.218 53.071C108.354 52.6629 108.248 52.2131 107.944 51.9089C107.64 51.6048 107.19 51.4986 106.782 51.6346L90.5996 57.0286C90.2605 57.1417 89.9945 57.4078 89.8814 57.7469L84.4874 73.9291C84.3513 74.3371 84.4575 74.787 84.7617 75.0912C85.0658 75.3953 85.5157 75.5015 85.9238 75.3655L102.106 69.9714C102.445 69.8584 102.711 69.5923 102.824 69.2532L108.218 53.071Z" fill="#2C215A"/>
</svg>
