<svg width="193" height="190" viewBox="0 0 193 190" fill="none" xmlns="http://www.w3.org/2000/svg">
<path fill-rule="evenodd" clip-rule="evenodd" d="M96.9265 133.3C100.24 133.3 102.926 135.986 102.926 139.3V156.274C102.926 159.587 100.24 162.274 96.9265 162.274C93.6128 162.274 90.9265 159.587 90.9265 156.274V139.3C90.9265 135.986 93.6128 133.3 96.9265 133.3Z" fill="url(#paint0_linear_263_635)"/>
<path fill-rule="evenodd" clip-rule="evenodd" d="M13.0117 39.8802C12.9396 39.8802 12.889 39.9092 12.8661 39.9317C12.8606 39.9372 12.8573 39.9415 12.8553 39.9443C12.8541 39.9461 12.8528 39.9486 12.8528 39.9486V52.0709C12.8528 56.8818 14.7931 61.515 18.2778 64.9458C21.7657 68.3797 26.5159 70.3253 31.4883 70.3253H41.2528C44.5665 70.3253 47.2528 73.0116 47.2528 76.3253C47.2528 79.639 44.5665 82.3253 41.2528 82.3253H31.4883C23.3932 82.3253 15.6111 79.1602 9.85893 73.497C4.10355 67.8306 0.852783 60.1254 0.852783 52.0709V39.9438C0.852783 36.7138 2.1569 33.6355 4.44724 31.3806C6.73441 29.1288 9.81685 27.8802 13.0117 27.8802H41.2528C44.5665 27.8802 47.2528 30.5665 47.2528 33.8802C47.2528 37.1939 44.5665 39.8802 41.2528 39.8802H13.0117Z" fill="url(#paint1_linear_263_635)"/>
<path fill-rule="evenodd" clip-rule="evenodd" d="M147.053 33.8802C147.053 30.5665 149.739 27.8802 153.053 27.8802H180.841C184.036 27.8802 187.118 29.1288 189.406 31.3806C191.696 33.6355 193 36.7138 193 39.9438V52.0709C193 60.1254 189.749 67.8306 183.994 73.497C178.242 79.1602 170.46 82.3253 162.365 82.3253H153.053C149.739 82.3253 147.053 79.639 147.053 76.3253C147.053 73.0116 149.739 70.3253 153.053 70.3253H162.365C167.337 70.3253 172.087 68.3797 175.575 64.9458C179.06 61.515 181 56.8818 181 52.0709V39.9486C181 39.9486 180.999 39.9461 180.998 39.9443C180.998 39.9443 180.995 39.9407 180.993 39.9383C180.991 39.9363 180.989 39.9341 180.987 39.9317C180.964 39.9092 180.913 39.8802 180.841 39.8802H153.053C149.739 39.8802 147.053 37.1939 147.053 33.8802Z" fill="url(#paint2_linear_263_635)"/>
<path fill-rule="evenodd" clip-rule="evenodd" d="M35.1666 16C35.1666 7.16346 42.33 0 51.1666 0H142.686C151.523 0 158.686 7.16345 158.686 16V67.8463C158.686 108.569 132.752 144.959 97.4104 145.298C89.0342 145.379 80.7774 143.357 73.1329 139.414C65.4971 135.476 58.6556 129.718 52.9546 122.557C47.2549 115.399 42.7853 106.953 39.752 97.7346C36.7184 88.5147 35.1664 78.6597 35.1666 68.7284V68.7284V16ZM51.1666 12C48.9575 12 47.1666 13.7909 47.1666 16V68.7284C47.1664 77.4228 48.5269 86.0095 51.1508 93.984C53.7751 101.96 57.5963 109.122 62.3425 115.083C67.0875 121.043 72.6406 125.658 78.6335 128.749C84.6177 131.836 90.9541 133.36 97.2944 133.298C123.443 133.048 146.686 104.946 146.686 67.8463V16C146.686 13.7909 144.896 12 142.686 12H51.1666Z" fill="url(#paint3_linear_263_635)"/>
<path fill-rule="evenodd" clip-rule="evenodd" d="M59.3372 166.4C59.5958 166.255 59.8614 166.122 60.1331 166C61.4217 165.422 62.8504 165.1 64.3543 165.1H133.788C135.292 165.1 136.721 165.422 138.009 166C138.281 166.122 138.546 166.255 138.805 166.4C139.834 166.973 140.754 167.717 141.528 168.594C143.134 170.413 144.108 172.803 144.108 175.42C144.108 176.845 142.953 178 141.528 178H56.6143C55.1894 178 54.0343 176.845 54.0343 175.42C54.0343 172.803 55.0086 170.413 56.6143 168.594C57.3881 167.717 58.3085 166.973 59.3372 166.4ZM64.3543 153.1H133.788C146.115 153.1 156.108 163.093 156.108 175.42C156.108 183.472 149.58 190 141.528 190H56.6143C48.562 190 42.0343 183.472 42.0343 175.42C42.0343 163.093 52.0273 153.1 64.3543 153.1Z" fill="url(#paint4_linear_263_635)"/>
<path fill-rule="evenodd" clip-rule="evenodd" d="M129.853 63.5C129.853 82.0015 114.854 97 96.3528 97C77.8512 97 62.8528 82.0015 62.8528 63.5C62.8528 44.9985 77.8512 30 96.3528 30C114.854 30 129.853 44.9985 129.853 63.5ZM108.218 53.071C108.354 52.6629 108.248 52.2131 107.944 51.9089C107.64 51.6048 107.19 51.4986 106.782 51.6346L90.5996 57.0286C90.2605 57.1417 89.9945 57.4078 89.8814 57.7469L84.4874 73.9291C84.3513 74.3371 84.4575 74.787 84.7617 75.0912C85.0658 75.3953 85.5157 75.5015 85.9238 75.3655L102.106 69.9714C102.445 69.8584 102.711 69.5923 102.824 69.2532L108.218 53.071Z" fill="url(#paint5_linear_263_635)"/>
<defs>
<linearGradient id="paint0_linear_263_635" x1="-8.86033" y1="-17.4357" x2="257.289" y2="132.403" gradientUnits="userSpaceOnUse">
<stop stop-color="#A385FC"/>
<stop offset="0.47" stop-color="white"/>
<stop offset="1" stop-color="#9B7BFB"/>
</linearGradient>
<linearGradient id="paint1_linear_263_635" x1="-8.86033" y1="-17.4357" x2="257.289" y2="132.403" gradientUnits="userSpaceOnUse">
<stop stop-color="#A385FC"/>
<stop offset="0.47" stop-color="white"/>
<stop offset="1" stop-color="#9B7BFB"/>
</linearGradient>
<linearGradient id="paint2_linear_263_635" x1="-8.86033" y1="-17.4357" x2="257.289" y2="132.403" gradientUnits="userSpaceOnUse">
<stop stop-color="#A385FC"/>
<stop offset="0.47" stop-color="white"/>
<stop offset="1" stop-color="#9B7BFB"/>
</linearGradient>
<linearGradient id="paint3_linear_263_635" x1="-8.86033" y1="-17.4357" x2="257.289" y2="132.403" gradientUnits="userSpaceOnUse">
<stop stop-color="#A385FC"/>
<stop offset="0.47" stop-color="white"/>
<stop offset="1" stop-color="#9B7BFB"/>
</linearGradient>
<linearGradient id="paint4_linear_263_635" x1="-8.86033" y1="-17.4357" x2="257.289" y2="132.403" gradientUnits="userSpaceOnUse">
<stop stop-color="#A385FC"/>
<stop offset="0.47" stop-color="white"/>
<stop offset="1" stop-color="#9B7BFB"/>
</linearGradient>
<linearGradient id="paint5_linear_263_635" x1="-8.86033" y1="-17.4357" x2="257.289" y2="132.403" gradientUnits="userSpaceOnUse">
<stop stop-color="#A385FC"/>
<stop offset="0.47" stop-color="white"/>
<stop offset="1" stop-color="#9B7BFB"/>
</linearGradient>
</defs>
</svg>
