<svg width="193" height="190" viewBox="0 0 193 190" fill="none" xmlns="http://www.w3.org/2000/svg">
<path fill-rule="evenodd" clip-rule="evenodd" d="M96.2292 133.3C99.5429 133.3 102.229 135.986 102.229 139.3V156.274C102.229 159.587 99.5429 162.274 96.2292 162.274C92.9155 162.274 90.2292 159.587 90.2292 156.274V139.3C90.2292 135.986 92.9155 133.3 96.2292 133.3Z" fill="url(#paint0_linear_263_608)"/>
<path fill-rule="evenodd" clip-rule="evenodd" d="M12.3144 39.8802C12.2423 39.8802 12.1917 39.9092 12.1688 39.9317C12.1633 39.9372 12.16 39.9415 12.1581 39.9443C12.1569 39.9461 12.1555 39.9486 12.1555 39.9486V52.0709C12.1555 56.8818 14.0958 61.515 17.5805 64.9458C21.0684 68.3797 25.8187 70.3253 30.791 70.3253H40.5555C43.8692 70.3253 46.5555 73.0116 46.5555 76.3253C46.5555 79.639 43.8692 82.3253 40.5555 82.3253H30.791C22.6959 82.3253 14.9139 79.1602 9.16166 73.497C3.40628 67.8306 0.155518 60.1254 0.155518 52.0709V39.9438C0.155518 36.7138 1.45964 33.6355 3.74998 31.3806C6.03714 29.1288 9.11959 27.8802 12.3144 27.8802H40.5555C43.8692 27.8802 46.5555 30.5665 46.5555 33.8802C46.5555 37.1939 43.8692 39.8802 40.5555 39.8802H12.3144Z" fill="url(#paint1_linear_263_608)"/>
<path fill-rule="evenodd" clip-rule="evenodd" d="M146.356 33.8802C146.356 30.5665 149.042 27.8802 152.356 27.8802H180.144C183.339 27.8802 186.421 29.1288 188.708 31.3806C190.999 33.6355 192.303 36.7138 192.303 39.9438V52.0709C192.303 60.1254 189.052 67.8306 183.297 73.497C177.544 79.1602 169.762 82.3253 161.667 82.3253H152.356C149.042 82.3253 146.356 79.639 146.356 76.3253C146.356 73.0116 149.042 70.3253 152.356 70.3253H161.667C166.64 70.3253 171.39 68.3797 174.878 64.9458C178.363 61.515 180.303 56.8818 180.303 52.0709V39.9486C180.303 39.9486 180.301 39.9461 180.3 39.9443C180.3 39.9443 180.298 39.9407 180.296 39.9383C180.294 39.9363 180.292 39.9341 180.289 39.9317C180.267 39.9092 180.216 39.8802 180.144 39.8802H152.356C149.042 39.8802 146.356 37.1939 146.356 33.8802Z" fill="url(#paint2_linear_263_608)"/>
<path fill-rule="evenodd" clip-rule="evenodd" d="M34.4693 16C34.4693 7.16346 41.6328 0 50.4693 0H141.989C150.826 0 157.989 7.16345 157.989 16V67.8463C157.989 108.569 132.055 144.959 96.7132 145.298C88.3369 145.379 80.0802 143.357 72.4356 139.414C64.7999 135.476 57.9583 129.718 52.2574 122.557C46.5576 115.399 42.0881 106.953 39.0548 97.7346C36.0211 88.5147 34.4691 78.6597 34.4693 68.7284V68.7284V16ZM50.4693 12C48.2602 12 46.4693 13.7909 46.4693 16V68.7284C46.4691 77.4228 47.8297 86.0095 50.4536 93.984C53.0779 101.96 56.899 109.122 61.6453 115.083C66.3903 121.043 71.9433 125.658 77.9362 128.749C83.9204 131.836 90.2569 133.36 96.5972 133.298C122.746 133.048 145.989 104.946 145.989 67.8463V16C145.989 13.7909 144.198 12 141.989 12H50.4693Z" fill="url(#paint3_linear_263_608)"/>
<path fill-rule="evenodd" clip-rule="evenodd" d="M58.6399 166.4C58.8986 166.255 59.1641 166.122 59.4358 166C60.7244 165.422 62.1532 165.1 63.6571 165.1H133.091C134.595 165.1 136.023 165.422 137.312 166C137.584 166.122 137.849 166.255 138.108 166.4C139.137 166.973 140.057 167.717 140.831 168.594C142.436 170.413 143.411 172.803 143.411 175.42C143.411 176.845 142.256 178 140.831 178H55.9171C54.4922 178 53.3371 176.845 53.3371 175.42C53.3371 172.803 54.3114 170.413 55.9171 168.594C56.6908 167.717 57.6113 166.973 58.6399 166.4ZM63.6571 153.1H133.091C145.418 153.1 155.411 163.093 155.411 175.42C155.411 183.472 148.883 190 140.831 190H55.9171C47.8648 190 41.3371 183.472 41.3371 175.42C41.3371 163.093 51.3301 153.1 63.6571 153.1Z" fill="url(#paint4_linear_263_608)"/>
<path fill-rule="evenodd" clip-rule="evenodd" d="M61.0399 82.5596L90.6297 33.3505C91.2525 32.3277 92.1294 31.4821 93.1758 30.8952C94.2222 30.3083 95.4028 30 96.6036 30C97.8044 30 98.985 30.3083 100.031 30.8952C101.078 31.4821 101.955 32.3277 102.577 33.3505L132.167 82.5596C132.777 83.6121 133.1 84.8053 133.104 86.0207C133.107 87.236 132.791 88.431 132.187 89.4869C131.583 90.5428 130.711 91.4226 129.66 92.039C128.608 92.6553 127.413 92.9866 126.193 93H67.0138C65.7938 92.9866 64.5987 92.6553 63.5472 92.039C62.4957 91.4226 61.6246 90.5428 61.0204 89.4869C60.4163 88.431 60.1002 87.236 60.1036 86.0207C60.107 84.8053 60.4298 83.6121 61.0399 82.5596ZM101.093 53.7637C101.093 51.2398 99.0839 49.1938 96.606 49.1938C94.128 49.1938 92.1192 51.2398 92.1192 53.7637V64.7869C92.1192 67.3108 94.128 69.3568 96.606 69.3568C99.0839 69.3568 101.093 67.3108 101.093 64.7869V53.7637ZM96.606 73.054C94.128 73.054 92.1192 75.1 92.1192 77.6239C92.1192 80.1478 94.128 82.1938 96.606 82.1938H96.6325C99.1104 82.1938 101.119 80.1478 101.119 77.6239C101.119 75.1 99.1104 73.054 96.6325 73.054H96.606Z" fill="url(#paint5_linear_263_608)"/>
<defs>
<linearGradient id="paint0_linear_263_608" x1="-9.5576" y1="-17.4357" x2="256.591" y2="132.403" gradientUnits="userSpaceOnUse">
<stop stop-color="#A385FC"/>
<stop offset="0.47" stop-color="white"/>
<stop offset="1" stop-color="#9B7BFB"/>
</linearGradient>
<linearGradient id="paint1_linear_263_608" x1="-9.5576" y1="-17.4357" x2="256.591" y2="132.403" gradientUnits="userSpaceOnUse">
<stop stop-color="#A385FC"/>
<stop offset="0.47" stop-color="white"/>
<stop offset="1" stop-color="#9B7BFB"/>
</linearGradient>
<linearGradient id="paint2_linear_263_608" x1="-9.5576" y1="-17.4357" x2="256.591" y2="132.403" gradientUnits="userSpaceOnUse">
<stop stop-color="#A385FC"/>
<stop offset="0.47" stop-color="white"/>
<stop offset="1" stop-color="#9B7BFB"/>
</linearGradient>
<linearGradient id="paint3_linear_263_608" x1="-9.5576" y1="-17.4357" x2="256.591" y2="132.403" gradientUnits="userSpaceOnUse">
<stop stop-color="#A385FC"/>
<stop offset="0.47" stop-color="white"/>
<stop offset="1" stop-color="#9B7BFB"/>
</linearGradient>
<linearGradient id="paint4_linear_263_608" x1="-9.5576" y1="-17.4357" x2="256.591" y2="132.403" gradientUnits="userSpaceOnUse">
<stop stop-color="#A385FC"/>
<stop offset="0.47" stop-color="white"/>
<stop offset="1" stop-color="#9B7BFB"/>
</linearGradient>
<linearGradient id="paint5_linear_263_608" x1="-9.5576" y1="-17.4357" x2="256.591" y2="132.403" gradientUnits="userSpaceOnUse">
<stop stop-color="#A385FC"/>
<stop offset="0.47" stop-color="white"/>
<stop offset="1" stop-color="#9B7BFB"/>
</linearGradient>
</defs>
</svg>
