<svg width="231" height="172" viewBox="0 0 231 172" fill="none" xmlns="http://www.w3.org/2000/svg">
<path fill-rule="evenodd" clip-rule="evenodd" d="M14.5173 20.9173C14.5173 8.97597 24.77 0 36.5173 0H194.517C206.265 0 216.517 8.97597 216.517 20.9173V115.083C216.517 120.493 214.413 125.295 211.018 128.928C215.12 131.816 218.619 135.829 221.258 140.579L228.81 154.172C233.254 162.171 227.47 172 218.32 172L12.7143 172C3.56445 172 -2.21914 162.171 2.2244 154.172L9.77647 140.579C12.4151 135.829 15.9142 131.816 20.0165 128.928C16.6219 125.294 14.5173 120.493 14.5173 115.083V20.9173ZM204.517 115.083C204.517 119.619 200.443 124 194.517 124H36.5173C30.5916 124 26.5173 119.619 26.5173 115.083V20.9173C26.5173 16.3814 30.5916 12 36.5173 12H194.517C200.443 12 204.517 16.3814 204.517 20.9173V115.083ZM35.1103 136H36.5173H194.517L195.924 136C201.142 136 206.829 139.316 210.768 146.406L218.32 160L12.7143 160L20.2664 146.406C24.2052 139.316 29.8928 136 35.1103 136ZM89.3994 144C87.6777 144 86.1491 145.102 85.6047 146.735L84.2713 150.735C83.408 153.325 85.3358 156 88.0661 156H142.967C145.697 156 147.625 153.325 146.761 150.735L145.428 146.735C144.884 145.102 143.355 144 141.633 144H89.3994Z" fill="white"/>
</svg>
