<svg width="109" height="172" viewBox="0 0 109 172" fill="none" xmlns="http://www.w3.org/2000/svg">
<path fill-rule="evenodd" clip-rule="evenodd" d="M22.3374 0C10.1871 0 0.337402 9.84974 0.337402 22V150C0.337402 162.15 10.1871 172 22.3374 172H86.3374C98.4877 172 108.337 162.15 108.337 150V22C108.337 9.84974 98.4877 0 86.3374 0H22.3374ZM12.3374 22C12.3374 16.4772 16.8146 12 22.3374 12H27.3374V13C27.3374 17.4183 30.9191 21 35.3374 21H73.3374C77.7557 21 81.3374 17.4183 81.3374 13V12H86.3374C91.8603 12 96.3374 16.4772 96.3374 22V150C96.3374 155.523 91.8603 160 86.3374 160H22.3374C16.8146 160 12.3374 155.523 12.3374 150V22Z" fill="white"/>
</svg>
