<svg xmlns="http://www.w3.org/2000/svg" xmlns:xlink="http://www.w3.org/1999/xlink" width="50" zoomAndPan="magnify" viewBox="0 0 37.5 37.499999" height="50" preserveAspectRatio="xMidYMid meet" version="1.0"><defs><clipPath id="d3ada77790"><path d="M 0 0.667969 L 36.265625 0.667969 L 36.265625 36.933594 L 0 36.933594 Z M 0 0.667969 " clip-rule="nonzero"/></clipPath></defs><g clip-path="url(#d3ada77790)"><path fill="#ffffff" d="M 36.335938 37 L 29.070312 37 L 29.070312 24.285156 C 29.070312 20.796875 27.53125 18.851562 24.769531 18.851562 C 21.765625 18.851562 19.984375 20.878906 19.984375 24.285156 L 19.984375 37 L 12.71875 37 L 12.71875 13.382812 L 19.984375 13.382812 L 19.984375 16.039062 C 19.984375 16.039062 22.265625 12.039062 27.402344 12.039062 C 32.542969 12.039062 36.335938 15.175781 36.335938 21.664062 Z M 4.4375 9.605469 C 1.984375 9.605469 0 7.605469 0 5.136719 C 0 2.667969 1.984375 0.667969 4.4375 0.667969 C 6.886719 0.667969 8.871094 2.667969 8.871094 5.136719 C 8.875 7.605469 6.886719 9.605469 4.4375 9.605469 Z M 0 37 L 9.082031 37 L 9.082031 13.382812 L 0 13.382812 Z M 0 37 " fill-opacity="1" fill-rule="evenodd"/></g></svg>