<?xml version="1.0" encoding="UTF-8"?>
<svg id="Layer_1" data-name="Layer 1" xmlns="http://www.w3.org/2000/svg" xmlns:xlink="http://www.w3.org/1999/xlink" viewBox="0 0 31.54 33.97">
  <defs>
    <style>
      .cls-1 {
        fill: none;
      }

      .cls-2 {
        fill: #af92f8;
      }

      .cls-3 {
        clip-path: url(#clippath);
      }
    </style>
    <clipPath id="clippath">
      <rect class="cls-1" x="3.98" y="16.87" width="12" height="17.1"/>
    </clipPath>
  </defs>
  <path class="cls-2" d="M14.61,18.47H3.84c-.42,0-.77-.35-.77-.77V5.39c0-.43.34-.77.77-.77h10.77c.43,0,.77.34.77.77v12.31c0,.42-.34.77-.77.77ZM4.61,16.92h9.23V6.15H4.61v10.77Z"/>
  <path class="cls-2" d="M30.77,23.02h-3.08c-.42,0-.77-.34-.77-.77V.77C26.92.35,27.27,0,27.69,0h3.08c.43,0,.77.34.77.77v21.48c0,.43-.34.77-.77.77ZM28.46,21.48h1.54V1.54h-1.54v19.94Z"/>
  <path class="cls-2" d="M3.84,17.32c-2.23,0-3.84-1.76-3.84-4.19v-3.49c0-2.43,1.61-4.19,3.84-4.19.43,0,.77.34.77.77v10.33c0,.43-.34.77-.77.77ZM3.08,7.12c-1.05.36-1.54,1.48-1.54,2.53v3.49c0,1.05.49,2.16,1.54,2.53V7.12Z"/>
  <g class="cls-3">
    <path class="cls-2" d="M11.96,33.85c-1.48,0-2.78-1.01-3.15-2.44l-3.51-13.53c-.06-.23-.01-.47.14-.66.15-.19.37-.3.61-.3h5.13c.35,0,.66.24.74.58l3.18,12.28c.26.98.04,2.01-.58,2.8-.62.8-1.56,1.27-2.57,1.27ZM7.05,18.47l3.26,12.56c.2.76.88,1.28,1.66,1.28.53,0,1.03-.24,1.35-.66.32-.42.44-.96.3-1.48l-3.04-11.7h-3.54Z"/>
  </g>
  <path class="cls-2" d="M14.44,6.15c-.32,0-.61-.2-.72-.52-.14-.4.07-.84.47-.98L27.44.04c.4-.14.84.07.98.47s-.07.84-.47.98l-13.25,4.61c-.08.03-.17.04-.26.04Z"/>
  <path class="cls-2" d="M27.69,23.02c-.08,0-.17-.02-.25-.04l-13.25-4.56c-.4-.14-.61-.58-.47-.98.14-.4.57-.61.97-.48l13.25,4.56c.4.14.61.57.48.97-.11.32-.41.52-.73.52Z"/>
  <path class="cls-2" d="M11.54,9.23h-4.61c-.42,0-.77-.34-.77-.77s.35-.77.77-.77h4.61c.43,0,.77.34.77.77s-.34.77-.77.77Z"/>
  <path class="cls-2" d="M11.54,12.31h-4.61c-.42,0-.77-.34-.77-.77s.35-.77.77-.77h4.61c.43,0,.77.34.77.77s-.34.77-.77.77Z"/>
  <path class="cls-2" d="M11.54,15.39h-4.61c-.42,0-.77-.34-.77-.77s.35-.77.77-.77h4.61c.43,0,.77.35.77.77s-.34.77-.77.77Z"/>
</svg>