<?xml version="1.0" encoding="UTF-8"?>
<svg id="Layer_1" data-name="Layer 1" xmlns="http://www.w3.org/2000/svg" xmlns:xlink="http://www.w3.org/1999/xlink" viewBox="0 0 361.76 531.2">
  <defs>
    <style>
      .cls-1, .cls-2 {
        fill: #f47114;
      }

      .cls-2, .cls-3 {
        fill-rule: evenodd;
      }

      .cls-3 {
        fill: url(#linear-gradient);
      }
    </style>
    <linearGradient id="linear-gradient" x1=".11" y1="398.74" x2="376.32" y2="672.31" gradientTransform="translate(0 -440)" gradientUnits="userSpaceOnUse">
      <stop offset="0" stop-color="#f47114"/>
      <stop offset=".5" stop-color="#d12c31"/>
      <stop offset="1" stop-color="#f47114"/>
    </linearGradient>
  </defs>
  <path class="cls-1" d="M186.69,509.48c-.1-1.09-.54-1.94-1.32-2.54-.77-.61-1.88-.92-3.32-.92-.95,0-1.74.12-2.38.37s-1.11.59-1.43,1.03c-.32.43-.48.92-.49,1.47-.02.46.07.86.27,1.21.21.35.51.65.89.92.4.26.87.49,1.43.68.56.2,1.18.37,1.87.52l2.62.6c1.51.33,2.84.76,3.99,1.31,1.16.55,2.13,1.2,2.91,1.95.79.75,1.39,1.62,1.8,2.6s.62,2.08.62,3.3c0,1.92-.5,3.58-1.46,4.95-.96,1.38-2.35,2.43-4.15,3.17-1.79.73-3.96,1.1-6.5,1.1s-4.77-.38-6.66-1.15c-1.89-.76-3.37-1.92-4.42-3.48s-1.59-3.53-1.62-5.9h7.05c.06.98.32,1.8.79,2.45.47.65,1.11,1.15,1.92,1.49.82.34,1.77.51,2.86.51.99,0,1.83-.13,2.53-.4s1.24-.64,1.62-1.11c.38-.48.57-1.02.58-1.64,0-.58-.19-1.07-.54-1.47-.35-.42-.88-.77-1.61-1.07-.71-.31-1.63-.59-2.74-.85l-3.18-.74c-2.64-.6-4.72-1.58-6.23-2.93-1.52-1.36-2.27-3.19-2.26-5.5,0-1.88.5-3.54,1.52-4.95,1.02-1.42,2.43-2.52,4.24-3.32,1.8-.79,3.86-1.19,6.17-1.19s4.41.4,6.14,1.21c1.74.79,3.1,1.91,4.06,3.35.96,1.44,1.45,3.1,1.47,5h-7.05v-.03Z"/>
  <path class="cls-1" d="M150.89,530.81h-11.26v-30.46h11.24c3.1,0,5.78.61,8.02,1.83,2.25,1.21,3.99,2.95,5.21,5.24,1.22,2.27,1.83,4.99,1.83,8.15s-.61,5.9-1.83,8.18c-1.21,2.28-2.94,4.03-5.19,5.25-2.25,1.21-4.92,1.82-8.02,1.82h0ZM146.99,524.53h3.62c1.71,0,3.15-.29,4.33-.86,1.19-.58,2.09-1.53,2.69-2.84.61-1.32.92-3.07.92-5.27s-.31-3.94-.92-5.23c-.61-1.31-1.52-2.25-2.72-2.83-1.19-.58-2.66-.88-4.4-.88h-3.51v17.91h-.01Z"/>
  <path class="cls-1" d="M111.9,530.81v-30.46h12.58c2.28,0,4.25.41,5.9,1.23,1.67.81,2.95,1.98,3.85,3.51.9,1.52,1.35,3.32,1.35,5.4s-.46,3.91-1.38,5.38c-.92,1.47-2.23,2.59-3.93,3.36-1.7.76-3.7,1.15-6.02,1.15h-7.96v-5.8h6.59c1.11,0,2.04-.14,2.78-.43.75-.3,1.32-.74,1.71-1.34.39-.61.58-1.38.58-2.32s-.19-1.72-.58-2.34c-.39-.62-.96-1.09-1.71-1.4-.75-.32-1.68-.48-2.78-.48h-3.63v24.53h-7.36.01ZM129.05,516.89l7.59,13.92h-8.03l-7.44-13.92h7.88Z"/>
  <path class="cls-1" d="M86.17,530.81h-7.91l10.28-30.46h9.8l10.28,30.46h-7.91l-7.15-22.79h-.24l-7.14,22.79h0ZM85.11,518.82h16.54v5.59h-16.54v-5.59Z"/>
  <path class="cls-1" d="M45.61,530.81l-8.87-30.46h8.14l4.6,19.96h.25l5.25-19.96h6.63l5.25,20.01h.25l4.61-20.01h8.12l-8.85,30.46h-7.1l-5.49-18.47h-.24l-5.49,18.47h-7.08.02Z"/>
  <path class="cls-1" d="M15.9,530.81h-7.91l10.28-30.46h9.8l10.28,30.46h-7.91l-7.15-22.79h-.24l-7.14,22.79h0ZM14.84,518.82h16.54v5.59H14.84v-5.59Z"/>
  <path class="cls-1" d="M261.84,488.81v-30.46h17.67v2.5h-14.89v11.47h13.95v2.5h-13.95v11.5h15.19v2.5h-17.97Z"/>
  <path class="cls-1" d="M255.3,467.87h-2.8c-.21-1.04-.58-2-1.13-2.89-.54-.89-1.21-1.67-2.02-2.34-.81-.66-1.74-1.18-2.77-1.55s-2.15-.55-3.35-.55c-1.92,0-3.68.5-5.27,1.5-1.58,1-2.84,2.48-3.79,4.42-.94,1.93-1.41,4.3-1.41,7.11s.47,5.21,1.41,7.14c.95,1.93,2.22,3.4,3.79,4.4,1.59.99,3.34,1.49,5.27,1.49,1.2,0,2.32-.18,3.35-.55s1.95-.88,2.77-1.53c.81-.66,1.49-1.44,2.02-2.34.55-.89.92-1.86,1.13-2.9h2.8c-.25,1.4-.71,2.7-1.4,3.91-.67,1.2-1.54,2.25-2.59,3.15-1.04.9-2.24,1.61-3.6,2.11-1.36.51-2.85.76-4.48.76-2.56,0-4.83-.64-6.81-1.92-1.98-1.29-3.54-3.1-4.67-5.44-1.12-2.34-1.68-5.1-1.68-8.29s.56-5.95,1.68-8.29c1.13-2.34,2.69-4.15,4.67-5.43,1.98-1.29,4.26-1.93,6.81-1.93,1.63,0,3.12.25,4.48.76,1.36.5,2.56,1.2,3.6,2.11,1.05.9,1.91,1.95,2.59,3.15.68,1.2,1.15,2.5,1.4,3.91v.03Z"/>
  <path class="cls-1" d="M223.35,458.35v30.46h-2.71l-18-25.51h-.24v25.51h-2.78v-30.46h2.69l18.06,25.54h.24v-25.54h2.74Z"/>
  <path class="cls-1" d="M174.75,488.81v-30.46h17.67v2.5h-14.89v11.47h13.95v2.5h-13.95v11.5h15.19v2.5h-17.97Z"/>
  <path class="cls-1" d="M151.19,488.81v-30.46h2.78v27.96h14.52v2.5h-17.3Z"/>
  <path class="cls-1" d="M127.63,488.81v-30.46h2.78v27.96h14.52v2.5h-17.3Z"/>
  <path class="cls-1" d="M102.76,488.81v-30.46h17.67v2.5h-14.89v11.47h13.95v2.5h-13.95v11.5h15.19v2.5h-17.97Z"/>
  <path class="cls-1" d="M96.22,467.87h-2.8c-.21-1.04-.58-2-1.13-2.89-.53-.89-1.21-1.67-2.02-2.34-.81-.66-1.74-1.18-2.77-1.55s-2.15-.55-3.35-.55c-1.92,0-3.68.5-5.27,1.5-1.58,1-2.84,2.48-3.79,4.42-.94,1.93-1.41,4.3-1.41,7.11s.47,5.21,1.41,7.14c.95,1.93,2.22,3.4,3.79,4.4,1.59.99,3.34,1.49,5.27,1.49,1.2,0,2.32-.18,3.35-.55s1.95-.88,2.77-1.53c.81-.66,1.49-1.44,2.02-2.34.55-.89.92-1.86,1.13-2.9h2.8c-.25,1.4-.71,2.7-1.4,3.91-.67,1.2-1.54,2.25-2.59,3.15-1.04.9-2.24,1.61-3.6,2.11-1.36.51-2.85.76-4.48.76-2.56,0-4.83-.64-6.81-1.92-1.98-1.29-3.54-3.1-4.67-5.44-1.12-2.34-1.68-5.1-1.68-8.29s.56-5.95,1.68-8.29c1.13-2.34,2.69-4.15,4.67-5.43,1.98-1.29,4.25-1.93,6.81-1.93,1.63,0,3.12.25,4.48.76,1.36.5,2.56,1.2,3.6,2.11,1.05.9,1.91,1.95,2.59,3.15.68,1.2,1.15,2.5,1.4,3.91v.03Z"/>
  <path class="cls-1" d="M47.15,458.35l5.56,9.62h.24l5.62-9.62h8.24l-9.19,15.23,9.49,15.23h-8.45l-5.71-9.73h-.24l-5.71,9.73h-8.39l9.45-15.23-9.21-15.23h8.3Z"/>
  <path class="cls-1" d="M27.74,458.35h7.35v19.65c0,2.27-.54,4.25-1.62,5.94-1.08,1.68-2.59,2.97-4.52,3.9-1.93.91-4.18,1.37-6.74,1.37s-4.85-.46-6.78-1.37c-1.93-.92-3.44-2.22-4.51-3.9-1.07-1.69-1.61-3.66-1.61-5.94v-19.65h7.36v19.01c0,1.05.23,1.99.68,2.81.47.82,1.12,1.47,1.95,1.93s1.8.7,2.9.7,2.06-.23,2.89-.7c.83-.47,1.48-1.11,1.95-1.93s.7-1.76.7-2.81v-19.01h0Z"/>
  <path class="cls-1" d="M120.55,446.81v-30.46h9.83c2.16,0,3.97.39,5.41,1.18,1.46.77,2.55,1.85,3.29,3.23.74,1.37,1.12,2.94,1.12,4.71s-.37,3.34-1.12,4.7c-.73,1.36-1.82,2.42-3.27,3.18-1.45.76-3.24,1.15-5.38,1.15h-8.38v-2.54h8.3c1.59,0,2.91-.26,3.96-.79,1.06-.53,1.85-1.27,2.36-2.25.53-.97.79-2.12.79-3.45s-.26-2.49-.79-3.48c-.53-1-1.32-1.77-2.38-2.32-1.05-.55-2.38-.82-3.99-.82h-6.98v27.96h-2.78.01ZM133.98,433.07l7.5,13.74h-3.21l-7.42-13.74h3.14,0Z"/>
  <path class="cls-1" d="M95.68,446.81v-30.46h17.67v2.5h-14.89v11.47h13.95v2.5h-13.95v11.5h15.19v2.5h-17.97Z"/>
  <path class="cls-1" d="M68.56,446.81v-30.46h10.28c1.98,0,3.64.35,4.95,1.04,1.33.69,2.32,1.64,2.99,2.84.67,1.2,1,2.56,1,4.09,0,1.27-.21,2.35-.64,3.26-.43.9-1.01,1.63-1.74,2.19-.73.55-1.55.96-2.45,1.2v.24c.98.07,1.93.42,2.86,1.04.92.62,1.68,1.48,2.27,2.59s.89,2.44.89,3.99-.34,2.91-1.03,4.12c-.69,1.2-1.74,2.15-3.15,2.84-1.41.68-3.2,1.03-5.39,1.03h-10.84ZM71.34,444.31h8.06c2.35,0,4.09-.52,5.21-1.56,1.13-1.04,1.69-2.35,1.69-3.93,0-1.16-.28-2.21-.85-3.15-.56-.95-1.34-1.71-2.37-2.26-1.01-.55-2.2-.83-3.57-.83h-8.18v11.74h.01ZM71.34,430.11h7.75c1.2,0,2.25-.25,3.15-.74.9-.5,1.61-1.18,2.11-2.05.51-.87.76-1.87.76-2.99,0-1.62-.53-2.93-1.58-3.94-1.05-1.02-2.62-1.53-4.7-1.53h-7.5v11.26h0Z"/>
  <path class="cls-1" d="M38.58,416.35h3.21l9.03,14.46h.27l9.03-14.46h3.21l-10.99,17.27v13.19h-2.77v-13.19l-10.99-17.27Z"/>
  <path class="cls-1" d="M34.9,425.87h-2.8c-.21-1.04-.59-2-1.13-2.89s-1.21-1.67-2.02-2.34c-.81-.66-1.74-1.18-2.77-1.55s-2.15-.55-3.35-.55c-1.92,0-3.68.5-5.27,1.5-1.58,1-2.84,2.48-3.79,4.42-.94,1.93-1.41,4.3-1.41,7.11s.47,5.21,1.41,7.14c.95,1.93,2.22,3.4,3.79,4.4,1.59.99,3.34,1.49,5.27,1.49,1.2,0,2.32-.18,3.35-.55s1.95-.88,2.77-1.53c.81-.66,1.49-1.44,2.02-2.33.55-.89.92-1.86,1.13-2.9h2.8c-.25,1.4-.71,2.7-1.4,3.91-.67,1.2-1.54,2.25-2.59,3.15-1.04.9-2.24,1.61-3.6,2.11-1.36.51-2.85.76-4.48.76-2.56,0-4.83-.64-6.81-1.92-1.98-1.29-3.54-3.1-4.67-5.44-1.12-2.34-1.68-5.1-1.68-8.29s.56-5.95,1.68-8.29c1.13-2.34,2.69-4.15,4.67-5.43,1.98-1.29,4.25-1.93,6.81-1.93,1.63,0,3.12.25,4.48.76,1.36.5,2.56,1.2,3.6,2.11,1.05.9,1.91,1.95,2.59,3.15.68,1.2,1.15,2.5,1.4,3.91v.02Z"/>
  <path class="cls-2" d="M181.25,196l57.02,85.4-71.58,97.54h57.5l42.94-59.69,36.64,59.69h57.99l-68.18-97.54,60.41-85.4h-58.72l-30.57,47.31-24.75-47.31h-58.72.02ZM52.56,295.67v-99.48H5v106.03c0,28.47,6.55,49.25,19.65,62.36,13.1,13.1,33.16,19.65,60.17,19.65s46.99-6.55,59.93-19.65c13.1-13.1,19.65-33.89,19.65-62.36v-106.03h-47.31v99.48c0,5.34-.24,10.84-.73,16.5-.32,5.5-1.54,10.51-3.64,15.04s-5.34,8.25-9.71,11.16c-4.21,2.75-10.27,4.12-18.2,4.12s-14.07-1.37-18.44-4.12c-4.37-2.91-7.6-6.63-9.71-11.16-1.94-4.53-3.15-9.54-3.64-15.04-.32-5.66-.49-11.16-.49-16.5h.03Z"/>
  <path class="cls-3" d="M35.82,0C24.07,0,13.82,8.98,13.82,20.92v94.17c0,5.41,2.1,10.21,5.5,13.85-4.1,2.89-7.6,6.9-10.24,11.65l-7.55,13.59c-4.44,8,1.34,17.83,10.49,17.83h205.61c9.15,0,14.93-9.83,10.49-17.83l-7.55-13.59c-2.64-4.75-6.14-8.76-10.24-11.65,3.4-3.63,5.5-8.43,5.5-13.85V20.92c0-11.94-10.25-20.92-22-20.92,0,0-158.01,0-158.01,0ZM193.82,124c5.93,0,10-4.38,10-8.92V20.92c0-4.54-4.07-8.92-10-8.92H35.82c-5.93,0-10,4.38-10,8.92v94.17c0,4.54,4.07,8.92,10,8.92h158ZM35.82,136h-1.41c-5.22,0-10.91,3.32-14.84,10.41l-7.55,13.59h205.61l-7.55-13.59c-3.94-7.09-9.63-10.41-14.84-10.41H35.82ZM84.91,146.74c.54-1.63,2.07-2.74,3.79-2.74h52.23c1.72,0,3.25,1.1,3.79,2.74l1.33,4c.86,2.59-1.06,5.26-3.79,5.26h-54.9c-2.73,0-4.66-2.68-3.8-5.26l1.33-4h.02ZM249,22C249,9.85,258.85,0,271,0h64C347.15,0,357,9.85,357,22v128c0,12.15-9.85,22-22,22h-64c-12.15,0-22-9.85-22-22V22ZM271,12c-5.52,0-10,4.48-10,10v128c0,5.52,4.48,10,10,10h64c5.52,0,10-4.48,10-10V22c0-5.52-4.48-10-10-10h-5v1c0,4.42-3.58,8-8,8h-38c-4.42,0-8-3.58-8-8v-1h-5Z"/>
</svg>