<svg width="150" height="181" viewBox="0 0 150 181" fill="none" xmlns="http://www.w3.org/2000/svg">
<path fill-rule="evenodd" clip-rule="evenodd" d="M49.1085 59.4027C51.2142 60.7227 51.8511 63.4999 50.5311 65.6056C46.8164 71.5312 45.2999 78.6156 46.2637 85.5843C47.2273 92.5525 50.6049 98.9305 55.7726 103.579C60.9387 108.227 67.5563 110.844 74.4352 110.976C81.3139 111.109 88.0233 108.749 93.3581 104.305C98.6944 99.8605 102.308 93.6187 103.531 86.6934C104.755 79.7674 103.505 72.6289 100.014 66.5629C98.7739 64.4089 99.5151 61.6578 101.669 60.4181C103.823 59.1784 106.574 59.9195 107.814 62.0736C112.363 69.9773 113.984 79.2603 112.394 88.2592C110.804 97.2588 106.103 105.402 99.1182 111.221C92.1316 117.04 83.3189 120.149 74.2617 119.975C65.2045 119.8 56.5158 116.354 49.7534 110.27C42.9926 104.188 38.6006 95.8709 37.3485 86.8172C36.0965 77.764 38.0634 68.5495 42.9056 60.8253C44.2256 58.7195 47.0028 58.0826 49.1085 59.4027Z" fill="#2C215A"/>
<path fill-rule="evenodd" clip-rule="evenodd" d="M54.707 52.1057C55.6125 51.226 56.1489 50.4977 56.3702 50.1144C56.5916 49.731 56.954 48.9024 57.2631 47.6784C57.4031 47.1239 57.516 46.5519 57.5988 45.9835C57.1479 46.3394 56.7089 46.7232 56.2988 47.1216C55.3933 48.0013 54.8569 48.7295 54.6356 49.1129C54.4143 49.4962 54.0518 50.3249 53.7427 51.5489C53.6027 52.1033 53.4898 52.6754 53.407 53.2438C53.8579 52.8879 54.2969 52.5041 54.707 52.1057ZM49.9022 55.2078C49.9022 55.2077 49.9044 55.2074 49.9086 55.2068C49.9043 55.2075 49.9022 55.2078 49.9022 55.2078ZM53.4563 57.2553C53.4579 57.2591 53.4586 57.2611 53.4586 57.2611C53.4586 57.2611 53.4578 57.2592 53.4563 57.2553ZM61.1037 44.0195C61.1036 44.0195 61.1016 44.0199 61.0975 44.0204C61.1017 44.0197 61.1037 44.0195 61.1037 44.0195ZM57.5495 41.972C57.5479 41.9682 57.5472 41.9662 57.5472 41.9662C57.5472 41.9662 57.548 41.968 57.5495 41.972ZM47.462 63.541C52.2456 66.3028 61.2039 59.7423 64.1645 54.6144C67.1251 49.4865 68.3275 38.4481 63.5439 35.6863C58.7602 32.9245 49.802 39.485 46.8414 44.6129C43.8808 49.7408 42.6783 60.7791 47.462 63.541Z" fill="#2C215A"/>
<path fill-rule="evenodd" clip-rule="evenodd" d="M34.6555 66.2693C34.3264 65.0505 33.9505 64.2279 33.7229 63.8482C33.4954 63.4686 32.9472 62.7492 32.0274 61.8844C31.6108 61.4927 31.1656 61.1161 30.709 60.7676C30.801 61.3346 30.9233 61.9048 31.0723 62.4568C31.4014 63.6757 31.7773 64.4983 32.0049 64.8779C32.2324 65.2576 32.7806 65.977 33.7004 66.8418C34.117 67.2335 34.5621 67.6101 35.0188 67.9586C34.9267 67.3915 34.8045 66.8214 34.6555 66.2693ZM35.0328 71.9761C35.0328 71.9761 35.0335 71.974 35.0351 71.97C35.0336 71.9742 35.0328 71.9762 35.0328 71.9761ZM38.5491 69.8642C38.5531 69.8647 38.5552 69.865 38.5552 69.865C38.5553 69.865 38.5532 69.8648 38.5491 69.8642ZM30.695 56.75C30.695 56.7501 30.6943 56.7521 30.6928 56.7559C30.6942 56.7519 30.695 56.75 30.695 56.75ZM27.1787 58.862C27.1746 58.8615 27.1726 58.8612 27.1725 58.8612C27.1725 58.8611 27.1745 58.8614 27.1787 58.862ZM41.1312 78.1573C45.8691 75.3177 44.4866 64.3004 41.4426 59.2215C38.3987 54.1427 29.3345 47.7293 24.5966 50.5689C19.8587 53.4085 21.2412 64.4257 24.2852 69.5046C27.3291 74.5835 36.3933 80.9968 41.1312 78.1573Z" fill="#2C215A"/>
<path fill-rule="evenodd" clip-rule="evenodd" d="M34.3033 92.2561C33.2509 91.5587 32.4251 91.1898 32.0034 91.0552C31.5817 90.9206 30.6949 90.7429 29.4331 90.7017C28.8616 90.683 28.2786 90.6945 27.7056 90.7347C28.1494 91.0995 28.6179 91.4466 29.0946 91.7625C30.1469 92.4598 30.9727 92.8288 31.3944 92.9633C31.8161 93.0979 32.7029 93.2756 33.9647 93.3168C34.5362 93.3355 35.1192 93.324 35.6922 93.2838C35.2484 92.9191 34.78 92.5719 34.3033 92.2561ZM38.3577 96.2899C38.3576 96.2898 38.3568 96.2878 38.3554 96.2838C38.357 96.2879 38.3577 96.2899 38.3577 96.2899ZM39.6011 92.3811C39.6045 92.3788 39.6063 92.3777 39.6063 92.3777C39.6063 92.3777 39.6047 92.3788 39.6011 92.3811ZM25.0402 87.7287C25.0402 87.7287 25.041 87.7306 25.0424 87.7345C25.0408 87.7306 25.0401 87.7286 25.0402 87.7287ZM23.7967 91.6374C23.7933 91.6397 23.7916 91.6409 23.7915 91.6408C23.7915 91.6408 23.7932 91.6397 23.7967 91.6374ZM47.0194 96.899C48.6989 91.6369 40.3808 84.2816 34.7399 82.4813C29.0991 80.6809 18.0579 81.8573 16.3784 87.1195C14.6989 92.3816 23.0171 99.7369 28.6579 101.537C34.2988 103.338 45.3399 102.161 47.0194 96.899Z" fill="#2C215A"/>
<path fill-rule="evenodd" clip-rule="evenodd" d="M51.2588 118.645C50.0059 118.8 49.1389 119.058 48.7311 119.23C48.3234 119.402 47.5345 119.845 46.5497 120.635C46.1037 120.992 45.6686 121.381 45.2598 121.784C45.8341 121.772 46.4157 121.731 46.9832 121.66C48.236 121.505 49.1031 121.247 49.5108 121.075C49.9185 120.903 50.7074 120.46 51.6922 119.67C52.1382 119.313 52.5733 118.924 52.9821 118.521C52.4078 118.533 51.8262 118.574 51.2588 118.645ZM56.9623 119.068C56.9623 119.068 56.9603 119.067 56.9566 119.065C56.9605 119.067 56.9623 119.068 56.9623 119.068ZM55.3621 115.291C55.3632 115.287 55.3638 115.285 55.3638 115.285C55.3639 115.285 55.3633 115.287 55.3621 115.291ZM41.2796 121.237C41.2797 121.237 41.2815 121.238 41.2851 121.24C41.2814 121.238 41.2796 121.237 41.2796 121.237ZM42.8798 125.014C42.8787 125.018 42.8782 125.02 42.8781 125.02C42.8781 125.02 42.8786 125.018 42.8798 125.014ZM63.9345 113.893C61.7845 108.805 50.6821 108.635 45.2279 110.94C39.7737 113.245 32.1573 121.324 34.3074 126.412C36.4575 131.5 47.5598 131.67 53.014 129.365C58.4682 127.06 66.0846 118.981 63.9345 113.893Z" fill="#2C215A"/>
<path fill-rule="evenodd" clip-rule="evenodd" d="M96.5039 52.1057C95.5984 51.226 95.062 50.4977 94.8407 50.1144C94.6194 49.731 94.2569 48.9024 93.9478 47.6784C93.8078 47.1239 93.6949 46.5519 93.6121 45.9835C94.063 46.3394 94.502 46.7232 94.9121 47.1216C95.8176 48.0013 96.354 48.7295 96.5753 49.1129C96.7967 49.4962 97.1591 50.3249 97.4682 51.5489C97.6082 52.1033 97.7211 52.6754 97.8039 53.2438C97.353 52.8879 96.914 52.5041 96.5039 52.1057ZM101.309 55.2078C101.309 55.2077 101.307 55.2074 101.302 55.2068C101.307 55.2075 101.309 55.2078 101.309 55.2078ZM97.7546 57.2553C97.753 57.2591 97.7523 57.2611 97.7523 57.2611C97.7523 57.2611 97.7531 57.2592 97.7546 57.2553ZM90.1073 44.0195C90.1073 44.0195 90.1094 44.0199 90.1134 44.0204C90.1093 44.0197 90.1073 44.0195 90.1073 44.0195ZM93.6614 41.972C93.663 41.9682 93.6637 41.9662 93.6637 41.9662C93.6637 41.9662 93.6629 41.968 93.6614 41.972ZM103.749 63.541C98.9653 66.3028 90.0071 59.7423 87.0465 54.6144C84.0859 49.4865 82.8834 38.4481 87.6671 35.6863C92.4507 32.9245 101.409 39.485 104.37 44.6129C107.33 49.7408 108.533 60.7791 103.749 63.541Z" fill="#2C215A"/>
<path fill-rule="evenodd" clip-rule="evenodd" d="M116.555 66.2693C116.885 65.0505 117.26 64.2279 117.488 63.8482C117.716 63.4686 118.264 62.7492 119.184 61.8844C119.6 61.4927 120.045 61.1161 120.502 60.7676C120.41 61.3346 120.288 61.9048 120.139 62.4568C119.81 63.6757 119.434 64.4983 119.206 64.8779C118.979 65.2576 118.43 65.977 117.511 66.8418C117.094 67.2335 116.649 67.6101 116.192 67.9586C116.284 67.3915 116.406 66.8214 116.555 66.2693ZM116.178 71.9761C116.178 71.9761 116.177 71.974 116.176 71.97C116.177 71.9742 116.178 71.9762 116.178 71.9761ZM112.662 69.8642C112.658 69.8647 112.656 69.865 112.656 69.865C112.656 69.865 112.658 69.8648 112.662 69.8642ZM120.516 56.75C120.516 56.7501 120.517 56.7521 120.518 56.7559C120.517 56.7519 120.516 56.75 120.516 56.75ZM124.032 58.862C124.036 58.8615 124.038 58.8612 124.038 58.8612C124.038 58.8611 124.036 58.8614 124.032 58.862ZM110.08 78.1573C105.342 75.3177 106.724 64.3004 109.768 59.2215C112.812 54.1427 121.876 47.7293 126.614 50.5689C131.352 53.4085 129.97 64.4257 126.926 69.5046C123.882 74.5835 114.818 80.9968 110.08 78.1573Z" fill="#2C215A"/>
<path fill-rule="evenodd" clip-rule="evenodd" d="M116.908 92.2561C117.96 91.5587 118.786 91.1898 119.208 91.0552C119.629 90.9206 120.516 90.7429 121.778 90.7017C122.349 90.683 122.932 90.6945 123.505 90.7347C123.062 91.0995 122.593 91.4466 122.116 91.7625C121.064 92.4598 120.238 92.8288 119.817 92.9633C119.395 93.0979 118.508 93.2756 117.246 93.3168C116.675 93.3355 116.092 93.324 115.519 93.2838C115.962 92.9191 116.431 92.5719 116.908 92.2561ZM112.853 96.2899C112.853 96.2898 112.854 96.2878 112.856 96.2838C112.854 96.2879 112.853 96.2899 112.853 96.2899ZM111.61 92.3811C111.606 92.3788 111.605 92.3777 111.605 92.3777C111.605 92.3777 111.606 92.3788 111.61 92.3811ZM126.171 87.7287C126.171 87.7287 126.17 87.7306 126.169 87.7345C126.17 87.7306 126.171 87.7286 126.171 87.7287ZM127.414 91.6374C127.418 91.6397 127.419 91.6409 127.419 91.6408C127.419 91.6408 127.418 91.6397 127.414 91.6374ZM104.192 96.899C102.512 91.6369 110.83 84.2816 116.471 82.4813C122.112 80.6809 133.153 81.8573 134.833 87.1195C136.512 92.3816 128.194 99.7369 122.553 101.537C116.912 103.338 105.871 102.161 104.192 96.899Z" fill="#2C215A"/>
<path fill-rule="evenodd" clip-rule="evenodd" d="M99.9522 118.645C101.205 118.8 102.072 119.058 102.48 119.23C102.888 119.402 103.676 119.845 104.661 120.635C105.107 120.992 105.542 121.381 105.951 121.784C105.377 121.772 104.795 121.731 104.228 121.66C102.975 121.505 102.108 121.247 101.7 121.075C101.292 120.903 100.504 120.46 99.5188 119.67C99.0727 119.313 98.6376 118.924 98.2288 118.521C98.8031 118.533 99.3847 118.574 99.9522 118.645ZM94.2486 119.068C94.2487 119.068 94.2506 119.067 94.2543 119.065C94.2505 119.067 94.2486 119.068 94.2486 119.068ZM95.8488 115.291C95.8478 115.287 95.8472 115.285 95.8471 115.285C95.8471 115.285 95.8476 115.287 95.8488 115.291ZM109.931 121.237C109.931 121.237 109.929 121.238 109.926 121.24C109.93 121.238 109.931 121.237 109.931 121.237ZM108.331 125.014C108.332 125.018 108.333 125.02 108.333 125.02C108.333 125.02 108.332 125.018 108.331 125.014ZM87.2764 113.893C89.4265 108.805 100.529 108.635 105.983 110.94C111.437 113.245 119.054 121.324 116.904 126.412C114.753 131.5 103.651 131.67 98.1969 129.365C92.7427 127.06 85.1263 118.981 87.2764 113.893Z" fill="#2C215A"/>
<path fill-rule="evenodd" clip-rule="evenodd" d="M65.5716 1.67262C71.4849 -0.55754 78.0081 -0.557542 83.9214 1.67262L132.33 19.9298C142.454 23.748 149.156 33.4371 149.156 44.2572V90.6249C149.156 112.774 137.771 131.601 124.662 145.983C111.509 160.413 96.0579 170.998 86.6006 176.781C79.2811 181.256 70.2119 181.256 62.8924 176.781C53.4351 170.998 37.9841 160.413 24.8313 145.983C11.7223 131.601 0.337402 112.774 0.337402 90.6249V44.2571C0.337402 33.437 7.03848 23.748 17.1625 19.9298L65.5716 1.67262ZM79.6868 12.9006C76.5027 11.6998 72.9903 11.6998 69.8062 12.9006L21.3971 31.1578C15.9457 33.2137 12.3374 38.4309 12.3374 44.2571V90.6249C12.3374 108.543 21.576 124.598 33.7 137.899C45.7803 151.153 60.1717 161.052 69.152 166.543C72.6291 168.669 76.8639 168.669 80.3409 166.543C89.3213 161.052 103.713 151.153 115.793 137.899C127.917 124.598 137.156 108.543 137.156 90.6249V44.2572C137.156 38.4309 133.547 33.2137 128.096 31.1578L79.6868 12.9006Z" fill="#2C215A"/>
<path d="M75.8092 68.4995L80.2382 77.0768L90.1425 78.4606L82.9758 85.1334L84.6672 94.5601L75.8092 90.1071L66.9512 94.5601L68.6425 85.1334L61.4758 78.4606L71.3802 77.0768L75.8092 68.4995Z" fill="#2C215A"/>
<path fill-rule="evenodd" clip-rule="evenodd" d="M75.8091 63.9995C77.4925 63.9995 79.0351 64.9391 79.8075 66.4349L83.1677 72.9424L90.7651 74.0039C92.4843 74.2441 93.9121 75.4518 94.4341 77.1074C94.9561 78.763 94.4793 80.5712 93.2089 81.7541L87.8384 86.7544L89.0963 93.7654C89.3973 95.443 88.7247 97.1466 87.359 98.1662C85.9932 99.1857 84.1686 99.3462 82.6459 98.5807L75.8091 95.1437L68.9723 98.5807C67.4495 99.3462 65.6249 99.1857 64.2592 98.1662C62.8934 97.1466 62.2208 95.443 62.5218 93.7654L63.7797 86.7544L58.4093 81.7541C57.1388 80.5712 56.662 78.763 57.184 77.1074C57.7061 75.4518 59.1338 74.2441 60.853 74.0039L68.4504 72.9424L71.8107 66.4349C72.583 64.9391 74.1257 63.9995 75.8091 63.9995ZM75.8091 78.3075L75.3785 79.1414C74.7082 80.4394 73.4496 81.3313 72.0028 81.5335L71.461 81.6092L71.7089 81.8399C72.8285 82.8824 73.3418 84.4223 73.0717 85.9281L72.9694 86.498L73.7879 86.0865C75.0595 85.4473 76.5586 85.4473 77.8303 86.0865L78.6487 86.498L78.5465 85.9281C78.2763 84.4223 78.7896 82.8824 79.9093 81.8399L80.1571 81.6092L79.6154 81.5335C78.1686 81.3313 76.9099 80.4394 76.2397 79.1414L75.8091 78.3075Z" fill="#2C215A"/>
</svg>
