<svg width="193" height="190" viewBox="0 0 193 190" fill="none" xmlns="http://www.w3.org/2000/svg">
<path d="M90.0737 156.274V139.3C90.0737 135.986 92.76 133.3 96.0737 133.3C99.2839 133.3 101.905 135.821 102.066 138.991L102.074 139.3V156.274C102.074 159.587 99.3874 162.274 96.0737 162.274C92.76 162.274 90.0737 159.587 90.0737 156.274Z" fill="#2C215A"/>
<path d="M0 52.0706V39.9436C3.17171e-05 36.7138 1.30442 33.635 3.59473 31.3802C5.88186 29.1286 8.96452 27.8802 12.1592 27.8802H40.4004L40.709 27.888C43.8791 28.0488 46.4004 30.6701 46.4004 33.8802C46.4004 37.0902 43.8791 39.7115 40.709 39.8723L40.4004 39.8802H12.1592C12.0872 39.8802 12.0366 39.9094 12.0137 39.9319C12.0081 39.9374 12.0049 39.9418 12.0029 39.9446C12.0018 39.9464 12.0005 39.9475 12 39.9485V52.0706L12.0059 52.5218C12.123 57.1704 14.0492 61.6221 17.4248 64.9456C20.9127 68.3795 25.6634 70.3255 30.6357 70.3255H40.4004L40.709 70.3333C43.8791 70.4941 46.4004 73.1154 46.4004 76.3255C46.4003 79.5355 43.8791 82.1569 40.709 82.3177L40.4004 82.3255H30.6357C22.5406 82.3255 14.7581 79.1605 9.00586 73.4973C3.43022 68.008 0.205766 60.6046 0.00976562 52.8245L0 52.0706Z" fill="#2C215A"/>
<path d="M180.147 52.0706V39.9485C180.147 39.9475 180.146 39.9464 180.144 39.9446C180.142 39.9418 180.139 39.9374 180.134 39.9319C180.111 39.9094 180.06 39.8802 179.988 39.8802H152.2C148.886 39.8802 146.2 37.1939 146.2 33.8802C146.2 30.5665 148.886 27.8802 152.2 27.8802H179.988C183.183 27.8802 186.265 29.1286 188.553 31.3802C190.843 33.635 192.147 36.7138 192.147 39.9436V52.0706C192.147 60.125 188.897 67.831 183.141 73.4973C177.569 78.9836 170.091 82.1248 162.269 82.3157L161.512 82.3255H152.2C148.886 82.3255 146.2 79.6391 146.2 76.3255C146.2 73.0118 148.886 70.3255 152.2 70.3255H161.512L161.977 70.3196C166.78 70.2022 171.344 68.2722 174.722 64.9456C178.207 61.5148 180.147 56.8814 180.147 52.0706Z" fill="#2C215A"/>
<path d="M145.833 67.8467V16C145.833 13.7909 144.042 12 141.833 12H50.3138C48.1047 12 46.3138 13.7909 46.3138 16V68.7285L46.3177 69.543C46.3998 77.9588 47.7562 86.259 50.2982 93.9844C52.9225 101.96 56.7434 109.122 61.4896 115.083C66.2345 121.043 71.7877 125.658 77.7806 128.749C83.7648 131.835 90.1015 133.359 96.4417 133.298L97.055 133.287C122.953 132.608 145.833 104.656 145.833 67.8467ZM157.833 67.8467C157.833 108.569 131.899 144.959 96.557 145.297L96.5579 145.298C88.1817 145.379 79.9242 143.357 72.2796 139.414C64.6441 135.476 57.8027 129.718 52.1019 122.558C46.4022 115.399 41.9321 106.953 38.8988 97.7344C35.96 88.8027 34.4124 79.2748 34.3187 69.6592L34.3138 68.7285V16C34.3138 7.16346 41.4772 2.24224e-07 50.3138 0H141.833C150.67 0 157.833 7.16345 157.833 16V67.8467Z" fill="#2C215A"/>
<path d="M61.728 88V70C61.728 66.6863 64.4143 64 67.728 64C71.0417 64 73.728 66.6863 73.728 70V88C73.728 91.3137 71.0417 94 67.728 94C64.4143 94 61.728 91.3137 61.728 88Z" fill="#2C215A"/>
<path d="M81.6543 88.5V54.5C81.6543 51.1863 84.3406 48.5 87.6543 48.5C90.968 48.5 93.6543 51.1863 93.6543 54.5V88.5C93.6543 91.8137 90.968 94.5 87.6543 94.5C84.3406 94.5 81.6543 91.8137 81.6543 88.5Z" fill="#2C215A"/>
<path d="M100.728 88V61C100.728 57.6863 103.414 55 106.728 55C110.042 55 112.728 57.6863 112.728 61V88C112.728 91.3137 110.042 94 106.728 94C103.414 94 100.728 91.3137 100.728 88Z" fill="#2C215A"/>
<path d="M118.728 88V39C118.728 35.6863 121.414 33 124.728 33C128.042 33 130.728 35.6863 130.728 39V88C130.728 91.3137 128.042 94 124.728 94C121.414 94 118.728 91.3137 118.728 88Z" fill="#2C215A"/>
<path d="M63.5019 165.1L62.9706 165.114C57.5178 165.39 53.1815 169.899 53.1815 175.42C53.1817 176.756 54.197 177.855 55.4979 177.987L55.7616 178H140.676L140.939 177.987C142.153 177.863 143.119 176.898 143.242 175.684L143.255 175.42C143.255 169.899 138.919 165.39 133.467 165.114L132.935 165.1V153.1C145.262 153.1 155.255 163.093 155.255 175.42C155.255 183.472 148.728 190 140.676 190H55.7616C47.8351 190 41.386 183.675 41.1864 175.796L41.1815 175.42L41.1884 174.844C41.4938 162.783 51.3674 153.1 63.5019 153.1V165.1ZM132.935 153.1V165.1H63.5019V153.1H132.935Z" fill="#2C215A"/>
</svg>
