<svg width="193" height="190" viewBox="0 0 193 190" fill="none" xmlns="http://www.w3.org/2000/svg">
<path fill-rule="evenodd" clip-rule="evenodd" d="M96.2209 133.3C99.5346 133.3 102.221 135.986 102.221 139.3V156.274C102.221 159.587 99.5346 162.274 96.2209 162.274C92.9072 162.274 90.2209 159.587 90.2209 156.274V139.3C90.2209 135.986 92.9072 133.3 96.2209 133.3Z" fill="#2C215A"/>
<path fill-rule="evenodd" clip-rule="evenodd" d="M12.3061 39.8802C12.234 39.8802 12.1834 39.9092 12.1605 39.9317C12.155 39.9372 12.1517 39.9415 12.1498 39.9443C12.1486 39.9461 12.1478 39.9476 12.1472 39.9486V52.0709C12.1472 56.8818 14.0875 61.515 17.5722 64.9458C21.0601 68.3797 25.8104 70.3253 30.7827 70.3253H40.5472C43.8609 70.3253 46.5472 73.0116 46.5472 76.3253C46.5472 79.639 43.8609 82.3253 40.5472 82.3253H30.7827C22.6876 82.3253 14.9056 79.1602 9.15336 73.497C3.39798 67.8306 0.147217 60.1254 0.147217 52.0709V39.9438C0.147217 36.7138 1.45134 33.6355 3.74168 31.3806C6.02884 29.1288 9.11129 27.8802 12.3061 27.8802H40.5472C43.8609 27.8802 46.5472 30.5665 46.5472 33.8802C46.5472 37.1939 43.8609 39.8802 40.5472 39.8802H12.3061Z" fill="#2C215A"/>
<path fill-rule="evenodd" clip-rule="evenodd" d="M146.347 33.8802C146.347 30.5665 149.034 27.8802 152.347 27.8802H180.136C183.33 27.8802 186.413 29.1288 188.7 31.3806C190.99 33.6355 192.295 36.7138 192.295 39.9438V52.0709C192.295 60.1254 189.044 67.8306 183.288 73.497C177.536 79.1602 169.754 82.3253 161.659 82.3253H152.347C149.034 82.3253 146.347 79.639 146.347 76.3253C146.347 73.0116 149.034 70.3253 152.347 70.3253H161.659C166.631 70.3253 171.382 68.3797 174.869 64.9458C178.354 61.515 180.295 56.8818 180.295 52.0709V39.9486C180.294 39.9476 180.293 39.9461 180.292 39.9443C180.291 39.9427 180.289 39.9407 180.287 39.9383C180.286 39.9363 180.284 39.9341 180.281 39.9317C180.258 39.9092 180.208 39.8802 180.136 39.8802H152.347C149.034 39.8802 146.347 37.1939 146.347 33.8802Z" fill="#2C215A"/>
<path fill-rule="evenodd" clip-rule="evenodd" d="M34.461 16C34.461 7.16346 41.6245 0 50.461 0H141.981C150.817 0 157.981 7.16345 157.981 16V67.8463C157.981 108.569 132.046 144.959 96.7049 145.298C88.3286 145.379 80.0719 143.357 72.4273 139.414C64.7916 135.476 57.95 129.718 52.2491 122.557C46.5493 115.399 42.0798 106.953 39.0465 97.7346C36.0128 88.5147 34.4608 78.6597 34.461 68.7284C34.461 68.7284 34.461 68.7285 34.461 68.7284V16ZM50.461 12C48.2519 12 46.461 13.7909 46.461 16V68.7284C46.4608 77.4228 47.8214 86.0095 50.4453 93.984C53.0696 101.96 56.8907 109.122 61.637 115.083C66.382 121.043 71.935 125.658 77.9279 128.749C83.9121 131.836 90.2486 133.36 96.5889 133.298C122.738 133.048 145.981 104.946 145.981 67.8463V16C145.981 13.7909 144.19 12 141.981 12H50.461Z" fill="#2C215A"/>
<path fill-rule="evenodd" clip-rule="evenodd" d="M58.6316 166.4C58.8903 166.255 59.1558 166.122 59.4275 166C60.7161 165.422 62.1449 165.1 63.6488 165.1H133.082C134.586 165.1 136.015 165.422 137.304 166C137.575 166.122 137.841 166.255 138.1 166.4C139.128 166.973 140.049 167.717 140.822 168.594C142.428 170.413 143.402 172.803 143.402 175.42C143.402 176.845 142.247 178 140.822 178H55.9088C54.4839 178 53.3288 176.845 53.3288 175.42C53.3288 172.803 54.3031 170.413 55.9088 168.594C56.6825 167.717 57.603 166.973 58.6316 166.4ZM63.6488 153.1H133.082C145.409 153.1 155.402 163.093 155.402 175.42C155.402 183.472 148.875 190 140.822 190H55.9088C47.8565 190 41.3288 183.472 41.3288 175.42C41.3288 163.093 51.3218 153.1 63.6488 153.1Z" fill="#2C215A"/>
<path d="M96.3577 47.0672L116.497 40.7658C116.512 40.761 116.527 40.7565 116.543 40.7522C116.588 40.7396 116.633 40.7263 116.679 40.7154C117.562 40.5039 118.501 40.4842 119.393 40.6439C121 40.9315 122.915 41.9407 123.89 44.3807C124.827 46.7258 124.284 48.7201 123.312 50.0692C122.871 50.6811 122.381 51.1133 122.012 51.3905C121.824 51.5321 121.655 51.642 121.523 51.7223C121.456 51.7627 121.397 51.7963 121.349 51.8232L121.337 51.8295L121.296 51.8519L121.277 51.8618C121.121 51.943 120.945 52.0186 120.748 52.0758L102.442 57.3971V70.735C104.335 73.1672 106.252 75.5958 108.174 78.0287C112.251 83.1924 116.347 88.3788 120.262 93.6769L120.267 93.6838L120.277 93.6982L120.289 93.714L120.325 93.7648C120.358 93.8117 120.397 93.8706 120.442 93.9405C120.532 94.0794 120.644 94.2662 120.762 94.4938C120.991 94.9371 121.275 95.5986 121.422 96.4057C121.571 97.2245 121.587 98.2507 121.204 99.3356C120.815 100.441 120.079 101.414 119.029 102.203C117.979 102.991 116.839 103.426 115.669 103.491C114.521 103.555 113.541 103.252 112.797 102.88C112.063 102.512 111.508 102.054 111.148 101.709C110.962 101.532 110.815 101.372 110.706 101.247C110.652 101.184 110.607 101.13 110.571 101.085L110.563 101.075L110.532 101.036L110.52 101.021L110.516 101.015L110.516 101.014L110.51 101.007L110.512 101.01L96.3442 82.8522L82.1641 101.026C82.1125 101.092 82.0634 101.148 82.0256 101.19L82.0137 101.203L81.9735 101.247C81.9362 101.286 81.889 101.335 81.8325 101.392C81.72 101.504 81.5669 101.648 81.377 101.807C81.0065 102.119 80.4478 102.529 79.7333 102.859C78.2133 103.561 75.9067 103.89 73.6596 102.203C72.6094 101.414 71.8736 100.441 71.4841 99.3356C71.1017 98.2507 71.1179 97.2245 71.2666 96.4056C71.4131 95.5985 71.6971 94.9371 71.9266 94.4938C71.9436 94.4611 71.9617 94.429 71.981 94.3976L72.3772 93.7536C72.4057 93.7072 72.4368 93.6624 72.4702 93.6194L90.2463 70.7353V57.3775L72.5726 52.0687C72.4387 52.0285 72.3199 51.9813 72.2189 51.936L72.2037 51.9291L72.1516 51.9051C72.1039 51.8827 72.0445 51.8538 71.9752 51.8185C71.8374 51.7482 71.6566 51.65 71.4502 51.5227C71.0489 51.2755 70.4915 50.8827 69.9616 50.3242C69.4321 49.7662 68.8544 48.9619 68.5624 47.8985C68.2576 46.7888 68.3173 45.5846 68.7984 44.3806C69.3093 43.1021 70.0888 42.0995 71.0889 41.4112C71.9909 40.9214 74.3802 40.0977 76.7211 40.7211C83.273 42.8158 89.812 44.9529 96.3577 47.0672Z" fill="#2C215A"/>
<path fill-rule="evenodd" clip-rule="evenodd" d="M86.9663 34.888C86.9663 28.9954 91.7484 25.5 96.3443 25.5C100.94 25.5 105.722 28.9954 105.722 34.888C105.722 40.7806 100.94 44.276 96.3443 44.276C91.7484 44.276 86.9663 40.7806 86.9663 34.888Z" fill="#2C215A"/>
</svg>
