<svg width="20" height="21" viewBox="0 0 20 21" fill="none" xmlns="http://www.w3.org/2000/svg">
<path d="M15.8334 5.75002H13.3334V4.91669C13.3334 4.25365 13.07 3.61776 12.6011 3.14892C12.1323 2.68008 11.4964 2.41669 10.8334 2.41669H9.16669C8.50365 2.41669 7.86776 2.68008 7.39892 3.14892C6.93008 3.61776 6.66669 4.25365 6.66669 4.91669V5.75002H4.16669C3.50365 5.75002 2.86776 6.01341 2.39892 6.48225C1.93008 6.95109 1.66669 7.58698 1.66669 8.25002V15.75C1.66669 16.4131 1.93008 17.0489 2.39892 17.5178C2.86776 17.9866 3.50365 18.25 4.16669 18.25H15.8334C16.4964 18.25 17.1323 17.9866 17.6011 17.5178C18.07 17.0489 18.3334 16.4131 18.3334 15.75V8.25002C18.3334 7.58698 18.07 6.95109 17.6011 6.48225C17.1323 6.01341 16.4964 5.75002 15.8334 5.75002ZM8.33335 4.91669C8.33335 4.69567 8.42115 4.48371 8.57743 4.32743C8.73371 4.17115 8.94567 4.08335 9.16669 4.08335H10.8334C11.0544 4.08335 11.2663 4.17115 11.4226 4.32743C11.5789 4.48371 11.6667 4.69567 11.6667 4.91669V5.75002H8.33335V4.91669ZM16.6667 15.75C16.6667 15.971 16.5789 16.183 16.4226 16.3393C16.2663 16.4956 16.0544 16.5834 15.8334 16.5834H4.16669C3.94567 16.5834 3.73371 16.4956 3.57743 16.3393C3.42115 16.183 3.33335 15.971 3.33335 15.75V11.5417H5.83335V12.4167C5.83335 12.6377 5.92115 12.8497 6.07743 13.0059C6.23371 13.1622 6.44567 13.25 6.66669 13.25C6.8877 13.25 7.09966 13.1622 7.25594 13.0059C7.41222 12.8497 7.50002 12.6377 7.50002 12.4167V11.5417H12.5V12.4167C12.5 12.6377 12.5878 12.8497 12.7441 13.0059C12.9004 13.1622 13.1123 13.25 13.3334 13.25C13.5544 13.25 13.7663 13.1622 13.9226 13.0059C14.0789 12.8497 14.1667 12.6377 14.1667 12.4167V11.5417H16.6667V15.75ZM16.6667 9.91669H3.33335V8.25002C3.33335 8.02901 3.42115 7.81705 3.57743 7.66077C3.73371 7.50448 3.94567 7.41669 4.16669 7.41669H15.8334C16.0544 7.41669 16.2663 7.50448 16.4226 7.66077C16.5789 7.81705 16.6667 8.02901 16.6667 8.25002V9.91669Z" fill="url(#paint0_linear_690_1075)"/>
<defs>
<linearGradient id="paint0_linear_690_1075" x1="1.02864" y1="0.364217" x2="24.6648" y2="9.0808" gradientUnits="userSpaceOnUse">
<stop stop-color="#F46C0B"/>
<stop offset="0.5" stop-color="#D12C31"/>
<stop offset="1" stop-color="#F46C0B"/>
</linearGradient>
</defs>
</svg>
