<svg width="20" height="20" viewBox="0 0 20 20" fill="none" xmlns="http://www.w3.org/2000/svg">
<path d="M15.8334 5.41683H13.3334V4.5835C13.3334 3.92045 13.07 3.28457 12.6011 2.81573C12.1323 2.34689 11.4964 2.0835 10.8334 2.0835H9.16669C8.50365 2.0835 7.86776 2.34689 7.39892 2.81573C6.93008 3.28457 6.66669 3.92045 6.66669 4.5835V5.41683H4.16669C3.50365 5.41683 2.86776 5.68022 2.39892 6.14906C1.93008 6.6179 1.66669 7.25379 1.66669 7.91683V15.4168C1.66669 16.0799 1.93008 16.7158 2.39892 17.1846C2.86776 17.6534 3.50365 17.9168 4.16669 17.9168H15.8334C16.4964 17.9168 17.1323 17.6534 17.6011 17.1846C18.07 16.7158 18.3334 16.0799 18.3334 15.4168V7.91683C18.3334 7.25379 18.07 6.6179 17.6011 6.14906C17.1323 5.68022 16.4964 5.41683 15.8334 5.41683ZM8.33335 4.5835C8.33335 4.36248 8.42115 4.15052 8.57743 3.99424C8.73371 3.83796 8.94567 3.75016 9.16669 3.75016H10.8334C11.0544 3.75016 11.2663 3.83796 11.4226 3.99424C11.5789 4.15052 11.6667 4.36248 11.6667 4.5835V5.41683H8.33335V4.5835ZM16.6667 15.4168C16.6667 15.6378 16.5789 15.8498 16.4226 16.0061C16.2663 16.1624 16.0544 16.2502 15.8334 16.2502H4.16669C3.94567 16.2502 3.73371 16.1624 3.57743 16.0061C3.42115 15.8498 3.33335 15.6378 3.33335 15.4168V11.2085H5.83335V12.0835C5.83335 12.3045 5.92115 12.5165 6.07743 12.6728C6.23371 12.829 6.44567 12.9168 6.66669 12.9168C6.8877 12.9168 7.09966 12.829 7.25594 12.6728C7.41222 12.5165 7.50002 12.3045 7.50002 12.0835V11.2085H12.5V12.0835C12.5 12.3045 12.5878 12.5165 12.7441 12.6728C12.9004 12.829 13.1123 12.9168 13.3334 12.9168C13.5544 12.9168 13.7663 12.829 13.9226 12.6728C14.0789 12.5165 14.1667 12.3045 14.1667 12.0835V11.2085H16.6667V15.4168ZM16.6667 9.5835H3.33335V7.91683C3.33335 7.69582 3.42115 7.48385 3.57743 7.32757C3.73371 7.17129 3.94567 7.0835 4.16669 7.0835H15.8334C16.0544 7.0835 16.2663 7.17129 16.4226 7.32757C16.5789 7.48385 16.6667 7.69582 16.6667 7.91683V9.5835Z" fill="url(#paint0_linear_668_401)"/>
<defs>
<linearGradient id="paint0_linear_668_401" x1="1.02864" y1="0.0310262" x2="24.6648" y2="8.74761" gradientUnits="userSpaceOnUse">
<stop stop-color="#F46C0B"/>
<stop offset="0.5" stop-color="#D12C31"/>
<stop offset="1" stop-color="#F46C0B"/>
</linearGradient>
</defs>
</svg>
