<svg width="391" height="609" viewBox="0 0 391 609" fill="none" xmlns="http://www.w3.org/2000/svg">
<g opacity="0.12">
<path fill-rule="evenodd" clip-rule="evenodd" d="M272.338 331.705C284.096 339.076 287.653 354.584 280.281 366.342C259.539 399.431 251.071 438.99 256.452 477.903C261.833 516.813 280.693 552.428 309.55 578.387C338.398 604.338 375.35 618.952 413.762 619.692C452.173 620.433 489.638 607.255 519.427 582.442C549.225 557.621 569.401 522.767 576.233 484.096C583.066 445.422 576.086 405.56 556.591 371.688C549.669 359.66 553.808 344.297 565.836 337.375C577.864 330.452 593.226 334.591 600.149 346.619C625.549 390.754 634.601 442.59 625.723 492.84C616.844 543.093 590.596 588.567 551.592 621.057C512.578 653.553 463.368 670.914 412.793 669.939C362.218 668.964 313.7 649.719 275.939 615.75C238.186 581.788 213.661 535.343 206.67 484.787C199.679 434.234 210.662 382.781 237.701 339.649C245.072 327.89 260.579 324.334 272.338 331.705Z" fill="url(#paint0_linear_645_1460)"/>
<path fill-rule="evenodd" clip-rule="evenodd" d="M303.6 290.957C308.657 286.045 311.652 281.979 312.888 279.838C314.124 277.697 316.147 273.07 317.874 266.235C318.655 263.139 319.286 259.945 319.748 256.771C317.23 258.758 314.779 260.901 312.489 263.126C307.432 268.039 304.437 272.105 303.201 274.246C301.965 276.386 299.941 281.013 298.215 287.848C297.434 290.944 296.803 294.139 296.341 297.313C298.859 295.325 301.31 293.182 303.6 290.957ZM263.144 354.812C289.856 370.234 339.879 333.6 356.411 304.966C372.943 276.332 379.657 214.694 352.945 199.272C326.233 183.849 276.21 220.483 259.678 249.118C243.146 277.752 236.432 339.39 263.144 354.812Z" fill="url(#paint1_linear_645_1460)"/>
<path fill-rule="evenodd" clip-rule="evenodd" d="M191.632 370.047C189.794 363.241 187.695 358.647 186.424 356.527C185.154 354.407 182.093 350.39 176.957 345.561C174.631 343.374 172.145 341.271 169.595 339.325C170.109 342.491 170.791 345.675 171.623 348.757C173.461 355.563 175.56 360.157 176.831 362.277C178.101 364.397 181.163 368.414 186.299 373.243C188.625 375.43 191.111 377.533 193.661 379.479C193.147 376.313 192.464 373.129 191.632 370.047ZM227.792 436.429C254.249 420.572 246.529 359.052 229.531 330.692C212.534 302.331 161.919 266.519 135.463 282.375C109.006 298.232 116.727 359.752 133.724 388.112C150.721 416.473 201.336 452.285 227.792 436.429Z" fill="url(#paint2_linear_645_1460)"/>
<path fill-rule="evenodd" clip-rule="evenodd" d="M189.666 515.156C183.789 511.262 179.178 509.202 176.823 508.45C174.468 507.699 169.516 506.707 162.471 506.476C159.279 506.372 156.024 506.436 152.824 506.661C155.302 508.697 157.918 510.636 160.58 512.4C166.457 516.293 171.068 518.354 173.422 519.105C175.777 519.857 180.729 520.849 187.775 521.079C190.966 521.184 194.222 521.119 197.421 520.895C194.943 518.858 192.327 516.919 189.666 515.156ZM260.672 541.082C270.051 511.698 223.602 470.627 192.104 460.573C160.605 450.52 98.9514 457.089 89.5731 486.473C80.1948 515.857 126.643 556.929 158.142 566.982C189.64 577.035 251.294 570.466 260.672 541.082Z" fill="url(#paint3_linear_645_1460)"/>
<path fill-rule="evenodd" clip-rule="evenodd" d="M284.345 662.511C277.349 663.379 272.507 664.817 270.23 665.779C267.954 666.741 263.549 669.211 258.05 673.622C255.559 675.62 253.13 677.788 250.846 680.041C254.053 679.974 257.301 679.743 260.47 679.35C267.466 678.481 272.307 677.044 274.584 676.081C276.861 675.119 281.266 672.649 286.765 668.238C289.256 666.24 291.685 664.072 293.968 661.819C290.761 661.886 287.513 662.117 284.345 662.511ZM355.126 635.975C343.12 607.564 281.125 606.616 250.669 619.486C220.212 632.356 177.682 677.473 189.688 705.885C201.694 734.297 263.69 735.244 294.146 722.374C324.602 709.504 367.132 664.387 355.126 635.975Z" fill="url(#paint4_linear_645_1460)"/>
<path fill-rule="evenodd" clip-rule="evenodd" d="M536.993 290.957C531.937 286.045 528.941 281.979 527.705 279.838C526.47 277.697 524.446 273.07 522.72 266.235C521.938 263.139 521.307 259.945 520.845 256.771C523.363 258.758 525.814 260.901 528.104 263.126C533.161 268.039 536.156 272.105 537.392 274.246C538.628 276.386 540.652 281.013 542.378 287.848C543.159 290.944 543.79 294.139 544.252 297.313C541.734 295.325 539.283 293.182 536.993 290.957ZM577.449 354.812C550.737 370.234 500.715 333.6 484.183 304.966C467.651 276.332 460.936 214.694 487.648 199.272C514.36 183.849 564.383 220.483 580.915 249.118C597.447 277.752 604.161 339.39 577.449 354.812Z" fill="url(#paint5_linear_645_1460)"/>
<path fill-rule="evenodd" clip-rule="evenodd" d="M648.961 370.047C650.799 363.241 652.898 358.647 654.169 356.527C655.439 354.407 658.5 350.39 663.636 345.561C665.963 343.374 668.448 341.271 670.998 339.325C670.484 342.491 669.802 345.675 668.97 348.757C667.132 355.563 665.033 360.157 663.762 362.277C662.492 364.397 659.43 368.414 654.295 373.243C651.968 375.43 649.482 377.533 646.932 379.479C647.447 376.313 648.129 373.129 648.961 370.047ZM612.801 436.429C586.344 420.572 594.064 359.052 611.062 330.692C628.059 302.331 678.674 266.519 705.13 282.375C731.587 298.232 723.866 359.752 706.869 388.112C689.872 416.473 639.257 452.285 612.801 436.429Z" fill="url(#paint6_linear_645_1460)"/>
<path fill-rule="evenodd" clip-rule="evenodd" d="M650.928 515.156C656.804 511.262 661.415 509.202 663.77 508.45C666.125 507.699 671.077 506.707 678.122 506.476C681.314 506.372 684.569 506.436 687.769 506.661C685.291 508.697 682.675 510.636 680.013 512.4C674.136 516.293 669.525 518.354 667.171 519.105C664.816 519.857 659.864 520.849 652.818 521.079C649.627 521.184 646.371 521.119 643.172 520.895C645.65 518.858 648.266 516.919 650.928 515.156ZM579.921 541.082C570.542 511.698 616.991 470.627 648.489 460.573C679.988 450.52 741.642 457.089 751.02 486.473C760.398 515.857 713.95 556.929 682.451 566.982C650.953 577.035 589.299 570.466 579.921 541.082Z" fill="url(#paint7_linear_645_1460)"/>
<path fill-rule="evenodd" clip-rule="evenodd" d="M556.248 662.511C563.244 663.379 568.086 664.817 570.363 665.779C572.639 666.741 577.044 669.211 582.543 673.622C585.034 675.62 587.464 677.788 589.747 680.041C586.54 679.974 583.292 679.743 580.123 679.35C573.127 678.481 568.286 677.044 566.009 676.081C563.732 675.119 559.327 672.649 553.828 668.238C551.337 666.24 548.908 664.072 546.625 661.819C549.832 661.886 553.08 662.117 556.248 662.511ZM485.467 635.975C497.473 607.564 559.468 606.616 589.925 619.486C620.381 632.356 662.911 677.473 650.905 705.885C638.899 734.297 576.903 735.244 546.447 722.374C515.991 709.504 473.461 664.387 485.467 635.975Z" fill="url(#paint8_linear_645_1460)"/>
<path fill-rule="evenodd" clip-rule="evenodd" d="M364.267 9.33992C397.287 -3.1133 433.713 -3.11331 466.733 9.33991L737.049 111.288C793.581 132.609 831 186.712 831 247.132V506.049C831 629.728 767.427 734.859 694.226 815.168C620.781 895.745 534.503 954.854 481.693 987.143C440.821 1012.13 390.179 1012.13 349.307 987.143C296.497 954.854 210.219 895.745 136.774 815.169C63.5734 734.859 0 629.728 0 506.049V247.132C0 186.712 37.4188 132.609 93.9513 111.288L364.267 9.33992ZM443.087 72.0371C425.307 65.3315 405.693 65.3315 387.913 72.0371L117.597 173.985C87.1565 185.465 67.0079 214.598 67.0079 247.132V506.049C67.0079 606.106 118.596 695.755 186.297 770.029C253.753 844.036 334.114 899.314 384.261 929.974C403.676 941.845 427.324 941.845 446.739 929.974C496.886 899.314 577.247 844.036 644.703 770.029C712.404 695.755 763.992 606.106 763.992 506.049V247.132C763.992 214.598 743.843 185.465 713.403 173.985L443.087 72.0371Z" fill="url(#paint9_linear_645_1460)"/>
<path d="M421.434 382.501L446.165 430.396L501.471 438.124L461.452 475.384L470.897 528.023L421.434 503.157L371.971 528.023L381.415 475.384L341.397 438.124L396.702 430.396L421.434 382.501Z" fill="url(#paint10_linear_645_1460)"/>
<path fill-rule="evenodd" clip-rule="evenodd" d="M421.434 357.373C430.834 357.373 439.448 362.619 443.761 370.972L462.525 407.31L504.948 413.237C514.548 414.579 522.521 421.322 525.436 430.567C528.351 439.812 525.689 449.909 518.594 456.514L488.606 484.436L495.63 523.585C497.311 532.953 493.555 542.466 485.928 548.159C478.302 553.852 468.114 554.748 459.611 550.474L421.434 531.282L383.257 550.474C374.754 554.748 364.566 553.852 356.939 548.159C349.313 542.466 345.557 532.953 347.238 523.586L354.262 484.436L324.273 456.514C317.179 449.909 314.517 439.812 317.432 430.567C320.347 421.322 328.319 414.579 337.919 413.237L380.343 407.31L399.107 370.972C403.42 362.619 412.034 357.373 421.434 357.373ZM421.434 437.269L419.029 441.925C415.287 449.173 408.258 454.154 400.18 455.282L397.154 455.705L398.538 456.993C404.79 462.815 407.657 471.413 406.148 479.822L405.577 483.004L410.148 480.707C417.248 477.137 425.619 477.137 432.72 480.707L437.29 483.004L436.719 479.822C435.211 471.413 438.077 462.815 444.329 456.993L445.713 455.705L442.688 455.282C434.609 454.154 427.581 449.173 423.838 441.925L421.434 437.269Z" fill="url(#paint11_linear_645_1460)"/>
</g>
<defs>
<linearGradient id="paint0_linear_645_1460" x1="-42.0074" y1="-92.3068" x2="1209.21" y2="483.139" gradientUnits="userSpaceOnUse">
<stop stop-color="#A385FC"/>
<stop offset="0.47" stop-color="white"/>
<stop offset="1" stop-color="#9B7BFB"/>
</linearGradient>
<linearGradient id="paint1_linear_645_1460" x1="-42.0074" y1="-92.3068" x2="1209.21" y2="483.139" gradientUnits="userSpaceOnUse">
<stop stop-color="#A385FC"/>
<stop offset="0.47" stop-color="white"/>
<stop offset="1" stop-color="#9B7BFB"/>
</linearGradient>
<linearGradient id="paint2_linear_645_1460" x1="-42.0074" y1="-92.3068" x2="1209.21" y2="483.139" gradientUnits="userSpaceOnUse">
<stop stop-color="#A385FC"/>
<stop offset="0.47" stop-color="white"/>
<stop offset="1" stop-color="#9B7BFB"/>
</linearGradient>
<linearGradient id="paint3_linear_645_1460" x1="-42.0074" y1="-92.3068" x2="1209.21" y2="483.139" gradientUnits="userSpaceOnUse">
<stop stop-color="#A385FC"/>
<stop offset="0.47" stop-color="white"/>
<stop offset="1" stop-color="#9B7BFB"/>
</linearGradient>
<linearGradient id="paint4_linear_645_1460" x1="-42.0074" y1="-92.3068" x2="1209.21" y2="483.139" gradientUnits="userSpaceOnUse">
<stop stop-color="#A385FC"/>
<stop offset="0.47" stop-color="white"/>
<stop offset="1" stop-color="#9B7BFB"/>
</linearGradient>
<linearGradient id="paint5_linear_645_1460" x1="-42.0074" y1="-92.3068" x2="1209.21" y2="483.139" gradientUnits="userSpaceOnUse">
<stop stop-color="#A385FC"/>
<stop offset="0.47" stop-color="white"/>
<stop offset="1" stop-color="#9B7BFB"/>
</linearGradient>
<linearGradient id="paint6_linear_645_1460" x1="-42.0074" y1="-92.3068" x2="1209.21" y2="483.139" gradientUnits="userSpaceOnUse">
<stop stop-color="#A385FC"/>
<stop offset="0.47" stop-color="white"/>
<stop offset="1" stop-color="#9B7BFB"/>
</linearGradient>
<linearGradient id="paint7_linear_645_1460" x1="-42.0074" y1="-92.3068" x2="1209.21" y2="483.139" gradientUnits="userSpaceOnUse">
<stop stop-color="#A385FC"/>
<stop offset="0.47" stop-color="white"/>
<stop offset="1" stop-color="#9B7BFB"/>
</linearGradient>
<linearGradient id="paint8_linear_645_1460" x1="-42.0074" y1="-92.3068" x2="1209.21" y2="483.139" gradientUnits="userSpaceOnUse">
<stop stop-color="#A385FC"/>
<stop offset="0.47" stop-color="white"/>
<stop offset="1" stop-color="#9B7BFB"/>
</linearGradient>
<linearGradient id="paint9_linear_645_1460" x1="-42.0074" y1="-92.3068" x2="1209.21" y2="483.139" gradientUnits="userSpaceOnUse">
<stop stop-color="#A385FC"/>
<stop offset="0.47" stop-color="white"/>
<stop offset="1" stop-color="#9B7BFB"/>
</linearGradient>
<linearGradient id="paint10_linear_645_1460" x1="-42.0074" y1="-92.3068" x2="1209.21" y2="483.139" gradientUnits="userSpaceOnUse">
<stop stop-color="#A385FC"/>
<stop offset="0.47" stop-color="white"/>
<stop offset="1" stop-color="#9B7BFB"/>
</linearGradient>
<linearGradient id="paint11_linear_645_1460" x1="-42.0074" y1="-92.3068" x2="1209.21" y2="483.139" gradientUnits="userSpaceOnUse">
<stop stop-color="#A385FC"/>
<stop offset="0.47" stop-color="white"/>
<stop offset="1" stop-color="#9B7BFB"/>
</linearGradient>
</defs>
</svg>
