<svg width="193" height="190" viewBox="0 0 193 190" fill="none" xmlns="http://www.w3.org/2000/svg">
<path fill-rule="evenodd" clip-rule="evenodd" d="M96.7791 133.3C100.093 133.3 102.779 135.986 102.779 139.3L102.779 156.273C102.779 159.587 100.093 162.273 96.7791 162.273C93.4653 162.273 90.7791 159.587 90.7791 156.273L90.7791 139.3C90.7791 135.986 93.4653 133.3 96.7791 133.3Z" fill="#2C215A"/>
<path fill-rule="evenodd" clip-rule="evenodd" d="M12.8642 39.8804C12.7921 39.8804 12.7415 39.9094 12.7187 39.9319C12.7131 39.9374 12.7098 39.9417 12.7079 39.9446C12.7067 39.9463 12.7059 39.9478 12.7053 39.9488V52.0712C12.7053 56.8821 14.6456 61.5152 18.1303 64.946C21.6182 68.3799 26.3685 70.3255 31.3409 70.3255H41.1053C44.419 70.3255 47.1053 73.0118 47.1053 76.3255C47.1053 79.6392 44.419 82.3255 41.1053 82.3255H31.3409C23.2457 82.3255 15.4637 79.1604 9.71147 73.4972C3.95609 67.8308 0.705322 60.1256 0.705322 52.0712V39.944C0.705322 36.714 2.00944 33.6357 4.29978 31.3808C6.58695 29.129 9.66939 27.8804 12.8642 27.8804H41.1053C44.419 27.8804 47.1053 30.5667 47.1053 33.8804C47.1053 37.1941 44.419 39.8804 41.1053 39.8804H12.8642Z" fill="#2C215A"/>
<path fill-rule="evenodd" clip-rule="evenodd" d="M146.905 33.8804C146.905 30.5667 149.592 27.8804 152.905 27.8804H180.694C183.889 27.8804 186.971 29.129 189.258 31.3808C191.548 33.6357 192.853 36.7141 192.853 39.944V52.0712C192.853 60.1256 189.602 67.8308 183.846 73.4972C178.094 79.1604 170.312 82.3255 162.217 82.3255H152.905C149.592 82.3255 146.905 79.6392 146.905 76.3255C146.905 73.0118 149.592 70.3255 152.905 70.3255H162.217C167.189 70.3255 171.94 68.3799 175.428 64.946C178.912 61.5152 180.853 56.8821 180.853 52.0712V39.9488C180.852 39.9478 180.851 39.9463 180.85 39.9445C180.849 39.943 180.847 39.9409 180.845 39.9385C180.844 39.9365 180.842 39.9343 180.839 39.9319C180.816 39.9094 180.766 39.8804 180.694 39.8804H152.905C149.592 39.8804 146.905 37.1941 146.905 33.8804Z" fill="#2C215A"/>
<path fill-rule="evenodd" clip-rule="evenodd" d="M35.019 16C35.019 7.16346 42.1825 0 51.019 0H142.539C151.375 0 158.539 7.16345 158.539 16V67.8463C158.539 108.569 132.604 144.959 97.2629 145.298C88.8866 145.379 80.6299 143.357 72.9853 139.414C65.3496 135.476 58.5081 129.718 52.8071 122.557C47.1074 115.399 42.6378 106.953 39.6045 97.7346C36.5708 88.5147 35.0188 78.6597 35.019 68.7284C35.019 68.7284 35.019 68.7285 35.019 68.7284V16ZM51.019 12C48.8099 12 47.019 13.7909 47.019 16V68.7284C47.0188 77.4228 48.3794 86.0095 51.0033 93.984C53.6276 101.96 57.4488 109.122 62.195 115.083C66.94 121.043 72.4931 125.658 78.486 128.749C84.4701 131.836 90.8066 133.36 97.1469 133.298C123.296 133.048 146.539 104.946 146.539 67.8463V16C146.539 13.7909 144.748 12 142.539 12H51.019Z" fill="#2C215A"/>
<path fill-rule="evenodd" clip-rule="evenodd" d="M59.1898 166.4C59.4485 166.255 59.714 166.122 59.9857 166C61.2743 165.422 62.7031 165.1 64.207 165.1H133.641C135.145 165.1 136.573 165.422 137.862 166C138.134 166.122 138.399 166.255 138.658 166.4C139.686 166.973 140.607 167.717 141.381 168.594C142.986 170.413 143.961 172.803 143.961 175.42C143.961 176.845 142.806 178 141.381 178H56.467C55.0421 178 53.887 176.845 53.887 175.42C53.887 172.803 54.8613 170.413 56.467 168.594C57.2407 167.717 58.1612 166.973 59.1898 166.4ZM64.207 153.1H133.641C145.968 153.1 155.961 163.093 155.961 175.42C155.961 183.472 149.433 190 141.381 190H56.467C48.4147 190 41.887 183.472 41.887 175.42C41.887 163.093 51.88 153.1 64.207 153.1Z" fill="#2C215A"/>
<path d="M104.282 100.416C104.282 94.9561 107.847 90.2427 111.341 86.0468C114.303 82.4891 116.092 77.8717 116.092 72.8257C116.092 61.5788 107.206 52.4614 96.2456 52.4614C85.2849 52.4614 76.3994 61.5788 76.3994 72.8257C76.3994 77.494 77.9303 81.7956 80.5051 85.2305C83.916 89.7809 87.5526 94.7292 87.5526 100.416C87.5526 103.5 90.0494 106 93.1292 106H98.7058C101.786 106 104.282 103.5 104.282 100.416Z" fill="#2C215A"/>
<path fill-rule="evenodd" clip-rule="evenodd" d="M96.2886 29C99.05 29 101.289 31.2386 101.289 34V42.5212C101.289 45.2826 99.05 47.5212 96.2886 47.5212C93.5272 47.5212 91.2886 45.2826 91.2886 42.5212V34C91.2886 31.2386 93.5272 29 96.2886 29Z" fill="#2C215A"/>
<path fill-rule="evenodd" clip-rule="evenodd" d="M65.6041 40.7696C67.5568 38.817 70.7226 38.817 72.6752 40.7696L78.7006 46.795C80.6532 48.7477 80.6532 51.9135 78.7006 53.8661C76.748 55.8187 73.5821 55.8187 71.6295 53.8661L65.6041 47.8407C63.6515 45.8881 63.6515 42.7223 65.6041 40.7696Z" fill="#2C215A"/>
<path fill-rule="evenodd" clip-rule="evenodd" d="M53.3799 67.9268C53.3799 65.1653 55.6185 62.9268 58.3799 62.9268L66.9011 62.9268C69.6625 62.9268 71.9011 65.1653 71.9011 67.9268C71.9011 70.6882 69.6625 72.9268 66.9011 72.9268L58.3799 72.9268C55.6185 72.9268 53.3799 70.6882 53.3799 67.9268Z" fill="#2C215A"/>
<path fill-rule="evenodd" clip-rule="evenodd" d="M127.846 40.7696C125.893 38.817 122.727 38.817 120.775 40.7696L114.749 46.795C112.797 48.7477 112.797 51.9135 114.749 53.8661C116.702 55.8187 119.868 55.8187 121.82 53.8661L127.846 47.8407C129.798 45.8881 129.798 42.7223 127.846 40.7696Z" fill="#2C215A"/>
<path fill-rule="evenodd" clip-rule="evenodd" d="M140.07 67.9272C140.07 65.1658 137.832 62.9272 135.07 62.9272L126.549 62.9272C123.788 62.9272 121.549 65.1658 121.549 67.9272C121.549 70.6887 123.788 72.9272 126.549 72.9272L135.07 72.9272C137.832 72.9272 140.07 70.6887 140.07 67.9272Z" fill="#2C215A"/>
</svg>
