<svg width="193" height="190" viewBox="0 0 193 190" fill="none" xmlns="http://www.w3.org/2000/svg">
<path fill-rule="evenodd" clip-rule="evenodd" d="M96.2719 133.3C99.5856 133.3 102.272 135.986 102.272 139.3V156.274C102.272 159.587 99.5856 162.274 96.2719 162.274C92.9582 162.274 90.2719 159.587 90.2719 156.274V139.3C90.2719 135.986 92.9582 133.3 96.2719 133.3Z" fill="#2C215A"/>
<path fill-rule="evenodd" clip-rule="evenodd" d="M12.3571 39.8802C12.2851 39.8802 12.2344 39.9092 12.2116 39.9317C12.206 39.9372 12.2027 39.9415 12.2008 39.9443C12.1996 39.9461 12.1988 39.9476 12.1982 39.9486V52.0709C12.1982 56.8818 14.1385 61.515 17.6233 64.9458C21.1112 68.3797 25.8614 70.3253 30.8338 70.3253H40.5982C43.912 70.3253 46.5982 73.0116 46.5982 76.3253C46.5982 79.639 43.912 82.3253 40.5982 82.3253H30.8338C22.7387 82.3253 14.9566 79.1602 9.20439 73.497C3.44901 67.8306 0.198242 60.1254 0.198242 52.0709V39.9438C0.198242 36.7138 1.50236 33.6355 3.7927 31.3806C6.07987 29.1288 9.16231 27.8802 12.3571 27.8802H40.5982C43.912 27.8802 46.5982 30.5665 46.5982 33.8802C46.5982 37.1939 43.912 39.8802 40.5982 39.8802H12.3571Z" fill="#2C215A"/>
<path fill-rule="evenodd" clip-rule="evenodd" d="M146.398 33.8802C146.398 30.5665 149.085 27.8802 152.398 27.8802H180.187C183.381 27.8802 186.464 29.1288 188.751 31.3806C191.041 33.6355 192.346 36.7138 192.346 39.9438V52.0709C192.346 60.1254 189.095 67.8306 183.339 73.497C177.587 79.1602 169.805 82.3253 161.71 82.3253H152.398C149.085 82.3253 146.398 79.639 146.398 76.3253C146.398 73.0116 149.085 70.3253 152.398 70.3253H161.71C166.682 70.3253 171.433 68.3797 174.921 64.9458C178.405 61.515 180.346 56.8818 180.346 52.0709V39.9486C180.345 39.9476 180.344 39.9461 180.343 39.9443C180.342 39.9427 180.34 39.9407 180.338 39.9383C180.337 39.9363 180.335 39.9341 180.332 39.9317C180.309 39.9092 180.259 39.8802 180.187 39.8802H152.398C149.085 39.8802 146.398 37.1939 146.398 33.8802Z" fill="#2C215A"/>
<path fill-rule="evenodd" clip-rule="evenodd" d="M34.512 16C34.512 7.16346 41.6755 0 50.512 0H142.032C150.868 0 158.032 7.16345 158.032 16V67.8463C158.032 108.569 132.097 144.959 96.7559 145.298C88.3797 145.379 80.1229 143.357 72.4783 139.414C64.8426 135.476 58.0011 129.718 52.3001 122.557C46.6004 115.399 42.1308 106.953 39.0975 97.7346C36.0638 88.5147 34.5118 78.6597 34.512 68.7284C34.512 68.7284 34.512 68.7285 34.512 68.7284V16ZM50.512 12C48.3029 12 46.512 13.7909 46.512 16V68.7284C46.5118 77.4228 47.8724 86.0095 50.4963 93.984C53.1206 101.96 56.9418 109.122 61.688 115.083C66.433 121.043 71.9861 125.658 77.979 128.749C83.9631 131.836 90.2996 133.36 96.6399 133.298C122.789 133.048 146.032 104.946 146.032 67.8463V16C146.032 13.7909 144.241 12 142.032 12H50.512Z" fill="#2C215A"/>
<path fill-rule="evenodd" clip-rule="evenodd" d="M58.6826 166.4C58.9413 166.255 59.2068 166.122 59.4786 166C60.7671 165.422 62.1959 165.1 63.6998 165.1H133.133C134.637 165.1 136.066 165.422 137.355 166C137.626 166.122 137.892 166.255 138.151 166.4C139.179 166.973 140.1 167.717 140.873 168.594C142.479 170.413 143.453 172.803 143.453 175.42C143.453 176.845 142.298 178 140.873 178H55.9598C54.5349 178 53.3798 176.845 53.3798 175.42C53.3798 172.803 54.3541 170.413 55.9598 168.594C56.7336 167.717 57.654 166.973 58.6826 166.4ZM63.6998 153.1H133.133C145.46 153.1 155.453 163.093 155.453 175.42C155.453 183.472 148.926 190 140.873 190H55.9598C47.9075 190 41.3798 183.472 41.3798 175.42C41.3798 163.093 51.3728 153.1 63.6998 153.1Z" fill="#2C215A"/>
<path d="M116.439 80.4996L117.745 94.0473C117.792 94.5364 117.477 94.9874 117.001 95.1111L91.7532 101.675C91.1198 101.839 90.5016 101.361 90.5016 100.706V93.7668C90.5016 93.2146 90.0539 92.7658 89.5017 92.7596C83.6925 92.6942 77.8097 92.0594 73.9174 90.8552C73.511 90.7295 73.2437 90.3483 73.2437 89.923V75.6244C73.2437 75.2439 73.0284 74.898 72.6809 74.7428C71.4832 74.208 69.8898 73.6251 67.9009 72.7044C67.3191 72.4351 67.1566 71.6904 67.5612 71.1931C69.798 68.4437 70.7681 67.2336 74.5497 61.0161C74.6349 60.876 74.6868 60.7082 74.6965 60.5445C75.4393 47.9748 78.3062 45.1425 82.5917 40.9086C89.2211 34.3592 103.296 33.376 111.355 37.3566C118.546 40.9084 125.017 45.881 125.737 58.6676C126.29 68.5124 120.228 76.5148 116.78 79.6355C116.537 79.8555 116.407 80.1733 116.439 80.4996Z" fill="#2C215A"/>
<path fill-rule="evenodd" clip-rule="evenodd" d="M96.1215 32.2005C101.889 31.5899 108.023 32.3648 112.684 34.6668C116.433 36.519 120.311 38.8887 123.323 42.6845C126.374 46.5298 128.343 51.59 128.732 58.4992C129.318 68.9292 123.39 77.3381 119.518 81.1728L120.731 93.7594C120.92 95.7161 119.658 97.5199 117.756 98.0145L92.508 104.578C89.9718 105.237 87.5016 103.321 87.5016 100.706V95.7162C82.1961 95.5428 76.8533 94.9038 73.0307 93.7212C71.3031 93.1868 70.2437 91.5947 70.2437 89.923V76.9696C70.158 76.9344 70.0699 76.8984 69.9791 76.8612C69.8111 76.7925 69.6341 76.72 69.4464 76.6428C68.6345 76.3089 67.6929 75.914 66.6405 75.4268C64.2349 74.3132 63.6277 71.2743 65.234 69.2998L65.2395 69.2931C67.3252 66.7295 68.2268 65.6213 71.7322 59.8747C72.1323 53.6851 73.0655 49.5289 74.6098 46.3048C76.1816 43.0232 78.2906 40.9401 80.3737 38.8827C80.4096 38.8472 80.4455 38.8118 80.4814 38.7763C80.4819 38.7758 80.4825 38.7753 80.483 38.7747C84.4518 34.8539 90.3741 32.809 96.1215 32.2005ZM84.7014 43.0415C84.701 43.0419 84.7006 43.0423 84.7001 43.0427C82.533 45.1838 81.1121 46.6188 80.0211 48.8967C78.9156 51.2047 78.0521 54.6148 77.6913 60.7215C77.653 61.3686 77.4555 62.0116 77.1128 62.575C74.2845 67.2253 72.9704 69.1701 71.5428 71.0172C71.6052 71.043 71.6672 71.0685 71.7287 71.0938C71.8846 71.1579 72.041 71.2219 72.1969 71.2857C72.7957 71.5307 73.3861 71.7722 73.904 72.0035C75.3776 72.6615 76.2437 74.1106 76.2437 75.6244V88.3819C79.7184 89.2201 84.5724 89.7039 89.5355 89.7598C91.716 89.7843 93.5016 91.5557 93.5016 93.7668V98.1204L114.595 92.6368L113.453 80.7875C113.326 79.4741 113.853 78.2382 114.767 77.4113C117.861 74.6105 123.224 67.4199 122.741 58.8361C122.411 52.9587 120.785 49.1392 118.622 46.4137C116.421 43.6385 113.467 41.746 110.026 40.0464C106.628 38.3678 101.695 37.6439 96.7531 38.1672C91.7917 38.6924 87.3622 40.4137 84.7014 43.0415Z" fill="#2C215A"/>
</svg>
