<svg width="146" height="172" viewBox="0 0 146 172" fill="none" xmlns="http://www.w3.org/2000/svg">
<path fill-rule="evenodd" clip-rule="evenodd" d="M22.3457 95.9C22.3457 89.383 27.6287 84.1 34.1457 84.1H74.7457C81.2627 84.1 86.5457 89.383 86.5457 95.9V116.2C86.5457 122.717 81.2627 128 74.7457 128H34.1457C27.6287 128 22.3457 122.717 22.3457 116.2V95.9Z" fill="url(#paint0_linear_263_674)"/>
<path fill-rule="evenodd" clip-rule="evenodd" d="M54.4457 70C52.1913 70 50.0293 70.8955 48.4353 72.4896C46.8412 74.0837 45.9457 76.2457 45.9457 78.5V90.1C45.9457 93.4137 43.2594 96.1 39.9457 96.1C36.632 96.1 33.9457 93.4137 33.9457 90.1V78.5C33.9457 73.0631 36.1055 67.8488 39.95 64.0043C43.7945 60.1598 49.0087 58 54.4457 58C59.8826 58 65.0969 60.1598 68.9414 64.0043C72.7859 67.8488 74.9457 73.0631 74.9457 78.5V90.1C74.9457 93.4137 72.2594 96.1 68.9457 96.1C65.632 96.1 62.9457 93.4137 62.9457 90.1V78.5C62.9457 76.2457 62.0502 74.0837 60.4561 72.4896C58.862 70.8955 56.7 70 54.4457 70Z" fill="url(#paint1_linear_263_674)"/>
<path fill-rule="evenodd" clip-rule="evenodd" d="M114.074 31C103.178 31 94.3457 39.8325 94.3457 50.728C94.3457 61.6235 103.178 70.456 114.074 70.456C124.969 70.456 133.802 61.6235 133.802 50.728C133.802 39.8325 124.969 31 114.074 31ZM82.3457 50.728C82.3457 33.2051 96.5508 19 114.074 19C131.597 19 145.802 33.2051 145.802 50.728C145.802 68.2509 131.597 82.456 114.074 82.456C96.5508 82.456 82.3457 68.2509 82.3457 50.728Z" fill="url(#paint2_linear_263_674)"/>
<path fill-rule="evenodd" clip-rule="evenodd" d="M127.571 70.2684C130.857 69.8408 133.867 72.158 134.295 75.444L138.128 104.904C138.427 107.195 137.383 109.454 135.445 110.712C133.507 111.969 131.019 112.002 129.048 110.797L114.074 101.637L99.0998 110.797C97.1288 112.002 94.6406 111.969 92.7024 110.711C90.7643 109.453 89.7206 107.194 90.0191 104.903L93.8528 75.4754C94.2809 72.1895 97.2917 69.8727 100.578 70.3008C103.864 70.7289 106.18 73.7397 105.752 77.0256L103.539 94.0138L110.943 89.4848C112.865 88.3092 115.283 88.3092 117.205 89.4848L124.61 94.015L122.395 76.9925C121.967 73.7065 124.285 70.696 127.571 70.2684Z" fill="url(#paint3_linear_263_674)"/>
<path fill-rule="evenodd" clip-rule="evenodd" d="M0.345703 22C0.345703 9.84974 10.1954 0 22.3457 0H86.3457C98.496 0 108.346 9.84974 108.346 22V25H96.3457V22C96.3457 16.4772 91.8686 12 86.3457 12H81.3457V13C81.3457 17.4183 77.764 21 73.3457 21H35.3457C30.9274 21 27.3457 17.4183 27.3457 13V12H22.3457C16.8229 12 12.3457 16.4772 12.3457 22V150C12.3457 155.523 16.8229 160 22.3457 160H86.3457C91.8686 160 96.3457 155.523 96.3457 150V100H108.346V150C108.346 162.15 98.496 172 86.3457 172H22.3457C10.1954 172 0.345703 162.15 0.345703 150V22Z" fill="url(#paint4_linear_263_674)"/>
<defs>
<linearGradient id="paint0_linear_263_674" x1="-7.00715" y1="-15.7839" x2="210.188" y2="86.4683" gradientUnits="userSpaceOnUse">
<stop stop-color="#A385FC"/>
<stop offset="0.47" stop-color="white"/>
<stop offset="1" stop-color="#9B7BFB"/>
</linearGradient>
<linearGradient id="paint1_linear_263_674" x1="-7.00715" y1="-15.7839" x2="210.188" y2="86.4683" gradientUnits="userSpaceOnUse">
<stop stop-color="#A385FC"/>
<stop offset="0.47" stop-color="white"/>
<stop offset="1" stop-color="#9B7BFB"/>
</linearGradient>
<linearGradient id="paint2_linear_263_674" x1="-7.00715" y1="-15.7839" x2="210.188" y2="86.4683" gradientUnits="userSpaceOnUse">
<stop stop-color="#A385FC"/>
<stop offset="0.47" stop-color="white"/>
<stop offset="1" stop-color="#9B7BFB"/>
</linearGradient>
<linearGradient id="paint3_linear_263_674" x1="-7.00715" y1="-15.7839" x2="210.188" y2="86.4683" gradientUnits="userSpaceOnUse">
<stop stop-color="#A385FC"/>
<stop offset="0.47" stop-color="white"/>
<stop offset="1" stop-color="#9B7BFB"/>
</linearGradient>
<linearGradient id="paint4_linear_263_674" x1="-7.00715" y1="-15.7839" x2="210.188" y2="86.4683" gradientUnits="userSpaceOnUse">
<stop stop-color="#A385FC"/>
<stop offset="0.47" stop-color="white"/>
<stop offset="1" stop-color="#9B7BFB"/>
</linearGradient>
</defs>
</svg>
