<svg width="193" height="190" viewBox="0 0 193 190" fill="none" xmlns="http://www.w3.org/2000/svg">
<path fill-rule="evenodd" clip-rule="evenodd" d="M96.779 133.3C100.093 133.3 102.779 135.986 102.779 139.3V156.274C102.779 159.587 100.093 162.274 96.779 162.274C93.4653 162.274 90.779 159.587 90.779 156.274V139.3C90.779 135.986 93.4653 133.3 96.779 133.3Z" fill="url(#paint0_linear_263_619)"/>
<path fill-rule="evenodd" clip-rule="evenodd" d="M12.8642 39.8802C12.7921 39.8802 12.7415 39.9092 12.7187 39.9317C12.7131 39.9372 12.7098 39.9415 12.7079 39.9443C12.7067 39.9461 12.7053 39.9486 12.7053 39.9486V52.0709C12.7053 56.8818 14.6456 61.515 18.1303 64.9458C21.6182 68.3797 26.3685 70.3253 31.3409 70.3253H41.1053C44.419 70.3253 47.1053 73.0116 47.1053 76.3253C47.1053 79.639 44.419 82.3253 41.1053 82.3253H31.3409C23.2457 82.3253 15.4637 79.1602 9.71147 73.497C3.95609 67.8306 0.705322 60.1254 0.705322 52.0709V39.9438C0.705322 36.7138 2.00944 33.6355 4.29978 31.3806C6.58695 29.1288 9.66939 27.8802 12.8642 27.8802H41.1053C44.419 27.8802 47.1053 30.5665 47.1053 33.8802C47.1053 37.1939 44.419 39.8802 41.1053 39.8802H12.8642Z" fill="url(#paint1_linear_263_619)"/>
<path fill-rule="evenodd" clip-rule="evenodd" d="M146.905 33.8802C146.905 30.5665 149.592 27.8802 152.905 27.8802H180.694C183.889 27.8802 186.971 29.1288 189.258 31.3806C191.549 33.6355 192.853 36.7138 192.853 39.9438V52.0709C192.853 60.1254 189.602 67.8306 183.846 73.497C178.094 79.1602 170.312 82.3253 162.217 82.3253H152.905C149.592 82.3253 146.905 79.639 146.905 76.3253C146.905 73.0116 149.592 70.3253 152.905 70.3253H162.217C167.189 70.3253 171.94 68.3797 175.428 64.9458C178.912 61.515 180.853 56.8818 180.853 52.0709V39.9486C180.853 39.9486 180.851 39.9461 180.85 39.9443C180.85 39.9443 180.847 39.9407 180.845 39.9383C180.844 39.9363 180.842 39.9341 180.839 39.9317C180.816 39.9092 180.766 39.8802 180.694 39.8802H152.905C149.592 39.8802 146.905 37.1939 146.905 33.8802Z" fill="url(#paint2_linear_263_619)"/>
<path fill-rule="evenodd" clip-rule="evenodd" d="M35.0191 16C35.0191 7.16346 42.1826 0 51.0191 0H142.539C151.375 0 158.539 7.16345 158.539 16V67.8463C158.539 108.569 132.604 144.959 97.263 145.298C88.8867 145.379 80.63 143.357 72.9854 139.414C65.3497 135.476 58.5081 129.718 52.8072 122.557C47.1074 115.399 42.6379 106.953 39.6046 97.7346C36.5709 88.5147 35.0189 78.6597 35.0191 68.7284V68.7284V16ZM51.0191 12C48.81 12 47.0191 13.7909 47.0191 16V68.7284C47.0189 77.4228 48.3795 86.0095 51.0034 93.984C53.6277 101.96 57.4488 109.122 62.1951 115.083C66.9401 121.043 72.4931 125.658 78.4861 128.749C84.4702 131.836 90.8067 133.36 97.147 133.298C123.296 133.048 146.539 104.946 146.539 67.8463V16C146.539 13.7909 144.748 12 142.539 12H51.0191Z" fill="url(#paint3_linear_263_619)"/>
<path fill-rule="evenodd" clip-rule="evenodd" d="M59.1897 166.4C59.4484 166.255 59.7139 166.122 59.9856 166C61.2742 165.422 62.703 165.1 64.2069 165.1H133.641C135.144 165.1 136.573 165.422 137.862 166C138.133 166.122 138.399 166.255 138.658 166.4C139.686 166.973 140.607 167.717 141.381 168.594C142.986 170.413 143.961 172.803 143.961 175.42C143.961 176.845 142.805 178 141.381 178H56.4669C55.042 178 53.8869 176.845 53.8869 175.42C53.8869 172.803 54.8612 170.413 56.4669 168.594C57.2406 167.717 58.1611 166.973 59.1897 166.4ZM64.2069 153.1H133.641C145.968 153.1 155.961 163.093 155.961 175.42C155.961 183.472 149.433 190 141.381 190H56.4669C48.4146 190 41.8869 183.472 41.8869 175.42C41.8869 163.093 51.8799 153.1 64.2069 153.1Z" fill="url(#paint4_linear_263_619)"/>
<path d="M104.282 100.416C104.282 94.9563 107.847 90.2428 111.341 86.0469C114.303 82.4892 116.092 77.8718 116.092 72.8259C116.092 61.5789 107.206 52.4615 96.2454 52.4615C85.2847 52.4615 76.3993 61.5789 76.3993 72.8259C76.3993 77.4942 77.9302 81.7957 80.5049 85.2306C83.9159 89.781 87.5525 94.7293 87.5525 100.416C87.5525 103.5 90.0493 106 93.1291 106H98.7057C101.785 106 104.282 103.5 104.282 100.416Z" fill="url(#paint5_linear_263_619)"/>
<path fill-rule="evenodd" clip-rule="evenodd" d="M96.2886 29C99.05 29 101.289 31.2386 101.289 34V42.5212C101.289 45.2826 99.05 47.5212 96.2886 47.5212C93.5271 47.5212 91.2886 45.2826 91.2886 42.5212V34C91.2886 31.2386 93.5271 29 96.2886 29Z" fill="url(#paint6_linear_263_619)"/>
<path fill-rule="evenodd" clip-rule="evenodd" d="M65.6041 40.7698C67.5567 38.8171 70.7225 38.8171 72.6751 40.7698L78.7005 46.7951C80.6531 48.7478 80.6531 51.9136 78.7005 53.8662C76.7479 55.8188 73.5821 55.8188 71.6295 53.8662L65.6041 47.8408C63.6514 45.8882 63.6514 42.7224 65.6041 40.7698Z" fill="url(#paint7_linear_263_619)"/>
<path fill-rule="evenodd" clip-rule="evenodd" d="M53.3798 67.9267C53.3798 65.1653 55.6183 62.9267 58.3798 62.9267H66.9009C69.6624 62.9267 71.9009 65.1653 71.9009 67.9267C71.9009 70.6881 69.6624 72.9267 66.9009 72.9267H58.3798C55.6183 72.9267 53.3798 70.6881 53.3798 67.9267Z" fill="url(#paint8_linear_263_619)"/>
<path fill-rule="evenodd" clip-rule="evenodd" d="M127.846 40.7694C125.893 38.8168 122.727 38.8168 120.775 40.7694L114.749 46.7948C112.797 48.7474 112.797 51.9132 114.749 53.8658C116.702 55.8185 119.868 55.8185 121.82 53.8658L127.846 47.8404C129.798 45.8878 129.798 42.722 127.846 40.7694Z" fill="url(#paint9_linear_263_619)"/>
<path fill-rule="evenodd" clip-rule="evenodd" d="M140.07 67.9272C140.07 65.1658 137.832 62.9272 135.07 62.9272H126.549C123.788 62.9272 121.549 65.1658 121.549 67.9272C121.549 70.6886 123.788 72.9272 126.549 72.9272H135.07C137.832 72.9272 140.07 70.6886 140.07 67.9272Z" fill="url(#paint10_linear_263_619)"/>
<defs>
<linearGradient id="paint0_linear_263_619" x1="-9.00779" y1="-17.4357" x2="257.141" y2="132.403" gradientUnits="userSpaceOnUse">
<stop stop-color="#A385FC"/>
<stop offset="0.47" stop-color="white"/>
<stop offset="1" stop-color="#9B7BFB"/>
</linearGradient>
<linearGradient id="paint1_linear_263_619" x1="-9.00779" y1="-17.4357" x2="257.141" y2="132.403" gradientUnits="userSpaceOnUse">
<stop stop-color="#A385FC"/>
<stop offset="0.47" stop-color="white"/>
<stop offset="1" stop-color="#9B7BFB"/>
</linearGradient>
<linearGradient id="paint2_linear_263_619" x1="-9.00779" y1="-17.4357" x2="257.141" y2="132.403" gradientUnits="userSpaceOnUse">
<stop stop-color="#A385FC"/>
<stop offset="0.47" stop-color="white"/>
<stop offset="1" stop-color="#9B7BFB"/>
</linearGradient>
<linearGradient id="paint3_linear_263_619" x1="-9.00779" y1="-17.4357" x2="257.141" y2="132.403" gradientUnits="userSpaceOnUse">
<stop stop-color="#A385FC"/>
<stop offset="0.47" stop-color="white"/>
<stop offset="1" stop-color="#9B7BFB"/>
</linearGradient>
<linearGradient id="paint4_linear_263_619" x1="-9.00779" y1="-17.4357" x2="257.141" y2="132.403" gradientUnits="userSpaceOnUse">
<stop stop-color="#A385FC"/>
<stop offset="0.47" stop-color="white"/>
<stop offset="1" stop-color="#9B7BFB"/>
</linearGradient>
<linearGradient id="paint5_linear_263_619" x1="-9.00779" y1="-17.4357" x2="257.141" y2="132.403" gradientUnits="userSpaceOnUse">
<stop stop-color="#A385FC"/>
<stop offset="0.47" stop-color="white"/>
<stop offset="1" stop-color="#9B7BFB"/>
</linearGradient>
<linearGradient id="paint6_linear_263_619" x1="-9.00779" y1="-17.4357" x2="257.141" y2="132.403" gradientUnits="userSpaceOnUse">
<stop stop-color="#A385FC"/>
<stop offset="0.47" stop-color="white"/>
<stop offset="1" stop-color="#9B7BFB"/>
</linearGradient>
<linearGradient id="paint7_linear_263_619" x1="-9.00779" y1="-17.4357" x2="257.141" y2="132.403" gradientUnits="userSpaceOnUse">
<stop stop-color="#A385FC"/>
<stop offset="0.47" stop-color="white"/>
<stop offset="1" stop-color="#9B7BFB"/>
</linearGradient>
<linearGradient id="paint8_linear_263_619" x1="-9.00779" y1="-17.4357" x2="257.141" y2="132.403" gradientUnits="userSpaceOnUse">
<stop stop-color="#A385FC"/>
<stop offset="0.47" stop-color="white"/>
<stop offset="1" stop-color="#9B7BFB"/>
</linearGradient>
<linearGradient id="paint9_linear_263_619" x1="-9.00779" y1="-17.4357" x2="257.141" y2="132.403" gradientUnits="userSpaceOnUse">
<stop stop-color="#A385FC"/>
<stop offset="0.47" stop-color="white"/>
<stop offset="1" stop-color="#9B7BFB"/>
</linearGradient>
<linearGradient id="paint10_linear_263_619" x1="-9.00779" y1="-17.4357" x2="257.141" y2="132.403" gradientUnits="userSpaceOnUse">
<stop stop-color="#A385FC"/>
<stop offset="0.47" stop-color="white"/>
<stop offset="1" stop-color="#9B7BFB"/>
</linearGradient>
</defs>
</svg>
