<svg width="150" height="181" viewBox="0 0 150 181" fill="none" xmlns="http://www.w3.org/2000/svg">
<path fill-rule="evenodd" clip-rule="evenodd" d="M49.1085 59.4028C51.2142 60.7229 51.8511 63.5 50.5311 65.6058C46.8164 71.5313 45.3 78.6157 46.2637 85.5844C47.2273 92.5526 50.6049 98.9306 55.7726 103.579C60.9388 108.227 67.5563 110.844 74.4352 110.977C81.3139 111.109 88.0233 108.749 93.3581 104.306C98.6945 99.8606 102.308 93.6189 103.531 86.6935C104.755 79.7676 103.505 72.6291 100.014 66.5631C98.7739 64.409 99.5151 61.6579 101.669 60.4182C103.823 59.1785 106.574 59.9197 107.814 62.0737C112.363 69.9775 113.984 79.2604 112.394 88.2594C110.804 97.2589 106.103 105.403 99.1182 111.221C92.1316 117.04 83.3189 120.149 74.2617 119.975C65.2045 119.8 56.5158 116.354 49.7534 110.27C42.9926 104.188 38.6006 95.871 37.3485 86.8173C36.0965 77.7641 38.0634 68.5496 42.9056 60.8254C44.2256 58.7197 47.0028 58.0828 49.1085 59.4028Z" fill="url(#paint0_linear_263_593)"/>
<path fill-rule="evenodd" clip-rule="evenodd" d="M54.7071 52.1056C55.6126 51.2259 56.149 50.4976 56.3703 50.1143C56.5917 49.731 56.9541 48.9023 57.2632 47.6783C57.4032 47.1239 57.5161 46.5518 57.5989 45.9834C57.148 46.3393 56.709 46.7231 56.2989 47.1215C55.3934 48.0012 54.857 48.7295 54.6357 49.1128C54.4144 49.4961 54.0519 50.3248 53.7428 51.5488C53.6028 52.1032 53.4899 52.6753 53.4071 53.2437C53.858 52.8878 54.297 52.504 54.7071 52.1056ZM47.4621 63.5409C52.2457 66.3027 61.204 59.7422 64.1646 54.6143C67.1252 49.4864 68.3276 38.448 63.544 35.6862C58.7603 32.9244 49.8021 39.4849 46.8415 44.6128C43.8809 49.7407 42.6784 60.7791 47.4621 63.5409Z" fill="url(#paint1_linear_263_593)"/>
<path fill-rule="evenodd" clip-rule="evenodd" d="M34.6555 66.2691C34.3264 65.0503 33.9505 64.2277 33.7229 63.848C33.4954 63.4684 32.9471 62.749 32.0274 61.8842C31.6108 61.4925 31.1656 61.1159 30.709 60.7674C30.801 61.3344 30.9232 61.9046 31.0723 62.4566C31.4013 63.6754 31.7773 64.498 32.0048 64.8777C32.2324 65.2574 32.7806 65.9768 33.7003 66.8416C34.1169 67.2333 34.5621 67.6099 35.0188 67.9584C34.9267 67.3913 34.8045 66.8212 34.6555 66.2691ZM41.1312 78.1571C45.8691 75.3175 44.4866 64.3002 41.4426 59.2213C38.3987 54.1425 29.3344 47.7291 24.5965 50.5687C19.8586 53.4083 21.2412 64.4255 24.2851 69.5044C27.3291 74.5833 36.3933 80.9966 41.1312 78.1571Z" fill="url(#paint2_linear_263_593)"/>
<path fill-rule="evenodd" clip-rule="evenodd" d="M34.3033 92.2558C33.2509 91.5584 32.4252 91.1895 32.0035 91.0549C31.5818 90.9203 30.695 90.7427 29.4332 90.7014C28.8616 90.6827 28.2787 90.6942 27.7056 90.7345C28.1494 91.0992 28.6179 91.4463 29.0946 91.7622C30.147 92.4595 30.9728 92.8285 31.3945 92.9631C31.8161 93.0977 32.703 93.2753 33.9648 93.3166C34.5363 93.3353 35.1193 93.3237 35.6923 93.2835C35.2485 92.9188 34.78 92.5716 34.3033 92.2558ZM47.0195 96.8988C48.699 91.6366 40.3808 84.2814 34.74 82.481C29.0991 80.6806 18.0579 81.8571 16.3785 87.1192C14.699 92.3814 23.0171 99.7366 28.658 101.537C34.2988 103.337 45.34 102.161 47.0195 96.8988Z" fill="url(#paint3_linear_263_593)"/>
<path fill-rule="evenodd" clip-rule="evenodd" d="M51.2588 118.645C50.0059 118.8 49.1389 119.058 48.7312 119.23C48.3234 119.402 47.5346 119.844 46.5498 120.634C46.1037 120.992 45.6687 121.38 45.2598 121.784C45.8341 121.772 46.4157 121.731 46.9832 121.66C48.236 121.505 49.1031 121.247 49.5108 121.075C49.9186 120.903 50.7074 120.46 51.6922 119.67C52.1383 119.312 52.5733 118.924 52.9822 118.521C52.4079 118.533 51.8263 118.574 51.2588 118.645ZM63.9346 113.893C61.7845 108.804 50.6821 108.635 45.2279 110.94C39.7737 113.244 32.1573 121.324 34.3074 126.412C36.4575 131.5 47.5598 131.67 53.014 129.365C58.4683 127.06 66.0847 118.981 63.9346 113.893Z" fill="url(#paint4_linear_263_593)"/>
<path fill-rule="evenodd" clip-rule="evenodd" d="M96.5038 52.1056C95.5983 51.2259 95.0619 50.4976 94.8406 50.1143C94.6193 49.731 94.2568 48.9023 93.9477 47.6783C93.8077 47.1239 93.6948 46.5518 93.612 45.9834C94.0629 46.3393 94.5019 46.7231 94.912 47.1215C95.8175 48.0012 96.3539 48.7295 96.5753 49.1128C96.7966 49.4961 97.159 50.3248 97.4681 51.5488C97.6081 52.1032 97.721 52.6753 97.8038 53.2437C97.3529 52.8878 96.914 52.504 96.5038 52.1056ZM103.749 63.5409C98.9652 66.3027 90.007 59.7422 87.0464 54.6143C84.0858 49.4864 82.8833 38.448 87.667 35.6862C92.4506 32.9244 101.409 39.4849 104.369 44.6128C107.33 49.7407 108.533 60.7791 103.749 63.5409Z" fill="url(#paint5_linear_263_593)"/>
<path fill-rule="evenodd" clip-rule="evenodd" d="M116.555 66.2691C116.885 65.0503 117.26 64.2277 117.488 63.848C117.716 63.4684 118.264 62.749 119.184 61.8842C119.6 61.4925 120.045 61.1159 120.502 60.7674C120.41 61.3344 120.288 61.9046 120.139 62.4566C119.81 63.6754 119.434 64.498 119.206 64.8777C118.979 65.2574 118.43 65.9768 117.511 66.8416C117.094 67.2333 116.649 67.6099 116.192 67.9584C116.284 67.3913 116.406 66.8212 116.555 66.2691ZM110.08 78.1571C105.342 75.3175 106.724 64.3002 109.768 59.2213C112.812 54.1425 121.877 47.7291 126.614 50.5687C131.352 53.4083 129.97 64.4255 126.926 69.5044C123.882 74.5833 114.818 80.9966 110.08 78.1571Z" fill="url(#paint6_linear_263_593)"/>
<path fill-rule="evenodd" clip-rule="evenodd" d="M116.908 92.2558C117.96 91.5584 118.786 91.1895 119.207 91.0549C119.629 90.9203 120.516 90.7427 121.778 90.7014C122.349 90.6827 122.932 90.6942 123.505 90.7345C123.062 91.0992 122.593 91.4463 122.116 91.7622C121.064 92.4595 120.238 92.8285 119.816 92.9631C119.395 93.0977 118.508 93.2753 117.246 93.3166C116.675 93.3353 116.092 93.3237 115.519 93.2835C115.962 92.9188 116.431 92.5716 116.908 92.2558ZM104.191 96.8988C102.512 91.6366 110.83 84.2814 116.471 82.481C122.112 80.6806 133.153 81.8571 134.832 87.1192C136.512 92.3814 128.194 99.7366 122.553 101.537C116.912 103.337 105.871 102.161 104.191 96.8988Z" fill="url(#paint7_linear_263_593)"/>
<path fill-rule="evenodd" clip-rule="evenodd" d="M99.9522 118.645C101.205 118.8 102.072 119.058 102.48 119.23C102.888 119.402 103.676 119.844 104.661 120.634C105.107 120.992 105.542 121.38 105.951 121.784C105.377 121.772 104.795 121.731 104.228 121.66C102.975 121.505 102.108 121.247 101.7 121.075C101.292 120.903 100.504 120.46 99.5187 119.67C99.0727 119.312 98.6376 118.924 98.2288 118.521C98.8031 118.533 99.3847 118.574 99.9522 118.645ZM87.2764 113.893C89.4264 108.804 100.529 108.635 105.983 110.94C111.437 113.244 119.054 121.324 116.904 126.412C114.753 131.5 103.651 131.67 98.1969 129.365C92.7427 127.06 85.1263 118.981 87.2764 113.893Z" fill="url(#paint8_linear_263_593)"/>
<path fill-rule="evenodd" clip-rule="evenodd" d="M65.5716 1.67262C71.4849 -0.55754 78.0081 -0.557542 83.9214 1.67262L132.33 19.9298C142.454 23.748 149.156 33.4371 149.156 44.2572V90.6249C149.156 112.774 137.771 131.601 124.662 145.983C111.509 160.413 96.0579 170.998 86.6006 176.781C79.2811 181.256 70.2119 181.256 62.8924 176.781C53.4351 170.998 37.9841 160.413 24.8313 145.983C11.7223 131.601 0.337402 112.774 0.337402 90.6249V44.2571C0.337402 33.437 7.03848 23.748 17.1625 19.9298L65.5716 1.67262ZM79.6868 12.9006C76.5027 11.6998 72.9903 11.6998 69.8062 12.9006L21.3971 31.1578C15.9457 33.2137 12.3374 38.4309 12.3374 44.2571V90.6249C12.3374 108.543 21.576 124.598 33.7 137.899C45.7803 151.153 60.1717 161.052 69.152 166.543C72.6291 168.669 76.8639 168.669 80.3409 166.543C89.3213 161.052 103.713 151.153 115.793 137.899C127.917 124.598 137.156 108.543 137.156 90.6249V44.2572C137.156 38.4309 133.547 33.2137 128.096 31.1578L79.6868 12.9006Z" fill="url(#paint9_linear_263_593)"/>
<path d="M75.8091 68.4995L80.2381 77.0767L90.1425 78.4606L82.9758 85.1333L84.6671 94.5601L75.8091 90.107L66.9511 94.5601L68.6425 85.1333L61.4758 78.4606L71.3801 77.0767L75.8091 68.4995Z" fill="url(#paint10_linear_263_593)"/>
<path fill-rule="evenodd" clip-rule="evenodd" d="M75.8091 63.9995C77.4926 63.9995 79.0352 64.9391 79.8075 66.4348L83.1678 72.9424L90.7652 74.0039C92.4844 74.2441 93.9121 75.4518 94.4342 77.1074C94.9562 78.7629 94.4794 80.5711 93.2089 81.7541L87.8385 86.7543L89.0964 93.7654C89.3974 95.443 88.7248 97.1466 87.359 98.1661C85.9933 99.1857 84.1687 99.3461 82.646 98.5806L75.8091 95.1437L68.9723 98.5806C67.4496 99.3461 65.625 99.1857 64.2592 98.1661C62.8935 97.1466 62.2209 95.443 62.5219 93.7654L63.7798 86.7543L58.4093 81.7541C57.1389 80.5711 56.6621 78.7629 57.1841 77.1074C57.7061 75.4518 59.1339 74.2441 60.8531 74.0039L68.4505 72.9424L71.8107 66.4348C72.5831 64.9391 74.1257 63.9995 75.8091 63.9995ZM75.8091 78.3075L75.3785 79.1414C74.7083 80.4394 73.4496 81.3313 72.0028 81.5334L71.4611 81.6091L71.7089 81.8399C72.8286 82.8823 73.3419 84.4222 73.0717 85.928L72.9695 86.4979L73.7879 86.0865C75.0596 85.4472 76.5587 85.4472 77.8303 86.0865L78.6488 86.4979L78.5465 85.928C78.2764 84.4222 78.7897 82.8823 79.9093 81.8399L80.1572 81.6091L79.6154 81.5334C78.1686 81.3313 76.91 80.4394 76.2397 79.1414L75.8091 78.3075Z" fill="url(#paint11_linear_263_593)"/>
<defs>
<linearGradient id="paint0_linear_263_593" x1="-7.18541" y1="-16.5306" x2="216.887" y2="86.5222" gradientUnits="userSpaceOnUse">
<stop stop-color="#A385FC"/>
<stop offset="0.47" stop-color="white"/>
<stop offset="1" stop-color="#9B7BFB"/>
</linearGradient>
<linearGradient id="paint1_linear_263_593" x1="-7.18541" y1="-16.5306" x2="216.887" y2="86.5222" gradientUnits="userSpaceOnUse">
<stop stop-color="#A385FC"/>
<stop offset="0.47" stop-color="white"/>
<stop offset="1" stop-color="#9B7BFB"/>
</linearGradient>
<linearGradient id="paint2_linear_263_593" x1="-7.18541" y1="-16.5306" x2="216.887" y2="86.5222" gradientUnits="userSpaceOnUse">
<stop stop-color="#A385FC"/>
<stop offset="0.47" stop-color="white"/>
<stop offset="1" stop-color="#9B7BFB"/>
</linearGradient>
<linearGradient id="paint3_linear_263_593" x1="-7.18541" y1="-16.5306" x2="216.887" y2="86.5222" gradientUnits="userSpaceOnUse">
<stop stop-color="#A385FC"/>
<stop offset="0.47" stop-color="white"/>
<stop offset="1" stop-color="#9B7BFB"/>
</linearGradient>
<linearGradient id="paint4_linear_263_593" x1="-7.18541" y1="-16.5306" x2="216.887" y2="86.5222" gradientUnits="userSpaceOnUse">
<stop stop-color="#A385FC"/>
<stop offset="0.47" stop-color="white"/>
<stop offset="1" stop-color="#9B7BFB"/>
</linearGradient>
<linearGradient id="paint5_linear_263_593" x1="-7.18541" y1="-16.5306" x2="216.887" y2="86.5222" gradientUnits="userSpaceOnUse">
<stop stop-color="#A385FC"/>
<stop offset="0.47" stop-color="white"/>
<stop offset="1" stop-color="#9B7BFB"/>
</linearGradient>
<linearGradient id="paint6_linear_263_593" x1="-7.18541" y1="-16.5306" x2="216.887" y2="86.5222" gradientUnits="userSpaceOnUse">
<stop stop-color="#A385FC"/>
<stop offset="0.47" stop-color="white"/>
<stop offset="1" stop-color="#9B7BFB"/>
</linearGradient>
<linearGradient id="paint7_linear_263_593" x1="-7.18541" y1="-16.5306" x2="216.887" y2="86.5222" gradientUnits="userSpaceOnUse">
<stop stop-color="#A385FC"/>
<stop offset="0.47" stop-color="white"/>
<stop offset="1" stop-color="#9B7BFB"/>
</linearGradient>
<linearGradient id="paint8_linear_263_593" x1="-7.18541" y1="-16.5306" x2="216.887" y2="86.5222" gradientUnits="userSpaceOnUse">
<stop stop-color="#A385FC"/>
<stop offset="0.47" stop-color="white"/>
<stop offset="1" stop-color="#9B7BFB"/>
</linearGradient>
<linearGradient id="paint9_linear_263_593" x1="-7.18541" y1="-16.5306" x2="216.887" y2="86.5222" gradientUnits="userSpaceOnUse">
<stop stop-color="#A385FC"/>
<stop offset="0.47" stop-color="white"/>
<stop offset="1" stop-color="#9B7BFB"/>
</linearGradient>
<linearGradient id="paint10_linear_263_593" x1="-7.18541" y1="-16.5306" x2="216.887" y2="86.5222" gradientUnits="userSpaceOnUse">
<stop stop-color="#A385FC"/>
<stop offset="0.47" stop-color="white"/>
<stop offset="1" stop-color="#9B7BFB"/>
</linearGradient>
<linearGradient id="paint11_linear_263_593" x1="-7.18541" y1="-16.5306" x2="216.887" y2="86.5222" gradientUnits="userSpaceOnUse">
<stop stop-color="#A385FC"/>
<stop offset="0.47" stop-color="white"/>
<stop offset="1" stop-color="#9B7BFB"/>
</linearGradient>
</defs>
</svg>
