<svg width="146" height="172" viewBox="0 0 146 172" fill="none" xmlns="http://www.w3.org/2000/svg">
<path fill-rule="evenodd" clip-rule="evenodd" d="M22.3457 95.9001C22.3457 89.3831 27.6287 84.1001 34.1457 84.1001H74.7457C81.2627 84.1001 86.5457 89.3831 86.5457 95.9001V116.2C86.5457 122.717 81.2627 128 74.7457 128H34.1457C27.6287 128 22.3457 122.717 22.3457 116.2V95.9001Z" fill="white"/>
<path fill-rule="evenodd" clip-rule="evenodd" d="M54.4458 70C52.1915 70 50.0295 70.8955 48.4354 72.4896C46.8413 74.0837 45.9458 76.2457 45.9458 78.5V90.1C45.9458 93.4137 43.2595 96.1 39.9458 96.1C36.6321 96.1 33.9458 93.4137 33.9458 90.1V78.5C33.9458 73.0631 36.1056 67.8488 39.9501 64.0043C43.7946 60.1598 49.0089 58 54.4458 58C59.8827 58 65.097 60.1598 68.9415 64.0043C72.786 67.8488 74.9458 73.0631 74.9458 78.5V90.1C74.9458 93.4137 72.2595 96.1 68.9458 96.1C65.6321 96.1 62.9458 93.4137 62.9458 90.1V78.5C62.9458 76.2457 62.0503 74.0837 60.4562 72.4896C58.8622 70.8955 56.7001 70 54.4458 70Z" fill="white"/>
<path fill-rule="evenodd" clip-rule="evenodd" d="M114.074 31C103.178 31 94.3457 39.8325 94.3457 50.728C94.3457 61.6235 103.178 70.456 114.074 70.456C124.969 70.456 133.802 61.6235 133.802 50.728C133.802 39.8325 124.969 31 114.074 31ZM82.3457 50.728C82.3457 33.2051 96.5508 19 114.074 19C131.597 19 145.802 33.2051 145.802 50.728C145.802 68.2509 131.597 82.456 114.074 82.456C96.5508 82.456 82.3457 68.2509 82.3457 50.728Z" fill="white"/>
<path fill-rule="evenodd" clip-rule="evenodd" d="M127.571 70.2686C130.857 69.841 133.867 72.1582 134.295 75.4442L138.129 104.904C138.427 107.195 137.383 109.454 135.445 110.712C133.507 111.969 131.019 112.003 129.048 110.797L114.074 101.637L99.0999 110.797C97.1289 112.003 94.6407 111.969 92.7025 110.712C90.7644 109.454 89.7207 107.195 90.0192 104.904L93.8529 75.4756C94.281 72.1897 97.2918 69.8729 100.578 70.301C103.864 70.7291 106.18 73.7399 105.752 77.0258L103.539 94.0141L110.943 89.4851C112.865 88.3095 115.283 88.3095 117.205 89.4851L124.61 94.0152L122.395 76.9927C121.968 73.7067 124.285 70.6962 127.571 70.2686Z" fill="white"/>
<path fill-rule="evenodd" clip-rule="evenodd" d="M0.345703 22C0.345703 9.84974 10.1954 0 22.3457 0H86.3457C98.496 0 108.346 9.84974 108.346 22V25H96.3457V22C96.3457 16.4772 91.8686 12 86.3457 12H81.3457V13C81.3457 17.4183 77.764 21 73.3457 21H35.3457C30.9274 21 27.3457 17.4183 27.3457 13V12H22.3457C16.8229 12 12.3457 16.4772 12.3457 22V150C12.3457 155.523 16.8229 160 22.3457 160H86.3457C91.8686 160 96.3457 155.523 96.3457 150V100H108.346V150C108.346 162.15 98.496 172 86.3457 172H22.3457C10.1954 172 0.345703 162.15 0.345703 150V22Z" fill="white"/>
</svg>
